<svg xmlns="http://www.w3.org/2000/svg" width="433.034" height="408.502" viewBox="0 0 433.034 408.502">
  <g id="Grupo_23471" data-name="Grupo 23471" transform="translate(-31.006 -29.249)">
    <g id="Grupo_23470" data-name="Grupo 23470" transform="translate(31.006 29.249)">
      <g id="Grupo_23426" data-name="Grupo 23426" transform="translate(79.528)">
        <g id="Grupo_23406" data-name="Grupo 23406" transform="translate(2.711)">
          <path id="Trazado_6439" data-name="Trazado 6439" d="M352.276,186.259,83.223,30.924c-2.385-1.377-4.57-1.533-6.3-.687l-.049.02c-.029.014-.064.026-.092.043a86.071,86.071,0,0,0-16.577,9.761l12.919,12.6V245.81c0,7.437,4.521,16.074,10.1,19.3L344.571,415.993l-9.105,4.5,6.594,10.324s8.083-2.214,17.229-10.11c1.9-1.351,3.086-4.094,3.086-7.9V205.558C362.375,198.119,357.854,189.481,352.276,186.259Z" transform="translate(-58.148 -28.366)" fill="#39a1ff"/>
          <path id="Trazado_6440" data-name="Trazado 6440" d="M342.8,433.273l-7.956-12.448,8.184-4.042L83.887,267.167C77.842,263.68,73.1,254.684,73.1,246.693V54.114L59.493,40.837l1.212-.961a86.757,86.757,0,0,1,16.865-9.937c2.31-1.123,5-.863,7.679.687L354.3,185.962c6.045,3.493,10.783,12.486,10.783,20.477V413.692c0,4.131-1.3,7.33-3.661,9.007-9.175,7.925-17.316,10.217-17.659,10.312Zm-4.021-11.351,5.208,8.15a51.344,51.344,0,0,0,15.76-9.515c1.7-1.215,2.613-3.689,2.613-6.865V206.438c0-6.989-4.224-15.116-9.417-18.115L83.887,32.985c-1.9-1.094-3.635-1.319-5.02-.641a89.6,89.6,0,0,0-15.22,8.739L75.833,52.968V246.693c0,6.992,4.224,15.116,9.417,18.115L348.8,416.971Z" transform="translate(-59.493 -29.249)" fill="#150035"/>
        </g>
        <g id="Grupo_23407" data-name="Grupo 23407" transform="translate(16.432 18.289)">
          <path id="Trazado_6441" data-name="Trazado 6441" d="M64.718,59.267V130.62l165.811,97.259,103.119-59.621L104.794,36.129Z" transform="translate(-63.355 -34.555)" fill="#150035"/>
          <path id="Trazado_6442" data-name="Trazado 6442" d="M231.415,230.484,64.246,132.428V59.511l41.439-23.927,231.581,133.7ZM66.974,130.869l164.449,96.463,100.392-58.044L105.685,38.734l-38.71,22.35Z" transform="translate(-64.246 -35.584)" fill="#150035"/>
        </g>
        <g id="Grupo_23408" data-name="Grupo 23408" transform="translate(12.838 3.646)">
          <path id="Trazado_6443" data-name="Trazado 6443" d="M63.515,46.966l3.246,3.165v6.252l28.615-17.3L81.469,31.056l-16.625,9.43Z" transform="translate(-62.031 -29.485)" fill="#150035"/>
          <path id="Trazado_6444" data-name="Trazado 6444" d="M66.367,59.826V51.731L63,48.448l1.6-7.815L82.444,30.512l16.579,9.573Zm-.4-12.29L69.1,50.585v4.408L93.669,40.14,82.433,33.653l-15.41,8.742Z" transform="translate(-63.001 -30.512)" fill="#150035"/>
        </g>
        <g id="Grupo_23409" data-name="Grupo 23409" transform="translate(85.054 244.431)">
          <path id="Trazado_6445" data-name="Trazado 6445" d="M229.112,259.568a9.259,9.259,0,0,0-4.556-6.022l-10.451-6.034c-10.65-6.149-19.362-21.239-19.362-33.537V144.6a.244.244,0,0,0-.121-.211L184.1,138.315a.237.237,0,0,0-.344.28,28.369,28.369,0,0,1,1.288,8.092v50.258a14.8,14.8,0,0,1-1.793,7.567l-1.071-8.213a.243.243,0,0,0-.268-.211l-21.851,2.546a.253.253,0,0,1-.225-.1c-4.665-6.057-7.78-13.822-7.78-20.641V127.639a15.594,15.594,0,0,1,1.371-6.784.23.23,0,0,0-.092-.3l-10.618-6.129a.242.242,0,0,0-.364.211v68.812c0,12.448-8.822,17.558-19.6,11.331l-10.889-6.285c-1.14-.658-1.943-.811-2.673-.355l-.225.113a97.433,97.433,0,0,0-20.37,11.862.244.244,0,0,0-.017.378l8.207,7.33.046.032,100.652,55.9.066.055,9.859,11.565a.22.22,0,0,0,.254.078c1.455-.54,13.62-5.188,20.774-12.229C229.138,262.55,229.473,261.317,229.112,259.568Z" transform="translate(-87.126 -113.029)" fill="#39a1ff"/>
          <path id="Trazado_6446" data-name="Trazado 6446" d="M208.463,277.715a1.593,1.593,0,0,1-1.215-.577l-9.726-11.406-100.741-56-8.71-7.76-.055-.834a1.623,1.623,0,0,1,.638-1.221,97.6,97.6,0,0,1,20.69-12.041l.121-.066c1.386-.878,2.933-.2,3.964.4l10.886,6.273c4.772,2.751,9.209,3.23,12.483,1.342s5.075-5.97,5.075-11.484V115.523a1.607,1.607,0,0,1,2.4-1.394l10.627,6.135a1.579,1.579,0,0,1,.644,2.064,14.267,14.267,0,0,0-1.238,6.2v50.258c0,6.135,2.65,13.311,7.113,19.31l21.219-2.474A1.62,1.62,0,0,1,184.418,197l.147,1.135c0-.1,0-50.558,0-50.558a26.972,26.972,0,0,0-1.23-7.7,1.6,1.6,0,0,1,2.324-1.856l10.531,6.08a1.609,1.609,0,0,1,.805,1.391v69.372c0,11.894,8.378,26.409,18.678,32.359l10.453,6.031a10.6,10.6,0,0,1,5.205,6.929c.586,2.841-.427,4.3-1.085,4.919-7.336,7.22-19.83,11.989-21.23,12.509A1.51,1.51,0,0,1,208.463,277.715ZM98.469,207.6l100.784,55.974,9.561,11.2c3.051-1.2,13.32-5.508,19.547-11.637a2.691,2.691,0,0,0,.3-2.4,7.881,7.881,0,0,0-3.9-5.118l-10.451-6.031c-11.051-6.38-20.044-21.955-20.044-34.718V146.138l-7.639-4.411a27.7,27.7,0,0,1,.664,5.846v50.261a16.145,16.145,0,0,1-1.98,8.259l-2.015,3.421-1.441-11.057-20.754,2.419a1.641,1.641,0,0,1-1.455-.6c-5.058-6.571-8.072-14.6-8.072-21.487V128.528a17.721,17.721,0,0,1,1.088-6.409L144.6,117.46v66.872c0,6.53-2.286,11.447-6.441,13.846s-9.55,1.923-15.208-1.345l-10.889-6.273c-.964-.554-1.187-.43-1.27-.375l-.344.173a97.054,97.054,0,0,0-19.062,10.918Z" transform="translate(-88.016 -113.918)" fill="#150035"/>
        </g>
        <g id="Grupo_23410" data-name="Grupo 23410" transform="translate(197.53 386.816)">
          <path id="Trazado_6447" data-name="Trazado 6447" d="M154.745,166.39c-.266-1.29-.046-1.449-.843-2.474a64.093,64.093,0,0,1-20.826,11.574l-5.176.681,5.133,6.022a.228.228,0,0,0,.254.075c1.455-.54,13.62-5.188,20.774-12.226C154.771,169.372,155.106,168.14,154.745,166.39Z" transform="translate(-125.235 -161.962)" fill="#1a0e33"/>
          <path id="Trazado_6448" data-name="Trazado 6448" d="M134.948,184.925a1.593,1.593,0,0,1-1.215-.577l-6.755-7.922,7.662-1.008a64.292,64.292,0,0,0,20.13-11.27l1.085-.909.866,1.12a3.978,3.978,0,0,1,.979,2.292c.029.2.058.433.121.742.586,2.841-.43,4.3-1.085,4.919-7.336,7.22-19.83,11.989-21.23,12.512A1.636,1.636,0,0,1,134.948,184.925Zm-2.647-6.458,3,3.516c3.051-1.2,13.32-5.508,19.547-11.637a2.691,2.691,0,0,0,.3-2.4c-.037-.193-.069-.364-.092-.517A64.851,64.851,0,0,1,135.2,178.078Z" transform="translate(-126.977 -163.239)" fill="#150035"/>
        </g>
        <g id="Grupo_23411" data-name="Grupo 23411" transform="translate(180.789 373.966)">
          <path id="Trazado_6449" data-name="Trazado 6449" d="M133.462,178.762l.066.055,2.662,3.121,23.886-13.649-9.98-5.762a29.986,29.986,0,0,1-4.417-3.164c-9.931,5.661-19.59,10.97-23.522,13.118Z" transform="translate(-119.331 -157.705)" fill="#fff"/>
          <path id="Trazado_6450" data-name="Trazado 6450" d="M137.731,184.767l-3.259-3.828-13.294-7.385,26.5-14.766.727.621a28.979,28.979,0,0,0,4.215,3.023l12.036,6.946Zm-10.907-11.193,9.561,5.41,1.957,2.292,20.846-11.911-7.927-4.576a30.458,30.458,0,0,1-3.88-2.693C139.224,166.741,131.308,171.112,126.825,173.575Z" transform="translate(-121.178 -158.788)" fill="#150035"/>
        </g>
        <g id="Grupo_23412" data-name="Grupo 23412" transform="translate(85.054 317.898)">
          <path id="Trazado_6451" data-name="Trazado 6451" d="M122.744,146.746l-10.889-6.285c-1.14-.658-1.943-.811-2.673-.355l-.225.113a97.433,97.433,0,0,0-20.37,11.862.244.244,0,0,0-.017.378l8.207,7.33.046.032,1.059,1.611Z" transform="translate(-87.126 -138.465)" fill="#fff"/>
          <path id="Trazado_6452" data-name="Trazado 6452" d="M98.354,164.164l-1.666-2.506-8.617-7.708-.055-.834a1.6,1.6,0,0,1,.638-1.221,97.745,97.745,0,0,1,20.69-12.041l.121-.066c1.386-.878,2.933-.2,3.964.4l12.907,7.468Zm.115-4.584.176.1.548.823,21.735-12.827-8.866-5.136c-.964-.554-1.187-.43-1.27-.375l-.344.173a97.054,97.054,0,0,0-19.062,10.918Z" transform="translate(-88.016 -139.367)" fill="#150035"/>
        </g>
        <g id="Grupo_23413" data-name="Grupo 23413" transform="translate(152.324 314.516)">
          <path id="Trazado_6453" data-name="Trazado 6453" d="M150.739,168.165V141.311c-4.483-1.533-7.847-2.644-8.213-2.644a11.121,11.121,0,0,0-1.49.369v12.1a14.8,14.8,0,0,1-1.793,7.567l-1.071-8.213a.243.243,0,0,0-.268-.211l-21.851,2.546a.253.253,0,0,1-.225-.1,39.783,39.783,0,0,1-3.06-4.622l-.958.318,2.387,46.9,11.522,6.96.312.41,9.385,5.214,1.366-1.744s11.6-6.348,23.283-13.554C154.492,185.461,150.739,176.22,150.739,168.165Z" transform="translate(-110.392 -137.304)" fill="#150035"/>
          <path id="Trazado_6454" data-name="Trazado 6454" d="M136.7,210.558l-10.65-5.918-.329-.427-11.92-7.2-2.48-48.664,3.008-.987.549.964a39.873,39.873,0,0,0,2.578,3.967l21.219-2.474a1.62,1.62,0,0,1,1.778,1.374l.147,1.135c0-.1,0-13.424,0-13.424l.987-.283a7.358,7.358,0,0,1,1.865-.422c.349,0,.713,0,8.655,2.717l.924.318v27.827c0,7.411,3.461,16.458,9.033,23.612l.935,1.2-1.293.8c-10.644,6.568-21.352,12.494-23.1,13.456Zm-8.828-8.023,8.118,4.509.823-1.045.242-.133c.113-.064,10.866-5.959,21.949-12.737-5.468-7.489-8.7-16.383-8.7-24.074V143.178c-4.841-1.648-6.392-2.119-6.865-2.237l-.11.029v11.057a16.145,16.145,0,0,1-1.98,8.259l-2.015,3.421-1.441-11.057-20.754,2.419a1.632,1.632,0,0,1-1.455-.6c-.488-.635-.964-1.3-1.423-1.975l2.185,42.934Z" transform="translate(-111.318 -138.195)" fill="#150035"/>
        </g>
        <g id="Grupo_23414" data-name="Grupo 23414" transform="translate(83.911 255.217)">
          <path id="Trazado_6455" data-name="Trazado 6455" d="M205.5,258.2l-11.256-6.5C183.618,245.568,175,230.645,175,218.376V148.724l-11.172-6.449a28.82,28.82,0,0,1,1.469,8.672V201.2c0,10.52-7.385,14.784-16.5,9.524s-16.5-18.052-16.5-28.572V131.9a15.4,15.4,0,0,1,1.469-6.978l-11.172-6.449v69.655c0,12.269-8.612,17.243-19.238,11.109l-11.256-6.5c-2.22-1.282-4.019-.242-4.019,2.321a8.884,8.884,0,0,0,4.019,6.96L205.5,267.482c2.22,1.282,4.019.242,4.019-2.321A8.88,8.88,0,0,0,205.5,258.2Z" transform="translate(-86.728 -116.111)" fill="#39a1ff"/>
          <path id="Trazado_6456" data-name="Trazado 6456" d="M208.194,270.934a5.01,5.01,0,0,1-2.486-.73L92.323,204.74a10.247,10.247,0,0,1-4.7-8.138,3.786,3.786,0,0,1,6.065-3.5l11.256,6.5c4.7,2.711,9.045,3.19,12.24,1.348s4.954-5.849,4.954-11.276V117.654l14.333,8.277-.583,1.152a14.058,14.058,0,0,0-1.319,6.363V183.7c0,10.072,7.093,22.356,15.812,27.391,3.969,2.289,7.627,2.7,10.3,1.155s4.148-4.916,4.148-9.5V152.49a27.3,27.3,0,0,0-1.4-8.259l-1.071-3.357,14.905,8.606v70.44c0,11.816,8.326,26.236,18.56,32.146l11.253,6.5a10.252,10.252,0,0,1,4.7,8.141,4.166,4.166,0,0,1-1.859,3.782A3.4,3.4,0,0,1,208.194,270.934ZM91.211,195.092a.733.733,0,0,0-.367.087c-.312.179-.5.71-.5,1.423a7.5,7.5,0,0,0,3.337,5.78l113.386,65.463a1.651,1.651,0,0,0,1.478.28c.312-.176.5-.71.5-1.42a7.505,7.505,0,0,0-3.337-5.782l-11.256-6.5c-10.982-6.34-19.922-21.819-19.922-34.5V151.053l-7.636-4.411a27.7,27.7,0,0,1,.661,5.849v50.258c0,5.595-1.957,9.807-5.514,11.859s-8.184,1.643-13.026-1.158c-9.472-5.465-17.177-18.811-17.177-29.749V133.445a17.727,17.727,0,0,1,1.088-6.412l-8.063-4.657v67.294c0,6.441-2.246,11.285-6.319,13.635s-9.388,1.879-14.969-1.348l-11.253-6.5A2.38,2.38,0,0,0,91.211,195.092Z" transform="translate(-87.62 -117.654)" fill="#150035"/>
        </g>
        <g id="Grupo_23415" data-name="Grupo 23415" transform="translate(128.086 264.316)">
          <path id="Trazado_6457" data-name="Trazado 6457" d="M103.395,126.764v50.258c0,10.517,7.385,23.309,16.493,28.569s16.5,1,16.5-9.524V145.809a28.835,28.835,0,0,0-1.469-8.672l5.858,3.381V121.279H104.235A16.733,16.733,0,0,0,103.395,126.764Z" transform="translate(-102.029 -119.914)" fill="#fff"/>
          <path id="Trazado_6458" data-name="Trazado 6458" d="M128.154,210.106a16.3,16.3,0,0,1-8.054-2.445c-9.472-5.468-17.177-18.811-17.177-29.747V127.657a18.17,18.17,0,0,1,.915-5.93l.318-.921h38.872v22.965l-5.049-2.916a27.7,27.7,0,0,1,.664,5.846v50.261c0,5.592-1.96,9.8-5.514,11.856A9.829,9.829,0,0,1,128.154,210.106Zm-22.015-86.572a16.427,16.427,0,0,0-.488,4.122v50.258c0,10.067,7.093,22.353,15.812,27.388,3.967,2.289,7.619,2.705,10.3,1.155s4.148-4.916,4.148-9.5V146.7a27.341,27.341,0,0,0-1.4-8.257l-1.071-3.357,6.859,3.964V123.534Z" transform="translate(-102.922 -120.806)" fill="#150035"/>
        </g>
        <g id="Grupo_23416" data-name="Grupo 23416" transform="translate(128.086 264.316)">
          <path id="Trazado_6459" data-name="Trazado 6459" d="M127.685,121.279h-23.45a16.733,16.733,0,0,0-.84,5.485v50.258c0,7.815,4.079,16.88,9.914,23.182,5.872.476,9.989-3.883,9.989-11.732V138.214a28.838,28.838,0,0,0-1.469-8.675l5.858,3.381Z" transform="translate(-102.029 -119.914)" fill="#150035"/>
          <path id="Trazado_6460" data-name="Trazado 6460" d="M115.064,202.5c-.32,0-.647-.014-.976-.04l-.528-.043-.361-.39c-6.241-6.744-10.277-16.21-10.277-24.108V127.657a18.17,18.17,0,0,1,.915-5.93l.318-.921H129.94v15.367l-5.049-2.916a27.7,27.7,0,0,1,.661,5.849v50.255c0,4.631-1.331,8.309-3.854,10.635A9.573,9.573,0,0,1,115.064,202.5Zm-.234-2.731a6.808,6.808,0,0,0,5.017-1.775c1.952-1.8,2.979-4.778,2.979-8.629V139.106a27.392,27.392,0,0,0-1.4-8.262l-1.068-3.355,6.856,3.961v-7.916H106.138a16.427,16.427,0,0,0-.488,4.122v50.258C105.65,185.011,109.239,193.53,114.83,199.766Z" transform="translate(-102.922 -120.806)" fill="#150035"/>
        </g>
        <g id="Grupo_23417" data-name="Grupo 23417" transform="translate(133.689 264.316)">
          <path id="Trazado_6461" data-name="Trazado 6461" d="M105.335,124.042V174.3c0,10.52,7.385,23.312,16.5,28.572a14.3,14.3,0,0,0,8.08,2.211c1.775-2.012,2.812-5.075,2.812-9.016V145.809a28.835,28.835,0,0,0-1.469-8.672l5.858,3.381v-5.208c-.087-.3-.159-.595-.254-.895l.254.147V121.279h-31.58A19.411,19.411,0,0,0,105.335,124.042Z" transform="translate(-103.972 -119.914)" fill="#39a1ff"/>
          <path id="Trazado_6462" data-name="Trazado 6462" d="M130.083,207.364a16.366,16.366,0,0,1-8.043-2.419c-9.472-5.468-17.177-18.817-17.177-29.749V124.934a21,21,0,0,1,.211-2.959l.17-1.169h34.12v22.965l-5.049-2.916a27.7,27.7,0,0,1,.664,5.846v50.261c0,4.146-1.091,7.572-3.155,9.914l-.367.419-.554.04C130.634,207.355,130.36,207.364,130.083,207.364Zm-22.44-83.83c-.038.462-.052.927-.052,1.4V175.2c0,10.067,7.093,22.353,15.812,27.388a14.051,14.051,0,0,0,6.732,2.055,12.641,12.641,0,0,0,2.116-7.676V146.7a27.342,27.342,0,0,0-1.4-8.257l-1.071-3.357,6.859,3.964-.04-2.818c-.046-.17-.092-.338-.144-.505l-1.088-3.355,1.273.73v-9.57Z" transform="translate(-104.863 -120.806)" fill="#150035"/>
        </g>
        <g id="Grupo_23418" data-name="Grupo 23418" transform="translate(227.231 162.01)">
          <path id="Trazado_6463" data-name="Trazado 6463" d="M140.823,126.4,137.743,275.5l59.144,34.146,19.183-11V100.009a25.7,25.7,0,0,0-4.651-14.016Z" transform="translate(-136.363 -84.189)" fill="#150035"/>
          <path id="Trazado_6464" data-name="Trazado 6464" d="M197.786,312.4l-60.521-34.943,3.115-150.682,72.343-41.41.716,1.025a27.023,27.023,0,0,1,4.9,14.8V300.615Zm-57.761-36.5,57.767,33.355,17.818-10.223V101.188a23.984,23.984,0,0,0-3.721-12.194l-68.815,39.383Z" transform="translate(-137.265 -85.368)" fill="#150035"/>
        </g>
        <g id="Grupo_23419" data-name="Grupo 23419" transform="translate(0 9.583)">
          <path id="Trazado_6465" data-name="Trazado 6465" d="M338.177,423.773,69.124,268.435c-5.577-3.219-10.1-11.859-10.1-19.3V41.889c0-7.44,4.521-10.855,10.1-7.636L338.177,189.591c5.578,3.219,10.1,11.859,10.1,19.3V416.14C348.276,423.577,343.755,427,338.177,423.773Z" transform="translate(-57.663 -31.676)" fill="#fff"/>
          <path id="Trazado_6466" data-name="Trazado 6466" d="M343.084,427.243a9.459,9.459,0,0,1-4.7-1.4L69.334,270.508c-6.045-3.487-10.78-12.483-10.78-20.477V42.778c0-4.408,1.521-7.815,4.172-9.345,2.269-1.314,5.1-1.126,7.974.531L339.752,189.3c6.045,3.49,10.78,12.486,10.78,20.477V417.03c0,4.411-1.521,7.818-4.174,9.351A6.492,6.492,0,0,1,343.084,427.243ZM66.011,35.289a3.8,3.8,0,0,0-1.923.5c-1.784,1.031-2.809,3.58-2.809,6.986V250.031c0,6.992,4.226,15.119,9.42,18.118L339.752,423.488c1.406.808,3.45,1.559,5.243.531s2.809-3.58,2.809-6.989V209.779c0-6.989-4.224-15.116-9.417-18.115L69.334,36.326A6.887,6.887,0,0,0,66.011,35.289Z" transform="translate(-58.554 -32.568)" fill="#150035"/>
        </g>
        <g id="Grupo_23420" data-name="Grupo 23420" transform="translate(8.118 20.182)">
          <path id="Trazado_6467" data-name="Trazado 6467" d="M331.963,394.836,64.723,240.545a6.912,6.912,0,0,1-2.884-5.514V39.239c0-2.125,1.29-3.1,2.884-2.182L331.963,191.35a6.9,6.9,0,0,1,2.884,5.511V392.653C334.847,394.778,333.557,395.757,331.963,394.836Z" transform="translate(-60.474 -35.35)" fill="#39a1ff"/>
          <path id="Trazado_6468" data-name="Trazado 6468" d="M334.022,397.429a3.747,3.747,0,0,1-1.848-.523L64.934,242.613a8.289,8.289,0,0,1-3.568-6.692V40.129a3.861,3.861,0,0,1,1.68-3.513,3.2,3.2,0,0,1,3.254.15L333.537,191.059a8.289,8.289,0,0,1,3.568,6.692V393.543a3.861,3.861,0,0,1-1.68,3.513A2.745,2.745,0,0,1,334.022,397.429Zm-.485-2.881c.286.162.479.176.525.15.081-.046.315-.364.315-1.155V197.751a5.59,5.59,0,0,0-2.2-4.33L64.934,39.127c-.283-.165-.471-.179-.525-.15-.081.046-.315.361-.315,1.152V235.921a5.589,5.589,0,0,0,2.2,4.33Z" transform="translate(-61.366 -36.24)" fill="#150035"/>
        </g>
        <g id="Grupo_23421" data-name="Grupo 23421" transform="translate(8.155 20.19)">
          <path id="Trazado_6469" data-name="Trazado 6469" d="M334.446,393.276,67.209,238.985a6.914,6.914,0,0,1-2.887-5.514V37.679a4.44,4.44,0,0,1,.072-.788c-1.429-.6-2.543.364-2.543,2.333V235.016a6.915,6.915,0,0,0,2.887,5.514L331.975,394.82c1.38.794,2.529.167,2.815-1.391A3.5,3.5,0,0,1,334.446,393.276Z" transform="translate(-60.488 -35.351)" fill="#150035"/>
          <path id="Trazado_6470" data-name="Trazado 6470" d="M334,397.423a3.615,3.615,0,0,1-1.813-.534L64.944,242.6a8.294,8.294,0,0,1-3.565-6.692V40.115a3.887,3.887,0,0,1,1.516-3.4,3.026,3.026,0,0,1,2.916-.193l1.016.424-.2,1.083a2.852,2.852,0,0,0-.046.54V234.363a5.586,5.586,0,0,0,2.2,4.333l267.24,154.29-.026.046-.4,1.25.615-1.221,1.01.424-.2,1.077a3.372,3.372,0,0,1-1.813,2.6A2.918,2.918,0,0,1,334,397.423ZM64.127,236.349a5.557,5.557,0,0,0,2.183,3.892l.11.064A8.7,8.7,0,0,1,64.127,236.349Z" transform="translate(-61.379 -36.243)" fill="#150035"/>
        </g>
        <g id="Grupo_23422" data-name="Grupo 23422" transform="translate(133.389 303.707)">
          <path id="Trazado_6471" data-name="Trazado 6471" d="M126.136,150.449,106.794,139.28a3.736,3.736,0,0,1-1.562-2.985c0-1.152.7-1.68,1.562-1.184l19.342,11.167a3.748,3.748,0,0,1,1.565,2.988C127.7,150.417,127,150.946,126.136,150.449Z" transform="translate(-103.867 -133.557)" fill="#150035"/>
          <path id="Trazado_6472" data-name="Trazado 6472" d="M127.652,152.893a2.619,2.619,0,0,1-1.3-.37l-19.345-11.169a5.1,5.1,0,0,1-2.246-4.166,2.7,2.7,0,0,1,1.224-2.445,2.319,2.319,0,0,1,2.385.081l19.342,11.169a5.09,5.09,0,0,1,2.246,4.166,2.7,2.7,0,0,1-1.221,2.445A2.172,2.172,0,0,1,127.652,152.893ZM107.51,137.477a2.386,2.386,0,0,0,.86,1.519L127.2,149.87a2.392,2.392,0,0,0-.855-1.516Z" transform="translate(-104.759 -134.451)" fill="#150035"/>
        </g>
        <rect id="Rectángulo_5801" data-name="Rectángulo 5801" width="13.465" height="2.097" transform="matrix(0.866, -0.5, 0.5, 0.866, 292.376, 180.024)" fill="#39a1ff"/>
        <rect id="Rectángulo_5802" data-name="Rectángulo 5802" width="13.466" height="2.095" transform="translate(292.377 374.605) rotate(-30.023)" fill="#39a1ff"/>
        <rect id="Rectángulo_5803" data-name="Rectángulo 5803" width="4.367" height="2.097" transform="translate(134.53 337.055) rotate(-29.872)" fill="#39a1ff"/>
        <rect id="Rectángulo_5804" data-name="Rectángulo 5804" width="13.464" height="2.096" transform="translate(11.189 221.231) rotate(-30.034)" fill="#39a1ff"/>
        <rect id="Rectángulo_5805" data-name="Rectángulo 5805" width="13.466" height="2.097" transform="matrix(0.866, -0.5, 0.5, 0.866, 10.055, 37.546)" fill="#39a1ff"/>
        <rect id="Rectángulo_5806" data-name="Rectángulo 5806" width="13.466" height="2.095" transform="translate(263.945 368.676) rotate(-30.023)" fill="#39a1ff"/>
        <g id="Grupo_23425" data-name="Grupo 23425" transform="translate(294.322 300.841)">
          <g id="Grupo_23423" data-name="Grupo 23423" transform="translate(0 21.529)">
            <path id="Trazado_6473" data-name="Trazado 6473" d="M166.278,155.822l-4.1,2.364c-.725.419-1.314-.026-1.314-.99V146.307a3.14,3.14,0,0,1,1.314-2.506l4.1-2.364c.725-.419,1.311.026,1.311.99v10.889A3.142,3.142,0,0,1,166.278,155.822Z" transform="translate(-159.82 -140.229)" fill="#150035"/>
            <path id="Trazado_6474" data-name="Trazado 6474" d="M162.341,160.08a1.7,1.7,0,0,1-.857-.228,2.171,2.171,0,0,1-.979-1.969V146.994a4.171,4.171,0,0,1,1.836-3.412l4.1-2.364a1.858,1.858,0,0,1,1.905-.072,2.174,2.174,0,0,1,.979,1.969V154a4.181,4.181,0,0,1-1.833,3.415l-4.1,2.364A2.089,2.089,0,0,1,162.341,160.08Zm4.885-16.894-3.837,2.208a2.17,2.17,0,0,0-.785,1.6v10.82l3.834-2.211a2.132,2.132,0,0,0,.788-1.6Z" transform="translate(-160.505 -140.916)" fill="#39a1ff"/>
          </g>
          <g id="Grupo_23424" data-name="Grupo 23424">
            <path id="Trazado_6475" data-name="Trazado 6475" d="M166.278,148.367l-4.1,2.364c-.725.419-1.314-.026-1.314-.993V138.852a3.141,3.141,0,0,1,1.314-2.506l4.1-2.367c.725-.419,1.311.026,1.311.993v10.889A3.142,3.142,0,0,1,166.278,148.367Z" transform="translate(-159.82 -132.773)" fill="#150035"/>
            <path id="Trazado_6476" data-name="Trazado 6476" d="M162.341,152.624a1.706,1.706,0,0,1-.857-.231,2.166,2.166,0,0,1-.979-1.966V139.538a4.19,4.19,0,0,1,1.833-3.415l4.1-2.364a1.858,1.858,0,0,1,1.905-.069,2.171,2.171,0,0,1,.979,1.969v10.889a4.177,4.177,0,0,1-1.836,3.415l-4.1,2.361A2.094,2.094,0,0,1,162.341,152.624Zm4.885-16.9-3.837,2.211a2.159,2.159,0,0,0-.785,1.6v10.817l3.834-2.211a2.12,2.12,0,0,0,.788-1.6Z" transform="translate(-160.505 -133.458)" fill="#39a1ff"/>
          </g>
        </g>
        <rect id="Rectángulo_5807" data-name="Rectángulo 5807" width="15.341" height="2.096" transform="translate(179.663 370.569) rotate(-29.379)" fill="#39a1ff"/>
      </g>
      <g id="Grupo_23435" data-name="Grupo 23435" transform="translate(0 59.942)">
        <g id="Grupo_23427" data-name="Grupo 23427" transform="translate(6.16 0.003)">
          <path id="Trazado_6477" data-name="Trazado 6477" d="M193.039,180.7c0-9.74-6.839-21.585-15.275-26.456a17.429,17.429,0,0,0-2.63-1.238,25.313,25.313,0,0,0,.447-4.867c0-14.022-9.844-31.072-21.989-38.084a19.72,19.72,0,0,0-9.966-2.976c-2.373-19.986-16.222-42.293-33-51.981-9.27-5.352-17.469-5.924-23.52-2.379L65.268,66.368l6.709,11.346c-.214-.13-.416-.3-.629-.419C65,73.628,59.3,73.461,55.282,76.111L33.763,89.527l8.525,16.092,11.449,2.067c4.007,8.513,10.393,16.23,17.61,20.4L165.8,182.615l-11.579,7.194L166.606,204.3l22.3-13.935.523-.419C191.991,188.27,193.039,185.366,193.039,180.7Z" transform="translate(-31.964 -49.128)" fill="#39a1ff"/>
          <path id="Trazado_6478" data-name="Trazado 6478" d="M167.508,206.962l-14.18-16.591,10.993-6.83L71.839,130.147c-7.053-4.073-13.531-11.47-17.855-20.361l-11.412-2.061L33.14,89.93l23.7-14.813.04.058c3.568-1.8,8.014-1.767,12.7.069L64.593,66.8,87.639,52.4c6.6-3.866,15.439-3.025,24.842,2.4C129.2,64.456,143.148,86.11,146,106.636a21.867,21.867,0,0,1,9.446,3.127c12.5,7.214,22.671,24.83,22.671,39.265a27.55,27.55,0,0,1-.283,4.019,18.8,18.8,0,0,1,1.784.906c8.8,5.081,15.956,17.48,15.956,27.639,0,5.266-1.3,8.467-4.221,10.381l-.416.344Zm-10.049-15.947,10.6,12.393,21.7-13.641c2.2-1.446,3.092-3.871,3.092-8.176,0-9.293-6.545-20.633-14.59-25.278a16.18,16.18,0,0,0-2.431-1.143l-1.083-.41.225-1.132a23.529,23.529,0,0,0,.424-4.6c0-13.566-9.559-30.122-21.308-36.9a18.421,18.421,0,0,0-9.117-2.795l-1.374.014-.147-1.215C141.1,88.368,127.2,66.454,111.118,57.166c-8.516-4.919-16.389-5.759-22.151-2.382L68.294,67.7l8.814,14.908S71.92,79.4,71.839,79.358c-5.67-3.271-10.863-3.707-14.631-1.224l-1.132.745-.032-.049L36.737,90.894l7.621,14.385,11.487,2.073.3.638c4.03,8.554,10.4,15.956,17.059,19.8l96.419,55.671Z" transform="translate(-33.14 -50.013)" fill="#150035"/>
        </g>
        <g id="Grupo_23428" data-name="Grupo 23428" transform="translate(115.88 102.782)">
          <path id="Trazado_6479" data-name="Trazado 6479" d="M105.687,87.661a17.574,17.574,0,0,0-2.63-1.238c.052-.257-.921-.326-.921-.326L79.944,99.956l-7.777,3.626L88.308,112.9l3.854-3.259L114.33,95.753A29.061,29.061,0,0,0,105.687,87.661Z" transform="translate(-69.219 -84.707)" fill="#fff"/>
          <path id="Trazado_6480" data-name="Trazado 6480" d="M90.381,115.468,71.146,104.363,81.3,99.628l22.42-14.013.442.029a2.707,2.707,0,0,1,1.689.557,18.442,18.442,0,0,1,2.448,1.189,30.333,30.333,0,0,1,9.065,8.467l.863,1.184L94.81,111.7ZM77.038,104.617l13.046,7.535,3.124-2.642L114.27,96.3a26.735,26.735,0,0,0-7.339-6.55,16.132,16.132,0,0,0-2.428-1.143l-.268-.1L82.6,102.018Z" transform="translate(-71.146 -85.615)" fill="#150035"/>
        </g>
        <g id="Grupo_23429" data-name="Grupo 23429" transform="translate(67.475 56.323)">
          <path id="Trazado_6481" data-name="Trazado 6481" d="M112.573,73.167a19.72,19.72,0,0,0-9.966-2.976c-.023-.176-.852-.193-.852-.193L55.294,98.528l24.129,14.264,7.705-6.611L124.6,84.258A41.438,41.438,0,0,0,112.573,73.167Z" transform="translate(-52.653 -68.626)" fill="#fff"/>
          <path id="Trazado_6482" data-name="Trazado 6482" d="M81.3,115.357,54.379,99.448,103.11,69.522l.4.009a3.639,3.639,0,0,1,1.187.193,21.245,21.245,0,0,1,10.283,3.158,42.792,42.792,0,0,1,12.434,11.455l.915,1.221L89.648,108.192ZM59.662,99.4,81,112.017l7.165-6.117L124.3,84.762a39.05,39.05,0,0,0-10.682-9.518,18.174,18.174,0,0,0-9.267-2.795l-.811.009Z" transform="translate(-54.379 -69.522)" fill="#150035"/>
        </g>
        <g id="Grupo_23430" data-name="Grupo 23430" transform="translate(6.16)">
          <path id="Trazado_6483" data-name="Trazado 6483" d="M41.517,104.138c6.695,1.383,16.712,3.441,16.712,3.441l9.885-10.9,54.21-32.388a56.246,56.246,0,0,0-11.7-9.195c-9.27-5.352-17.518-5.912-23.572-2.367L65.268,66.363l6.709,11.346c-.214-.13-.416-.3-.629-.419C65,73.624,59.3,73.456,55.282,76.107L33.763,89.522Z" transform="translate(-31.964 -49.12)" fill="#fff"/>
          <path id="Trazado_6484" data-name="Trazado 6484" d="M59.893,109.964l-18.1-3.727L33.14,89.932l23.7-14.813.04.058c3.568-1.8,8.014-1.767,12.7.069L64.593,66.8l23-14.391c6.628-3.883,15.482-3.037,24.888,2.393a57.424,57.424,0,0,1,11.989,9.417l1.224,1.238L70.164,98.636Zm-16.3-6.138,15.321,3.155L68.591,96.4l52.695-31.482a53.327,53.327,0,0,0-10.168-7.748c-8.519-4.919-16.4-5.768-22.2-2.373L68.294,67.705l8.814,14.908s-5.188-3.207-5.269-3.254c-5.673-3.274-10.869-3.71-14.631-1.224l-1.132.745-.032-.049L36.737,90.9Z" transform="translate(-33.14 -50.012)" fill="#150035"/>
        </g>
        <g id="Grupo_23431" data-name="Grupo 23431" transform="translate(66.193 25.104)">
          <path id="Trazado_6485" data-name="Trazado 6485" d="M103.431,90.162c-1.23-10.347-5.552-21.3-11.744-30.815L54.616,81.622,73.2,107.786l8.034-3.767Z" transform="translate(-52.65 -57.502)" fill="#150035"/>
          <path id="Trazado_6486" data-name="Trazado 6486" d="M74.036,110.71l-20.1-28.292L93.4,58.708l.719,1.1c6.487,9.966,10.733,21.118,11.955,31.395l.1.86L83.246,106.382ZM57.864,83.238,74.94,107.277l7-3.285,21.308-13.317A72.809,72.809,0,0,0,92.536,62.4Z" transform="translate(-53.935 -58.708)" fill="#150035"/>
        </g>
        <g id="Grupo_23432" data-name="Grupo 23432" transform="translate(100.755 79.917)">
          <path id="Trazado_6487" data-name="Trazado 6487" d="M112.431,95.2a42.009,42.009,0,0,0-3.975-16.831L66.743,102.775,83.219,115.76l6.573-1.839,22.192-13.857A25.033,25.033,0,0,0,112.431,95.2Z" transform="translate(-64.33 -76.423)" fill="#150035"/>
          <path id="Trazado_6488" data-name="Trazado 6488" d="M84.5,118.53,65.907,103.879l44.75-26.184.621,1.386a43.272,43.272,0,0,1,4.1,17.391,26.6,26.6,0,0,1-.476,5.127l-.115.58L91.736,116.506ZM70.734,104.214,85.1,115.534l5.716-1.6L112.328,100.5a24.518,24.518,0,0,0,.318-4.027A39.583,39.583,0,0,0,109.392,81.6Z" transform="translate(-65.907 -77.695)" fill="#150035"/>
        </g>
        <g id="Grupo_23433" data-name="Grupo 23433" transform="translate(128.057 119.904)">
          <path id="Trazado_6489" data-name="Trazado 6489" d="M87.159,125.5l22.3-13.935.523-.419c2.558-1.677,3.606-4.581,3.606-9.244a27.883,27.883,0,0,0-1.92-9.662l-22.339,13.47-10.656,2.87-2.416,1.5-.393,2.211Z" transform="translate(-74.413 -90.231)" fill="#150035"/>
          <path id="Trazado_6490" data-name="Trazado 6490" d="M87.835,128.594,75.364,114.006l.609-3.444,3.3-1.98,10.474-2.818,23.572-14.218.577,1.533a29.329,29.329,0,0,1,2.009,10.145c0,5.266-1.3,8.467-4.221,10.381l-.416.344Zm-9.561-15.381,10.11,11.828,21.7-13.641c2.2-1.446,3.092-3.871,3.092-8.176a25.519,25.519,0,0,0-1.29-7.63L90.639,108.345l-10.462,2.818-1.729,1.077Z" transform="translate(-75.364 -91.546)" fill="#150035"/>
        </g>
        <g id="Grupo_23434" data-name="Grupo 23434" transform="translate(0 13.835)">
          <path id="Trazado_6491" data-name="Trazado 6491" d="M53.462,82.1a35.824,35.824,0,0,1,6.467,4.85l.038-.02a50.032,50.032,0,0,1-.621-8.285c.274-21.193,15.041-29.331,33.4-18.739,16.782,9.688,30.633,31.99,33.006,51.976,4.919-.055,10.878,2.509,17.1,8.424a48.245,48.245,0,0,1,13.8,24.045,32.592,32.592,0,0,1,.609,13.459,18.149,18.149,0,0,1,2.63,1.238c8.334,4.812,15.11,16.432,15.272,26.106.165,9.989-6.787,14.068-15.439,9.074L53.464,132.888c-12.027-6.946-21.8-23.742-21.984-37.686C31.293,81.149,41.29,75.081,53.462,82.1Z" transform="translate(-30.115 -53.907)" fill="#39a1ff"/>
          <path id="Trazado_6492" data-name="Trazado 6492" d="M167.573,198.634a15.539,15.539,0,0,1-7.647-2.324L53.674,134.967C41.156,127.738,31.2,110.673,31.009,96.118c-.1-7.269,2.5-12.991,7.119-15.7s10.635-2.214,16.909,1.4a35.361,35.361,0,0,1,4.045,2.748,48.959,48.959,0,0,1-.211-5.043c.139-10.667,3.868-18.62,10.5-22.391,6.7-3.814,15.56-2.924,24.943,2.491,16.718,9.651,30.673,31.3,33.531,51.828,5.355.346,11.143,3.357,16.836,8.765a49.29,49.29,0,0,1,14.186,24.726,35.118,35.118,0,0,1,.811,12.919,18.761,18.761,0,0,1,1.781.907c8.773,5.064,15.78,17.038,15.953,27.261.087,5.341-1.718,9.371-5.081,11.351A9.264,9.264,0,0,1,167.573,198.634ZM44.7,81.423A10.16,10.16,0,0,0,39.5,82.768c-3.75,2.2-5.855,7.053-5.771,13.311.176,13.462,9.735,29.845,21.305,36.525l106.249,61.347c3.744,2.157,7.168,2.543,9.657,1.083s3.808-4.642,3.736-8.955c-.153-9.2-6.7-20.393-14.59-24.946a15.738,15.738,0,0,0-2.428-1.146l-1.08-.407.225-1.132a31.14,31.14,0,0,0-.6-12.89,46.6,46.6,0,0,0-13.4-23.364c-5.523-5.245-11.239-8.026-16.149-8.049l-1.224.014-.147-1.215c-2.347-19.764-16.25-41.669-32.336-50.957-8.511-4.916-16.409-5.8-22.232-2.483C64.962,62.78,61.722,69.9,61.6,79.561a49.316,49.316,0,0,0,.6,8.066l.144.944-1.683.938-.742-.629a34.6,34.6,0,0,0-6.247-4.7A18.317,18.317,0,0,0,44.7,81.423Z" transform="translate(-31.006 -54.804)" fill="#150035"/>
        </g>
      </g>
      <g id="Grupo_23444" data-name="Grupo 23444" transform="translate(335.147 198.779)">
        <g id="Grupo_23436" data-name="Grupo 23436" transform="translate(3.35)">
          <path id="Trazado_6493" data-name="Trazado 6493" d="M240.257,173.282c0-5.586-3.923-12.382-8.762-15.176a10.226,10.226,0,0,0-1.51-.71,14.507,14.507,0,0,0,.257-2.792c0-8.046-5.647-17.827-12.616-21.851a11.3,11.3,0,0,0-5.716-1.706c-1.363-11.467-9.307-24.264-18.935-29.822-5.318-3.069-10.035-3.4-13.508-1.36l-12.512,7.823,3.848,6.51c-.121-.075-.237-.17-.361-.242-3.64-2.1-6.911-2.2-9.215-.678l-12.347,7.7,4.893,9.232,6.568,1.187c2.3,4.885,5.961,9.31,10.1,11.7l54.187,31.285-6.643,4.128,7.108,8.314,12.795-7.994.3-.242C239.657,177.624,240.257,175.958,240.257,173.282Z" transform="translate(-147.085 -97.21)" fill="#39a1ff"/>
          <path id="Trazado_6494" data-name="Trazado 6494" d="M226,189.491l-8.9-10.413,6.057-3.762-52.215-30.148a27.774,27.774,0,0,1-10.344-11.663l-6.539-1.181-5.794-10.938,14.613-9.128.064.107a8.98,8.98,0,0,1,5.713-.225l-2.367-4.007,13.727-8.58c3.961-2.324,9.238-1.842,14.824,1.386,9.608,5.549,17.645,17.9,19.449,29.7a13.538,13.538,0,0,1,5.2,1.827c7.33,4.232,13.294,14.564,13.294,23.032a16.538,16.538,0,0,1-.113,1.96c.237.113.465.234.687.364,5.292,3.054,9.443,10.24,9.443,16.357,0,2.009-.28,4.864-2.685,6.441l-.191.162Zm-4.763-9.761,5.306,6.207,11.966-7.517c.829-.548,1.562-1.415,1.562-4.241,0-5.061-3.7-11.47-8.083-14a8.488,8.488,0,0,0-1.311-.621l-1.08-.407.225-1.135a12.774,12.774,0,0,0,.234-2.523c0-7.6-5.355-16.871-11.932-20.67a10.184,10.184,0,0,0-4.954-1.524l-1.29.012-.144-1.215c-1.328-11.169-9.18-23.554-18.265-28.8-4.7-2.714-9.019-3.19-12.139-1.368l-11.348,7.1,5.953,10.067-4.9-3c-3.152-1.83-5.912-2.084-7.875-.788l-1.213.808-.026-.046-10.061,6.282,3.987,7.523,6.605,1.192.3.635c2.269,4.81,5.84,8.958,9.553,11.106l56.156,32.42Z" transform="translate(-148.259 -98.104)" fill="#150035"/>
        </g>
        <g id="Grupo_23437" data-name="Grupo 23437" transform="translate(65.803 58.958)">
          <path id="Trazado_6495" data-name="Trazado 6495" d="M190.144,119.907a10.224,10.224,0,0,0-1.51-.71c.029-.15-.528-.188-.528-.188l-12.731,7.951-4.46,2.081,9.258,5.347,2.211-1.871,12.72-7.968A16.692,16.692,0,0,0,190.144,119.907Z" transform="translate(-167.964 -117.618)" fill="#fff"/>
          <path id="Trazado_6496" data-name="Trazado 6496" d="M182.248,136.954l-12.356-7.133,6.836-3.187,12.959-8.106.442.032a2.247,2.247,0,0,1,1.224.393,11.558,11.558,0,0,1,1.4.681,18,18,0,0,1,5.381,5.023l.863,1.181-13.958,8.744Zm-6.464-6.879,6.169,3.562,1.478-1.253,11.591-7.275a14.328,14.328,0,0,0-3.632-3.115,9.125,9.125,0,0,0-1.2-.572l-12.168,7.6Z" transform="translate(-169.892 -118.527)" fill="#150035"/>
        </g>
        <g id="Grupo_23438" data-name="Grupo 23438" transform="translate(38.166 32.312)">
          <path id="Trazado_6497" data-name="Trazado 6497" d="M194.095,111.592a11.309,11.309,0,0,0-5.716-1.709c-.014-.1-.488-.11-.488-.11l-26.658,16.369,13.846,8.181,4.42-3.793,21.5-12.575A23.714,23.714,0,0,0,194.095,111.592Z" transform="translate(-158.594 -108.399)" fill="#fff"/>
          <path id="Trazado_6498" data-name="Trazado 6498" d="M176.95,136.893l-16.631-9.833L189.243,109.3l.4.012a2.711,2.711,0,0,1,.765.113,12.835,12.835,0,0,1,6.091,1.888,25.145,25.145,0,0,1,7.31,6.726l.915,1.221-22.708,13.285ZM165.6,127.017l11.054,6.533,3.88-3.3,20.139-11.784a21.371,21.371,0,0,0-5.537-4.8,10.16,10.16,0,0,0-4.942-1.527l-.078,0h-.306Z" transform="translate(-160.319 -109.297)" fill="#150035"/>
        </g>
        <g id="Grupo_23439" data-name="Grupo 23439" transform="translate(3.35 0.018)">
          <path id="Trazado_6499" data-name="Trazado 6499" d="M153.33,129.36c3.842.794,9.59,1.975,9.59,1.975l5.67-6.256,31.1-18.577a32.232,32.232,0,0,0-6.715-5.277c-5.318-3.069-10.035-3.4-13.508-1.36l-12.512,7.823,3.848,6.51c-.121-.075-.237-.17-.361-.242-3.64-2.1-6.911-2.2-9.215-.678l-12.347,7.7Z" transform="translate(-147.085 -97.229)" fill="#fff"/>
          <path id="Trazado_6500" data-name="Trazado 6500" d="M164.579,133.707l-10.976-2.26-5.344-10.072,14.536-9.088.058.089a8.936,8.936,0,0,1,5.8-.248l-2.367-4.007,13.545-8.485c4.131-2.422,9.423-1.934,15.006,1.29a33.7,33.7,0,0,1,7,5.5l1.224,1.238-32.42,19.368Zm-9.172-4.671,8.2,1.689,5.459-5.93,29.57-17.668a29.317,29.317,0,0,0-5.168-3.84c-4.7-2.714-9-3.2-12.139-1.368l-11.348,7.1,5.953,10.067-4.9-3c-3.152-1.83-5.912-2.084-7.875-.788l-1.135.745-.026-.04-10.139,6.34Z" transform="translate(-148.259 -98.111)" fill="#150035"/>
        </g>
        <g id="Grupo_23440" data-name="Grupo 23440" transform="translate(37.719 14.202)">
          <path id="Trazado_6501" data-name="Trazado 6501" d="M188.85,121.342a42.64,42.64,0,0,0-6.738-17.679l-21.268,12.78,10.664,15.009,4.61-2.162Z" transform="translate(-158.881 -101.818)" fill="#150035"/>
          <path id="Trazado_6502" data-name="Trazado 6502" d="M172.341,134.376l-12.177-17.14,23.655-14.212.719,1.1a43.925,43.925,0,0,1,6.949,18.26l.1.86-13.464,8.407Zm-8.248-16.32,9.152,12.884,3.577-1.68,11.845-7.4a41.19,41.19,0,0,0-5.71-15.133Z" transform="translate(-160.164 -103.024)" fill="#150035"/>
        </g>
        <g id="Grupo_23441" data-name="Grupo 23441" transform="translate(57.356 45.609)">
          <path id="Trazado_6503" data-name="Trazado 6503" d="M194.012,124.23a24.065,24.065,0,0,0-2.281-9.654l-23.93,14,9.452,7.448,3.77-1.054,12.731-7.951A14.486,14.486,0,0,0,194.012,124.23Z" transform="translate(-165.389 -112.633)" fill="#150035"/>
          <path id="Trazado_6504" data-name="Trazado 6504" d="M178.534,138.8l-11.568-9.12L193.93,113.9l.621,1.383a25.4,25.4,0,0,1,2.4,10.214,15.766,15.766,0,0,1-.283,3.057l-.118.577-13.583,8.421Zm-6.741-8.782,7.338,5.782,2.916-.814,12.047-7.526a14.034,14.034,0,0,0,.133-1.957,21.7,21.7,0,0,0-1.573-7.691Z" transform="translate(-166.966 -113.903)" fill="#150035"/>
        </g>
        <g id="Grupo_23442" data-name="Grupo 23442" transform="translate(73.427 68.516)">
          <path id="Trazado_6505" data-name="Trazado 6505" d="M179.515,141.617l12.795-7.994.3-.242c1.467-.961,2.067-2.627,2.067-5.3a15.937,15.937,0,0,0-1.1-5.543l-12.812,7.728-6.114,1.646-1.386.863-.225,1.267Z" transform="translate(-171.582 -120.523)" fill="#150035"/>
          <path id="Trazado_6506" data-name="Trazado 6506" d="M180.195,144.708l-7.662-8.958.445-2.5,2.266-1.342,5.93-1.594,14.053-8.476.577,1.533a17.422,17.422,0,0,1,1.189,6.025c0,2.009-.28,4.864-2.685,6.441l-.191.162Zm-4.763-9.761,5.306,6.207,11.966-7.517c.829-.548,1.562-1.415,1.562-4.241a13.435,13.435,0,0,0-.505-3.493l-11.692,6.992-5.921,1.594Z" transform="translate(-172.533 -121.838)" fill="#150035"/>
        </g>
        <g id="Grupo_23443" data-name="Grupo 23443" transform="translate(0 7.942)">
          <path id="Trazado_6507" data-name="Trazado 6507" d="M160.182,116.72a20.566,20.566,0,0,1,3.721,2.774,28.866,28.866,0,0,1-.346-4.758c.159-12.157,8.629-16.828,19.16-10.751,9.628,5.557,17.573,18.352,18.935,29.819,2.821-.032,6.239,1.438,9.813,4.833a27.666,27.666,0,0,1,7.913,13.794,18.671,18.671,0,0,1,.349,7.722,10.219,10.219,0,0,1,1.51.71c4.781,2.76,8.666,9.429,8.759,14.977.1,5.728-3.892,8.069-8.854,5.205l-60.957-35.194c-6.9-3.984-12.509-13.62-12.613-21.62C147.465,116.169,153.2,112.687,160.182,116.72Z" transform="translate(-146.208 -99.96)" fill="#39a1ff"/>
          <path id="Trazado_6508" data-name="Trazado 6508" d="M226.028,184.533a9.456,9.456,0,0,1-4.677-1.415l-60.96-35.191c-7.341-4.238-13.179-14.244-13.291-22.781-.058-4.385,1.536-7.855,4.371-9.518s6.5-1.38,10.286.8c.456.263.909.554,1.36.866-.026-.575-.04-1.135-.032-1.683.084-6.337,2.324-11.074,6.317-13.343,4.027-2.3,9.313-1.787,14.888,1.432,9.608,5.546,17.648,17.89,19.452,29.7,3.075.341,6.351,2.1,9.553,5.142a28.869,28.869,0,0,1,8.3,14.478,21.131,21.131,0,0,1,.531,7.2c.228.11.453.231.678.361,5.2,3,9.342,10.087,9.443,16.135.055,3.28-1.08,5.774-3.2,7.021A5.879,5.879,0,0,1,226.028,184.533Zm-70.489-67.245a5.232,5.232,0,0,0-2.691.693c-1.966,1.155-3.066,3.75-3.023,7.128.1,7.541,5.45,16.718,11.932,20.459l60.957,35.191c1.954,1.126,3.718,1.354,4.954.624s1.894-2.37,1.856-4.625c-.084-5.1-3.71-11.3-8.08-13.82a8.529,8.529,0,0,0-1.3-.615l-1.083-.407.225-1.135a17.235,17.235,0,0,0-.344-7.151,26.1,26.1,0,0,0-7.52-13.109c-3.031-2.878-6.146-4.46-8.782-4.46l-1.3.017-.144-1.218c-1.328-11.175-9.177-23.554-18.263-28.8-4.7-2.711-9.024-3.219-12.18-1.423-3.112,1.773-4.867,5.681-4.937,11.011a28.038,28.038,0,0,0,.341,4.53l.147.97-1.764.918-.716-.7a19.131,19.131,0,0,0-3.427-2.569A9.93,9.93,0,0,0,155.538,117.289Z" transform="translate(-147.098 -100.856)" fill="#150035"/>
        </g>
      </g>
      <g id="Grupo_23461" data-name="Grupo 23461" transform="translate(171.991 3.978)">
        <g id="Grupo_23458" data-name="Grupo 23458" transform="translate(10.579 6.742)">
          <g id="Grupo_23457" data-name="Grupo 23457">
            <g id="Grupo_23445" data-name="Grupo 23445">
              <path id="Trazado_6509" data-name="Trazado 6509" d="M233.781,97.538c-15.806,9.125-28.621,31.323-28.621,49.577V302.176L94.719,238.148V83.084c0-18.254,12.815-40.448,28.624-49.577Z" transform="translate(-93.356 -31.934)" fill="#fff"/>
              <path id="Trazado_6510" data-name="Trazado 6510" d="M207.413,305.572,94.247,239.958V84.112c0-18.658,13.144-41.427,29.3-50.757l.684-.393,113.158,65.6-2.038,1.181c-15.41,8.895-27.942,30.6-27.942,48.4ZM96.972,238.391,204.685,300.84v-152.7c0-17.893,12.09-39.565,27.333-49.542L124.239,36.114c-15.1,9.131-27.267,30.468-27.267,48Z" transform="translate(-94.247 -32.962)" fill="#150035"/>
            </g>
            <g id="Grupo_23456" data-name="Grupo 23456" transform="translate(14.512 63.667)">
              <g id="Grupo_23446" data-name="Grupo 23446">
                <path id="Trazado_6511" data-name="Trazado 6511" d="M137.564,135.3l-32.957-19.028c-2.685-1.55-4.862-5.707-4.862-9.284V59.747c0-3.58,2.177-5.225,4.862-3.675L137.564,75.1c2.685,1.547,4.862,5.7,4.862,9.284v47.241C142.426,135.205,140.249,136.851,137.564,135.3Z" transform="translate(-98.383 -54.124)" fill="#39a1ff"/>
                <path id="Trazado_6512" data-name="Trazado 6512" d="M140.389,138.144a5.241,5.241,0,0,1-2.616-.771l-32.957-19.028c-3.109-1.8-5.543-6.392-5.543-10.465V60.64c0-2.382.86-4.244,2.362-5.11a4.426,4.426,0,0,1,4.544.254l32.957,19.03c3.109,1.793,5.543,6.392,5.543,10.465v47.241c0,2.382-.86,4.244-2.362,5.11A3.8,3.8,0,0,1,140.389,138.144Zm-36.819-80.4a1.135,1.135,0,0,0-.572.141c-.626.361-1,1.389-1,2.751v47.241c0,3.086,1.914,6.8,4.18,8.1l32.957,19.028a1.955,1.955,0,0,0,1.819.257c.624-.361,1-1.389,1-2.748V85.279c0-3.086-1.914-6.8-4.18-8.106L104.817,58.146A2.71,2.71,0,0,0,103.57,57.747Z" transform="translate(-99.274 -55.016)" fill="#150035"/>
              </g>
              <g id="Grupo_23447" data-name="Grupo 23447" transform="translate(6.781 10.612)">
                <path id="Trazado_6513" data-name="Trazado 6513" d="M129.522,118.141l-25.74-14.862a4.036,4.036,0,0,1-1.686-3.219V60.64c0-1.241.756-1.813,1.686-1.273l25.74,14.859a4.042,4.042,0,0,1,1.686,3.222v39.418C131.207,118.107,130.451,118.678,129.522,118.141Z" transform="translate(-100.731 -57.802)" fill="#fff"/>
                <path id="Trazado_6514" data-name="Trazado 6514" d="M131.087,120.6a2.735,2.735,0,0,1-1.354-.384L103.99,105.35a5.385,5.385,0,0,1-2.367-4.4V61.53a2.805,2.805,0,0,1,1.267-2.543,2.428,2.428,0,0,1,2.465.089L131.1,73.935a5.392,5.392,0,0,1,2.364,4.4v39.421A2.806,2.806,0,0,1,132.2,120.3,2.216,2.216,0,0,1,131.087,120.6ZM104.351,61.642V100.95a2.753,2.753,0,0,0,1,2.041l25.382,14.651V78.337a2.753,2.753,0,0,0-1-2.041Z" transform="translate(-101.623 -58.692)" fill="#150035"/>
              </g>
              <g id="Grupo_23448" data-name="Grupo 23448" transform="translate(0 68.579)">
                <path id="Trazado_6515" data-name="Trazado 6515" d="M173.4,128.991,103.017,88.353a7.827,7.827,0,0,1-3.271-6.247c0-2.4,1.464-3.513,3.271-2.471L173.4,120.273a7.827,7.827,0,0,1,3.271,6.247C176.673,128.928,175.21,130.034,173.4,128.991Z" transform="translate(-98.383 -77.882)" fill="#39a1ff"/>
                <path id="Trazado_6516" data-name="Trazado 6516" d="M175.6,131.633a3.992,3.992,0,0,1-1.986-.572L103.226,90.422a9.2,9.2,0,0,1-3.952-7.428,4.206,4.206,0,0,1,1.81-3.822,3.452,3.452,0,0,1,3.5.17l70.388,40.642a9.2,9.2,0,0,1,3.952,7.425,4.21,4.21,0,0,1-1.813,3.825A3.021,3.021,0,0,1,175.6,131.633Zm-.621-2.933c.332.191.635.257.774.173.219-.124.45-.638.45-1.464a6.543,6.543,0,0,0-2.59-5.067L103.226,81.7c-.332-.188-.626-.257-.777-.17-.219.124-.45.635-.45,1.461a6.534,6.534,0,0,0,2.59,5.067Z" transform="translate(-99.274 -78.771)" fill="#150035"/>
              </g>
              <g id="Grupo_23449" data-name="Grupo 23449" transform="translate(0 85.097)">
                <path id="Trazado_6517" data-name="Trazado 6517" d="M161.586,128.146,103.017,94.075a7.826,7.826,0,0,1-3.271-6.244c0-2.408,1.464-3.516,3.271-2.474l58.569,34.071a7.827,7.827,0,0,1,3.271,6.247C164.857,128.082,163.393,129.188,161.586,128.146Z" transform="translate(-98.383 -83.603)" fill="#39a1ff"/>
                <path id="Trazado_6518" data-name="Trazado 6518" d="M163.782,130.787a3.959,3.959,0,0,1-1.986-.574L103.22,96.142a9.2,9.2,0,0,1-3.946-7.425,4.206,4.206,0,0,1,1.81-3.822,3.446,3.446,0,0,1,3.5.17l58.575,34.074a9.2,9.2,0,0,1,3.946,7.425,4.2,4.2,0,0,1-1.813,3.822A2.992,2.992,0,0,1,163.782,130.787Zm-.618-2.93c.332.191.629.254.771.17.217-.127.447-.635.447-1.464A6.541,6.541,0,0,0,161.8,121.5L103.22,87.423c-.323-.188-.621-.257-.771-.167-.219.124-.45.635-.45,1.461a6.534,6.534,0,0,0,2.59,5.066Z" transform="translate(-99.274 -84.493)" fill="#150035"/>
              </g>
              <g id="Grupo_23450" data-name="Grupo 23450" transform="translate(50.319 30.296)">
                <path id="Trazado_6519" data-name="Trazado 6519" d="M135.236,83.432l-14.79-8.34a7.826,7.826,0,0,1-3.271-6.244c0-2.408,1.464-3.516,3.271-2.474l14.79,8.343a7.827,7.827,0,0,1,3.268,6.244C138.5,83.368,137.041,84.474,135.236,83.432Z" transform="translate(-115.813 -64.621)" fill="#39a1ff"/>
                <path id="Trazado_6520" data-name="Trazado 6520" d="M137.432,86.073a3.976,3.976,0,0,1-1.98-.566L120.668,77.17a9.2,9.2,0,0,1-3.964-7.434,4.2,4.2,0,0,1,1.813-3.825,3.447,3.447,0,0,1,3.5.17L136.8,74.416a9.213,9.213,0,0,1,3.961,7.437,4.206,4.206,0,0,1-1.81,3.822A3,3,0,0,1,137.432,86.073ZM120.038,68.235a.351.351,0,0,0-.162.035c-.214.127-.445.638-.445,1.467a6.53,6.53,0,0,0,2.587,5.064l14.79,8.343c.329.191.632.257.774.17.217-.124.45-.635.45-1.461a6.545,6.545,0,0,0-2.587-5.066l-14.778-8.334A1.39,1.39,0,0,0,120.038,68.235Z" transform="translate(-116.704 -65.51)" fill="#150035"/>
              </g>
              <g id="Grupo_23451" data-name="Grupo 23451" transform="translate(50.319 46.816)">
                <path id="Trazado_6521" data-name="Trazado 6521" d="M140.219,92.231,120.447,80.814a7.827,7.827,0,0,1-3.271-6.247c0-2.4,1.464-3.513,3.271-2.471l19.772,11.418a7.827,7.827,0,0,1,3.271,6.247C143.49,92.168,142.026,93.273,140.219,92.231Z" transform="translate(-115.813 -70.344)" fill="#39a1ff"/>
                <path id="Trazado_6522" data-name="Trazado 6522" d="M142.415,94.872a4.022,4.022,0,0,1-1.986-.572L120.653,82.882a9.2,9.2,0,0,1-3.949-7.428,4.2,4.2,0,0,1,1.813-3.822,3.454,3.454,0,0,1,3.5.17L141.794,83.22a9.212,9.212,0,0,1,3.949,7.428,4.21,4.21,0,0,1-1.813,3.825A3.01,3.01,0,0,1,142.415,94.872Zm-.621-2.933a.929.929,0,0,0,.774.173c.217-.124.447-.635.447-1.464a6.55,6.55,0,0,0-2.587-5.066L120.653,74.164a.933.933,0,0,0-.777-.173c-.214.127-.445.635-.445,1.464a6.532,6.532,0,0,0,2.587,5.066Z" transform="translate(-116.704 -71.233)" fill="#150035"/>
              </g>
              <g id="Grupo_23452" data-name="Grupo 23452" transform="translate(50.319 63.334)">
                <path id="Trazado_6523" data-name="Trazado 6523" d="M140.219,97.953,120.447,86.536a7.827,7.827,0,0,1-3.271-6.247c0-2.4,1.464-3.513,3.271-2.471l19.772,11.418a7.827,7.827,0,0,1,3.271,6.247C143.49,97.89,142.026,99,140.219,97.953Z" transform="translate(-115.813 -76.065)" fill="#39a1ff"/>
                <path id="Trazado_6524" data-name="Trazado 6524" d="M142.415,100.594a4.022,4.022,0,0,1-1.986-.572L120.653,88.605a9.2,9.2,0,0,1-3.949-7.428,4.2,4.2,0,0,1,1.813-3.822,3.447,3.447,0,0,1,3.5.17l19.775,11.418a9.212,9.212,0,0,1,3.949,7.428,4.2,4.2,0,0,1-1.813,3.822A2.984,2.984,0,0,1,142.415,100.594Zm-.621-2.933c.329.191.624.257.774.173.217-.124.447-.635.447-1.464a6.54,6.54,0,0,0-2.587-5.067L120.653,79.887a.943.943,0,0,0-.777-.173c-.214.124-.445.638-.445,1.464a6.532,6.532,0,0,0,2.587,5.067Z" transform="translate(-116.704 -76.954)" fill="#150035"/>
              </g>
              <g id="Grupo_23453" data-name="Grupo 23453" transform="translate(50.319 79.852)">
                <path id="Trazado_6525" data-name="Trazado 6525" d="M140.219,103.675,120.447,92.258a7.826,7.826,0,0,1-3.271-6.244c0-2.408,1.464-3.516,3.271-2.474l19.772,11.418a7.827,7.827,0,0,1,3.271,6.247C143.49,103.612,142.026,104.717,140.219,103.675Z" transform="translate(-115.813 -81.787)" fill="#39a1ff"/>
                <path id="Trazado_6526" data-name="Trazado 6526" d="M142.415,106.316a4.022,4.022,0,0,1-1.986-.572L120.653,94.327A9.2,9.2,0,0,1,116.7,86.9a4.2,4.2,0,0,1,1.813-3.822,3.447,3.447,0,0,1,3.5.17l19.775,11.418a9.212,9.212,0,0,1,3.949,7.428,4.2,4.2,0,0,1-1.813,3.822A2.984,2.984,0,0,1,142.415,106.316Zm-.621-2.933a.929.929,0,0,0,.774.173c.217-.124.447-.635.447-1.464a6.545,6.545,0,0,0-2.587-5.066L120.653,85.609a.932.932,0,0,0-.777-.173c-.214.127-.445.638-.445,1.464a6.532,6.532,0,0,0,2.587,5.066Z" transform="translate(-116.704 -82.676)" fill="#150035"/>
              </g>
              <g id="Grupo_23454" data-name="Grupo 23454" transform="translate(0 101.616)">
                <path id="Trazado_6527" data-name="Trazado 6527" d="M140.789,121.9,103.017,99.8a7.827,7.827,0,0,1-3.271-6.247c0-2.4,1.464-3.513,3.271-2.471l37.772,22.108a7.827,7.827,0,0,1,3.271,6.247C144.06,121.841,142.6,122.947,140.789,121.9Z" transform="translate(-98.383 -89.326)" fill="#39a1ff"/>
                <path id="Trazado_6528" data-name="Trazado 6528" d="M142.984,124.546a4,4,0,0,1-1.986-.574l-37.781-22.111a9.2,9.2,0,0,1-3.943-7.422,4.206,4.206,0,0,1,1.81-3.822,3.446,3.446,0,0,1,3.5.17L142.37,112.9a9.2,9.2,0,0,1,3.943,7.422,4.215,4.215,0,0,1-1.81,3.825A3.029,3.029,0,0,1,142.984,124.546Zm-.621-2.933a.935.935,0,0,0,.774.173c.219-.124.45-.638.45-1.464a6.543,6.543,0,0,0-2.59-5.066L103.217,93.145c-.326-.191-.621-.254-.768-.167-.219.124-.45.635-.45,1.461a6.545,6.545,0,0,0,2.59,5.069Z" transform="translate(-99.274 -90.215)" fill="#150035"/>
              </g>
              <g id="Grupo_23455" data-name="Grupo 23455" transform="translate(0 118.137)">
                <path id="Trazado_6529" data-name="Trazado 6529" d="M122.789,116.937l-19.772-11.418a7.827,7.827,0,0,1-3.271-6.247c0-2.408,1.464-3.513,3.271-2.471l19.772,11.418a7.827,7.827,0,0,1,3.271,6.247C126.06,116.873,124.6,117.979,122.789,116.937Z" transform="translate(-98.383 -95.05)" fill="#39a1ff"/>
                <path id="Trazado_6530" data-name="Trazado 6530" d="M124.985,119.576A3.992,3.992,0,0,1,123,119l-19.772-11.418a9.2,9.2,0,0,1-3.952-7.425,4.208,4.208,0,0,1,1.81-3.825,3.453,3.453,0,0,1,3.5.173l19.775,11.415a9.212,9.212,0,0,1,3.949,7.428,4.2,4.2,0,0,1-1.813,3.822A2.984,2.984,0,0,1,124.985,119.576Zm-.621-2.93c.332.191.632.254.774.17.217-.124.447-.635.447-1.464A6.532,6.532,0,0,0,123,110.286L103.226,98.869c-.332-.193-.638-.257-.777-.17-.219.124-.45.635-.45,1.464a6.533,6.533,0,0,0,2.59,5.064Z" transform="translate(-99.274 -95.938)" fill="#150035"/>
              </g>
            </g>
          </g>
          <rect id="Rectángulo_5808" data-name="Rectángulo 5808" width="2.726" height="32.988" transform="translate(102.185 57.216) rotate(-60.268)" fill="#150035"/>
          <rect id="Rectángulo_5809" data-name="Rectángulo 5809" width="2.726" height="11.786" transform="translate(86.842 48.453) rotate(-60.265)" fill="#150035"/>
          <rect id="Rectángulo_5810" data-name="Rectángulo 5810" width="2.726" height="72.403" transform="translate(20.083 10.328) rotate(-60.27)" fill="#150035"/>
          <rect id="Rectángulo_5811" data-name="Rectángulo 5811" width="2.727" height="9.986" transform="matrix(0.502, -0.865, 0.865, 0.502, 46.249, 49.732)" fill="#150035"/>
          <rect id="Rectángulo_5812" data-name="Rectángulo 5812" width="2.727" height="39.448" transform="matrix(0.502, -0.865, 0.865, 0.502, 7.387, 27.201)" fill="#150035"/>
        </g>
        <g id="Grupo_23459" data-name="Grupo 23459" transform="translate(0)">
          <rect id="Rectángulo_5813" data-name="Rectángulo 5813" width="2.097" height="10.654" transform="translate(4.278)" fill="#fff"/>
          <rect id="Rectángulo_5814" data-name="Rectángulo 5814" width="10.654" height="2.097" transform="translate(0 4.279)" fill="#fff"/>
        </g>
        <g id="Grupo_23460" data-name="Grupo 23460" transform="translate(230.702 144.177)">
          <rect id="Rectángulo_5815" data-name="Rectángulo 5815" width="2.097" height="10.654" transform="translate(4.28)" fill="#fff"/>
          <rect id="Rectángulo_5816" data-name="Rectángulo 5816" width="10.656" height="2.097" transform="translate(0 4.279)" fill="#fff"/>
        </g>
      </g>
      <g id="Grupo_23469" data-name="Grupo 23469" transform="translate(256.044 221.269)">
        <g id="Grupo_23464" data-name="Grupo 23464">
          <g id="Grupo_23462" data-name="Grupo 23462">
            <path id="Trazado_6531" data-name="Trazado 6531" d="M190.619,218.346,120.189,177.7l-.022-.04V118.187L137.782,106.5l52.82,30.491.017.04Z" transform="translate(-118.813 -104.75)" fill="#fff"/>
            <path id="Trazado_6532" data-name="Trazado 6532" d="M191.426,221.085,119.7,179.629V118.5l.748-.39,17.344-11.522.693-.69,54.378,31.456V220.3Zm-69.011-43.038,67.73,39.1V138.933l-51.43-29.689-16.3,10.817Z" transform="translate(-119.698 -105.895)" fill="#150035"/>
          </g>
          <g id="Grupo_23463" data-name="Grupo 23463" transform="translate(0.017 0.167)">
            <path id="Trazado_6533" data-name="Trazado 6533" d="M120.2,118.2l17.556,10.119V106.551l-.034-.042-17.539,11.637Z" transform="translate(-118.808 -104.904)" fill="#39a1ff"/>
            <path id="Trazado_6534" data-name="Trazado 6534" d="M138.717,130.933l-19-10.918-.014-.82.009-.782,18.851-12.46,1.443.823v23.346ZM123.624,119.14l13.667,7.89V110.07Z" transform="translate(-119.704 -105.953)" fill="#150035"/>
          </g>
        </g>
        <g id="Grupo_23468" data-name="Grupo 23468" transform="translate(19.475 32.571)">
          <g id="Grupo_23465" data-name="Grupo 23465">
            <path id="Trazado_6535" data-name="Trazado 6535" d="M158.4,147.072c0,10.041-7.047,14.108-15.742,9.088s-15.745-17.229-15.745-27.267,7.05-14.111,15.745-9.091S158.4,137.031,158.4,147.072Z" transform="translate(-125.553 -116.281)" fill="#39a1ff"/>
            <path id="Trazado_6536" data-name="Trazado 6536" d="M150.584,160.578a15.637,15.637,0,0,1-7.714-2.341c-9.059-5.228-16.426-17.988-16.426-28.447,0-5.364,1.879-9.4,5.292-11.371s7.852-1.585,12.5,1.1c9.056,5.228,16.424,17.988,16.424,28.448,0,5.364-1.879,9.4-5.292,11.371A9.437,9.437,0,0,1,150.584,160.578Zm-14.059-40.671a6.733,6.733,0,0,0-3.424.869c-2.538,1.464-3.932,4.665-3.932,9.013,0,9.59,6.758,21.294,15.064,26.089,3.765,2.171,7.232,2.566,9.766,1.1s3.932-4.662,3.932-9.01c0-9.59-6.755-21.294-15.061-26.089A12.971,12.971,0,0,0,136.525,119.907Z" transform="translate(-126.444 -117.177)" fill="#150035"/>
          </g>
          <g id="Grupo_23466" data-name="Grupo 23466" transform="translate(15.503 4.988)">
            <path id="Trazado_6537" data-name="Trazado 6537" d="M137.441,119.756l-5.064,14.2s.012.078.043.1L148.1,143.1C148.1,135.12,143.636,125.778,137.441,119.756Z" transform="translate(-130.752 -117.299)" fill="#fff"/>
            <path id="Trazado_6538" data-name="Trazado 6538" d="M150.524,147.07l-18.71-10.8,6.114-17.362,1.521,1.481c6.623,6.432,11.074,16.207,11.074,24.322Zm-15.442-12.064,12.575,7.261a34.7,34.7,0,0,0-8.612-18.372Z" transform="translate(-131.814 -118.905)" fill="#150035"/>
          </g>
          <g id="Grupo_23467" data-name="Grupo 23467" transform="translate(15.526 20.095)">
            <path id="Trazado_6539" data-name="Trazado 6539" d="M144.8,142.845c2.015-1.894,3.225-4.994,3.225-9.131l-15.54-8.972c-.066-.038-.1.04-.043.118Z" transform="translate(-130.702 -123.018)" fill="#39a1ff"/>
            <path id="Trazado_6540" data-name="Trazado 6540" d="M145.7,146.044l-13.874-20.2,1.472-1.709,17.215,9.908v.788c0,4.377-1.264,7.878-3.655,10.124Zm-7.76-16.112,8.1,11.8a11.749,11.749,0,0,0,1.732-6.117Z" transform="translate(-131.822 -124.138)" fill="#150035"/>
          </g>
        </g>
      </g>
    </g>
  </g>
</svg>
