<svg xmlns="http://www.w3.org/2000/svg" width="8.621" height="14.674" viewBox="0 0 8.621 14.674">
  <g id="Grupo_944" data-name="Grupo 944" transform="translate(0.002 0.002)">
    <g id="Grupo_423" data-name="Grupo 423">
      <path id="Trazado_635" data-name="Trazado 635" d="M8.385,6.763,1.856.234A.8.8,0,0,0,.725.23l0,0L.24.715a.8.8,0,0,0,0,1.131l0,0L5.722,7.332.234,12.82a.8.8,0,0,0,0,1.131l0,0,.481.481a.8.8,0,0,0,1.131,0l0,0L8.385,7.9a.81.81,0,0,0,0-1.139Z" fill="#ffa726"/>
    </g>
  </g>
</svg>
