<svg id="mujer" xmlns="http://www.w3.org/2000/svg" width="60" height="60" viewBox="0 0 60 60">
  <path id="Trazado_6424" data-name="Trazado 6424" d="M51.361,48.123l-2.526-1.035L45,45.52s2.739,10.142-3.068,10.142c-4.839,0-6.774-1.935-6.774-1.935s-1.935,1.935-6.774,1.935a3.376,3.376,0,0,1-3.455-2.9h-12A14.438,14.438,0,0,0,10,61.468H60.323a14.419,14.419,0,0,0-8.961-13.345Z" transform="translate(-1.29 -2.436)" fill="#b4dd7f"/>
  <path id="Trazado_6425" data-name="Trazado 6425" d="M45.842,45.482s2.739,10.142-3.068,10.142c-4.839,0-6.774-1.935-6.774-1.935l5.081-6.774,1.935-2.584Z" transform="translate(-2.129 -2.398)" fill="#ff826e"/>
  <path id="Trazado_6426" data-name="Trazado 6426" d="M25.982,52.887a7.733,7.733,0,0,0,6.406-3.4l3.271,4.365s-1.935,1.935-6.774,1.935a3.376,3.376,0,0,1-3.455-2.9Z" transform="translate(-1.788 -2.564)" fill="#ff826e"/>
  <path id="Trazado_6427" data-name="Trazado 6427" d="M40.972,47l-5.081,6.774L32.62,49.41A7.89,7.89,0,0,0,33.714,47h7.258Z" transform="translate(-2.02 -2.484)" fill="#ccd1d9"/>
  <path id="Trazado_6428" data-name="Trazado 6428" d="M50.968,17.484V40.71a7.688,7.688,0,0,1-1.81,4.974l-3.832-1.568L42.5,42.965l-.735-.3a3.875,3.875,0,0,1-2.41-3.59v-1.2A16.971,16.971,0,0,0,47.1,23.629v-4.21a36.531,36.531,0,0,1-14.816-3.145l-1.635-.726-.861.252a8.135,8.135,0,0,0-5.913,7.829A16.964,16.964,0,0,0,29.1,35.871H20V17.484a15.484,15.484,0,1,1,30.968,0Z" transform="translate(-1.613 -1.032)" fill="#fcd770"/>
  <path id="Trazado_6429" data-name="Trazado 6429" d="M31.632,49.087a7.733,7.733,0,0,1-6.406,3.4H9.742A7.742,7.742,0,1,1,9.742,37H32.968v7.742a7.973,7.973,0,0,1-.242,1.935A7.89,7.89,0,0,1,31.632,49.087Z" transform="translate(-1.032 -2.161)" fill="#e6e9ed"/>
  <g id="Grupo_23385" data-name="Grupo 23385" transform="translate(7 41)">
    <circle id="Elipse_1310" data-name="Elipse 1310" cx="2" cy="2" r="2" transform="translate(15)" fill="#fcd770"/>
    <ellipse id="Elipse_1311" data-name="Elipse 1311" cx="1.5" cy="2" rx="1.5" ry="2" transform="translate(8)" fill="#fcd770"/>
    <circle id="Elipse_1312" data-name="Elipse 1312" cx="2" cy="2" r="2" fill="#fcd770"/>
  </g>
  <path id="Trazado_6430" data-name="Trazado 6430" d="M42.944,44.16l-1.935,2.584H33.75a7.973,7.973,0,0,0,.242-1.935V40.144a16.914,16.914,0,0,0,1.935.794A17.029,17.029,0,0,0,39.8,39.07v1.2a3.875,3.875,0,0,0,2.41,3.59Z" transform="translate(-2.056 -2.228)" fill="#f0d0b4"/>
  <path id="Trazado_6431" data-name="Trazado 6431" d="M33.677,36.323H29.226A16.964,16.964,0,0,1,24,24.081a8.135,8.135,0,0,1,5.913-7.829L30.774,16l1.635.726a36.531,36.531,0,0,0,14.816,3.145v4.21A17.01,17.01,0,0,1,35.613,40.194a16.914,16.914,0,0,1-1.935-.794Z" transform="translate(-1.742 -1.484)" fill="#f0d0b4"/>
  <circle id="Elipse_1313" data-name="Elipse 1313" cx="1" cy="1" r="1" transform="translate(27 21)"/>
  <circle id="Elipse_1314" data-name="Elipse 1314" cx="1" cy="1" r="1" transform="translate(39 21)"/>
  <path id="Trazado_6432" data-name="Trazado 6432" d="M39.742,32H37.806a1.935,1.935,0,0,1-3.871,0H32a3.871,3.871,0,0,0,7.742,0Z" transform="translate(-2 -2)"/>
  <path id="Trazado_6433" data-name="Trazado 6433" d="M46.952,17.008l1.93-.16a12.8,12.8,0,0,0-.353-2.1l-1.875.481a10.591,10.591,0,0,1,.3,1.775Z" transform="translate(-2.473 -1.444)"/>
  <path id="Trazado_6434" data-name="Trazado 6434" d="M45.68,13.145l1.759-.807A12.622,12.622,0,0,0,36,5V6.935A10.681,10.681,0,0,1,45.68,13.145Z" transform="translate(-2.129 -1.129)"/>
  <path id="Trazado_6435" data-name="Trazado 6435" d="M17.9,42a2.9,2.9,0,1,0,2.9,2.9A2.907,2.907,0,0,0,17.9,42Zm0,3.871a.968.968,0,1,1,.968-.968A.969.969,0,0,1,17.9,45.871Z" transform="translate(-1.452 -2.323)"/>
  <path id="Trazado_6436" data-name="Trazado 6436" d="M9.9,42a2.9,2.9,0,1,0,2.9,2.9A2.907,2.907,0,0,0,9.9,42Zm0,3.871a.968.968,0,1,1,.968-.968A.969.969,0,0,1,9.9,45.871Z" transform="translate(-1.194 -2.323)"/>
  <path id="Trazado_6437" data-name="Trazado 6437" d="M28.806,44.9a2.9,2.9,0,1,0-2.9,2.9A2.907,2.907,0,0,0,28.806,44.9Zm-3.871,0a.968.968,0,1,1,.968.968A.969.969,0,0,1,24.935,44.9Z" transform="translate(-1.71 -2.323)"/>
  <path id="Trazado_6438" data-name="Trazado 6438" d="M51.442,45.8l-1.405-.575a8.73,8.73,0,0,0,1.286-4.544V17.452a16.452,16.452,0,1,0-32.9,0V34.871H9.71a8.71,8.71,0,0,0,0,17.419h1.141a15.219,15.219,0,0,0-2.109,7.742V61H61v-.968A15.325,15.325,0,0,0,51.442,45.8ZM20.355,17.452a14.516,14.516,0,1,1,29.032,0V40.677A6.769,6.769,0,0,1,48.2,44.468l-6.683-2.735a2.891,2.891,0,0,1-1.8-2.687v-.695A17.917,17.917,0,0,0,47.452,23.6V18.419h-.968a35.289,35.289,0,0,1-14.423-3.061l-1.956-.87-1.2.344A9.156,9.156,0,0,0,22.29,23.6a18.028,18.028,0,0,0,4.018,11.273H20.355ZM43.56,52.418a2.218,2.218,0,0,1-1.915.84,10.927,10.927,0,0,1-5.4-1.185l5.97-7.961,1.675.685c.436,1.886,1,5.883-.329,7.621ZM28.9,34.871A16.087,16.087,0,0,1,24.226,23.6a7.211,7.211,0,0,1,5.207-6.9l.527-.15,1.313.585a37.206,37.206,0,0,0,14.242,3.215V23.6A16,16,0,0,1,34.872,38.687c-.309-.112-.634-.248-.969-.395V34.871Zm11.483,8.456-.916,1.221H33.846a8.647,8.647,0,0,0,.057-.968v-3.2c.223.086.446.175.662.247l.306.1.306-.1a17.985,17.985,0,0,0,2.631-1.116,4.8,4.8,0,0,0,2.576,3.815ZM33.4,46.484h4.621l-3.145,4.193L32.765,47.87a8.659,8.659,0,0,0,.63-1.386ZM31.566,49.5,33.5,52.072a10.917,10.917,0,0,1-5.4,1.186,2.207,2.207,0,0,1-2.032-1.012A8.678,8.678,0,0,0,31.566,49.5ZM2.935,43.581A6.782,6.782,0,0,1,9.71,36.806H31.968v6.774a6.782,6.782,0,0,1-6.774,6.774H9.71A6.782,6.782,0,0,1,2.935,43.581Zm10.212,8.71H23.938a4.2,4.2,0,0,0,4.158,2.9A13.407,13.407,0,0,0,33.9,54.037v5.027H20.355V54.226H18.419v4.839H10.711A13.325,13.325,0,0,1,13.147,52.29Zm38.175,6.774V54.226H49.387v4.839H35.839V54.037a13.407,13.407,0,0,0,5.806,1.156,4.167,4.167,0,0,0,3.453-1.6c1.6-2.094,1.319-5.706.942-7.917l4.668,1.91a13.392,13.392,0,0,1,8.323,11.477Z" transform="translate(-1 -1)"/>
</svg>
