<svg xmlns="http://www.w3.org/2000/svg" xmlns:xlink="http://www.w3.org/1999/xlink" width="131" height="131" viewBox="0 0 131 131">
  <defs>
    <clipPath id="clip-path">
      <rect id="Rectángulo_5621" data-name="Rectángulo 5621" width="131" height="131" transform="translate(268 7553)" fill="#fff" stroke="#707070" stroke-width="1"/>
    </clipPath>
  </defs>
  <g id="Enmascarar_grupo_5" data-name="Enmascarar grupo 5" transform="translate(-268 -7553)" clip-path="url(#clip-path)">
    <g id="piensa-diferente" transform="translate(268 7553)">
      <g id="Grupo_22835" data-name="Grupo 22835">
        <g id="Grupo_22817" data-name="Grupo 22817">
          <path id="Trazado_5751" data-name="Trazado 5751" d="M44.371,103.532H65.5a25.384,25.384,0,0,0-25.355,25.355H19.016l12.677-6.339-2.113-4.226,8.452-6.339,2.113-8.092A25.345,25.345,0,0,1,44.371,103.532Z" fill="#b4dd7f"/>
        </g>
        <g id="Grupo_22818" data-name="Grupo 22818">
          <path id="Trazado_5752" data-name="Trazado 5752" d="M40.145,103.891l-2.113,8.092-8.452,6.339,2.113,4.226-12.677,6.339A25.334,25.334,0,0,1,40.145,103.891Z" fill="#a0d468"/>
        </g>
        <g id="Grupo_22819" data-name="Grupo 22819">
          <path id="Trazado_5753" data-name="Trazado 5753" d="M69.726,103.532a15.315,15.315,0,0,1,6.339,5.916,15.3,15.3,0,0,0-2.113,7.754v11.684H40.145l12.677-6.339-2.113-4.226,8.452-6.339,2.113-8.092a25.345,25.345,0,0,1,4.226-.359Z" fill="#fcd770"/>
        </g>
        <g id="Grupo_22820" data-name="Grupo 22820">
          <path id="Trazado_5754" data-name="Trazado 5754" d="M61.274,103.891l-2.113,8.092-8.452,6.339,2.113,4.226-12.677,6.339A25.334,25.334,0,0,1,61.274,103.891Z" fill="#ffc729"/>
        </g>
        <g id="Grupo_22821" data-name="Grupo 22821">
          <path id="Trazado_5755" data-name="Trazado 5755" d="M82.4,103.532h4.226a25.346,25.346,0,0,1,4.226.359v8.092l10.565,6.339-2.113,4.226,12.677,6.339H73.952V117.2a15.279,15.279,0,0,1,8.452-13.67Z" fill="#e6e9ed"/>
        </g>
        <g id="Grupo_22822" data-name="Grupo 22822">
          <path id="Trazado_5756" data-name="Trazado 5756" d="M111.984,128.887l-12.677-6.339,2.113-4.226-10.565-6.339v-8.092a25.3,25.3,0,0,1,21.129,25Z" fill="#ccd1d9"/>
        </g>
        <g id="Grupo_22823" data-name="Grupo 22823">
          <path id="Trazado_5757" data-name="Trazado 5757" d="M12.424,50.456,8.092,46.125A5.988,5.988,0,0,1,6.339,41.9a5.988,5.988,0,0,1,5.98-5.98h25.4a32.055,32.055,0,0,1,7.036.782,23.227,23.227,0,0,0-17.284,22.46,2.119,2.119,0,0,0,2.113,2.113H16.9a6.335,6.335,0,0,1-4.479-10.818Z" fill="#b27946"/>
        </g>
        <g id="Grupo_22824" data-name="Grupo 22824">
          <path id="Trazado_5758" data-name="Trazado 5758" d="M10.565,54.935v2.113H8.092A5.976,5.976,0,0,1,3.867,46.843l2.852-2.852a5.88,5.88,0,0,0,1.373,2.134l4.331,4.331A6.324,6.324,0,0,0,10.565,54.935Z" fill="#b27946"/>
        </g>
        <g id="Grupo_22825" data-name="Grupo 22825">
          <path id="Trazado_5759" data-name="Trazado 5759" d="M35.919,62.415a8.22,8.22,0,0,0-4.226-1.141H29.581a2.119,2.119,0,0,1-2.113-2.113A23.264,23.264,0,0,1,50.71,35.919H63.07a31.9,31.9,0,0,1,12.572,2.557h.021a21,21,0,0,0,1.69,1.669A32.291,32.291,0,0,0,65.711,51.639a31.114,31.114,0,0,0-3.993,11.029H61.7a8.362,8.362,0,0,0-4.648-1.395H42.258a6.348,6.348,0,0,1-6.339-6.339Z" fill="#656d78"/>
        </g>
        <g id="Grupo_22826" data-name="Grupo 22826">
          <path id="Trazado_5760" data-name="Trazado 5760" d="M120.435,40.145V31.694a24.945,24.945,0,0,1-12.3,4.162h-.021a22.945,22.945,0,0,1-4.247,4.712l-4.564,3.8v8.452a8.452,8.452,0,1,1-16.9,0V44.371l-4.564-3.8-.486-.423A32.291,32.291,0,0,0,65.711,51.639a31.114,31.114,0,0,0-3.993,11.029,30.59,30.59,0,0,0-.444,5.24A31.956,31.956,0,0,0,69.6,89.439l6.465,7.12,6.339,6.973,1.859-2.324a29.979,29.979,0,0,0,6.592-18.8H88.742a6.339,6.339,0,1,1,0-12.677h2.113a8.454,8.454,0,0,1,6.656-8.261,8.353,8.353,0,0,1,1.8-.19H114.1a6.348,6.348,0,0,0,6.339-6.339v5.62A12.706,12.706,0,0,0,128.887,48.6V38.032Z" fill="#b27946"/>
        </g>
        <g id="Grupo_22827" data-name="Grupo 22827">
          <path id="Trazado_5761" data-name="Trazado 5761" d="M31.694,61.274a8.22,8.22,0,0,1,4.226,1.141v5.557a14.442,14.442,0,0,1-4.226,10.205L35.919,82.4V95.081a8.449,8.449,0,0,0,8.452,8.452H19.016a8.449,8.449,0,0,1-8.452-8.452V82.4L6.339,78.177a14.442,14.442,0,0,0,4.226-10.205V54.935A6.348,6.348,0,0,0,16.9,61.274h14.79Z" fill="#f0d0b4"/>
        </g>
        <g id="Grupo_22828" data-name="Grupo 22828">
          <path id="Trazado_5762" data-name="Trazado 5762" d="M61.274,67.909A31.956,31.956,0,0,0,69.6,89.439l6.465,7.12-6.339,6.973H44.371a8.449,8.449,0,0,1-8.452-8.452V82.4l-4.226-4.226a14.442,14.442,0,0,0,4.226-10.205V54.935a6.348,6.348,0,0,0,6.339,6.339h14.79A8.362,8.362,0,0,1,61.7,62.669h.021a30.59,30.59,0,0,0-.444,5.24Z" fill="#f0d0b4"/>
        </g>
        <g id="Grupo_22829" data-name="Grupo 22829">
          <path id="Trazado_5763" data-name="Trazado 5763" d="M120.435,60.556v7.416a14.442,14.442,0,0,0,4.226,10.205L120.435,82.4v4.226H107.758a8.44,8.44,0,0,0,8.452,8.452h4.226a8.449,8.449,0,0,1-8.452,8.452H82.4l1.859-2.324a29.979,29.979,0,0,0,6.592-18.8H88.742a6.339,6.339,0,0,1,0-12.677h2.113a8.454,8.454,0,0,1,6.656-8.261,8.353,8.353,0,0,1,1.8-.19H114.1a6.348,6.348,0,0,0,6.339-6.339Z" fill="#f0d0b4"/>
        </g>
        <g id="Grupo_22830" data-name="Grupo 22830">
          <path id="Trazado_5764" data-name="Trazado 5764" d="M82.4,52.823h16.9a8.452,8.452,0,0,1-16.9,0Z" fill="#aab2bd"/>
        </g>
        <g id="Grupo_22831" data-name="Grupo 22831">
          <path id="Trazado_5765" data-name="Trazado 5765" d="M99.306,44.371v8.452H82.4V44.371h16.9Z" fill="#ccd1d9"/>
        </g>
        <g id="Grupo_22832" data-name="Grupo 22832">
          <path id="Trazado_5766" data-name="Trazado 5766" d="M95.081,44.371H82.4l-4.564-3.8-.486-.423a21,21,0,0,1-1.69-1.669h-.021a22.112,22.112,0,0,1-3.782-5.663,22.471,22.471,0,0,1-2.134-9.571,21.129,21.129,0,0,1,42.258,0,22.689,22.689,0,0,1-3.845,12.614h-.021a22.945,22.945,0,0,1-4.247,4.712l-4.564,3.8Z" fill="#ffeaa7"/>
        </g>
        <g id="Grupo_22833" data-name="Grupo 22833">
          <path id="Trazado_5767" data-name="Trazado 5767" d="M120.435,86.629v8.452H116.21a8.44,8.44,0,0,1-8.452-8.452Z" fill="#ff826e"/>
        </g>
        <g id="Grupo_22834" data-name="Grupo 22834">
          <circle id="Elipse_1273" data-name="Elipse 1273" cx="4.226" cy="4.226" r="4.226" transform="translate(103.532 69.726)" fill="#d3a06c"/>
        </g>
      </g>
      <g id="Grupo_22836" data-name="Grupo 22836">
        <path id="Trazado_5768" data-name="Trazado 5768" d="M131,48.6V35.326l-8.452,2.113V27.747l-3.286,2.189a23.029,23.029,0,0,1-7.237,3.146,24.615,24.615,0,0,0,2.071-9.84,23.242,23.242,0,0,0-46.484,0,24.6,24.6,0,0,0,2.81,11.374,34.182,34.182,0,0,0-7.347-.811H50.71a25.31,25.31,0,0,0-5.986.744,34.313,34.313,0,0,0-7-.744l-25.41,0a8.043,8.043,0,0,0-7.947,9.546l-2,2a8.09,8.09,0,0,0,5.72,13.81h.363v8.815a12.4,12.4,0,0,1-3.607,8.707L3.351,78.177l5.1,5.1v11.8a10.577,10.577,0,0,0,10.565,10.565H29.8a27.452,27.452,0,0,0-12.9,23.242V131H114.1v-2.113a27.452,27.452,0,0,0-12.9-23.242h10.784a10.577,10.577,0,0,0,10.565-10.565v-11.8l5.1-5.1-1.494-1.494a12.4,12.4,0,0,1-3.607-8.707V61.919A14.787,14.787,0,0,0,131,48.6ZM118.323,35.326v7.528l8.452-2.113V48.6a10.578,10.578,0,0,1-4.226,8.445V54.935a8.46,8.46,0,0,0-8.452-8.452V50.71a4.226,4.226,0,0,1,0,8.452H99.306c-.019,0-.038,0-.059,0a10.453,10.453,0,0,0,2.172-6.343V45.362l3.8-3.167a24.734,24.734,0,0,0,4.057-4.336,27.361,27.361,0,0,0,9.043-2.533ZM88.662,84.516A28.128,28.128,0,0,1,82.608,99.9l-.306.382L71.16,88.024a29.874,29.874,0,0,1,6-45.267l3.125,2.605v7.461A10.577,10.577,0,0,0,90.855,63.387c.019,0,.036-.006.055-.006a10.492,10.492,0,0,0-1.954,4.232h-.213a8.452,8.452,0,0,0-.08,16.9Zm.08,21.23v7.435l9.912,5.946-2.183,4.365,6.563,3.281H88.742v-8.452H84.516v8.452H76.064v-9.567a13.09,13.09,0,0,1,6.9-11.562h3.66c.712,0,1.416.038,2.113.1ZM63.387,118.323v8.452H49.1l6.561-3.281-2.269-4.539,7.632-5.722,1.94-7.442a23.525,23.525,0,0,1,2.542-.146h3.657a13.125,13.125,0,0,1,4.443,3.943,17.394,17.394,0,0,0-1.762,7.619v9.567H67.613v-8.452Zm-31.127.632,7.632-5.722,1.94-7.437a23.418,23.418,0,0,1,2.54-.15h6.558A27.449,27.449,0,0,0,38.14,126.774H27.968l6.561-3.281Zm5.772-23.874V92.968h4.226a8.46,8.46,0,0,0,8.452-8.452H46.484a4.23,4.23,0,0,1-4.226,4.226H38.032V81.528L34.584,78.08a16.675,16.675,0,0,0,3.448-10.1V62.212a8.365,8.365,0,0,0,4.226,1.175h14.79a6.316,6.316,0,0,1,2.369.473,33.872,33.872,0,0,0,8.614,27.007l5.177,5.692-4.418,4.86H44.371a6.346,6.346,0,0,1-6.339-6.339Zm38.011,10.763a17.3,17.3,0,0,0-3.028-2.787L76.065,99.7l3.045,3.349a17.4,17.4,0,0,0-3.066,2.793ZM49.987,121.6l-7.427,3.712a23.289,23.289,0,0,1,15.771-18.528L57.3,110.735l-9.271,6.956Zm34.529-75.12H97.194V50.71H84.516Zm6.339,12.677a6.33,6.33,0,0,1-5.95-4.226H96.8a6.325,6.325,0,0,1-5.948,4.226Zm0-54.935a19.037,19.037,0,0,1,19.016,19.016,20.4,20.4,0,0,1-7.353,15.705l-3.976,3.311H97.194V23.242a2.113,2.113,0,0,1,4.226,0v2.113h4.226V23.242a6.339,6.339,0,0,0-12.677,0V42.258H88.742V23.242a6.339,6.339,0,1,0-12.677,0v2.113H80.29V23.242a2.113,2.113,0,1,1,4.226,0V42.258H83.168l-3.974-3.311a20.392,20.392,0,0,1-7.355-15.705A19.037,19.037,0,0,1,90.855,4.226ZM63.079,38.03a29.721,29.721,0,0,1,10.613,1.976A34.237,34.237,0,0,0,60.2,59.647a10.645,10.645,0,0,0-3.155-.486H42.258a4.226,4.226,0,0,1,0-8.452V46.484a8.46,8.46,0,0,0-8.452,8.452V59.4a10.559,10.559,0,0,0-2.113-.235H29.581A21.156,21.156,0,0,1,50.71,38.03Zm-50.765,0,24.412,0A25.346,25.346,0,0,0,25.355,59.161H16.9a4.226,4.226,0,1,1,0-8.452V46.484a8.34,8.34,0,0,0-4.266,1.2L9.582,44.627a3.864,3.864,0,0,1,2.732-6.594Zm-4.226,16.9a3.864,3.864,0,0,1-2.732-6.594l1.008-1.008c.082.091.144.194.23.281L9.65,50.67a8.34,8.34,0,0,0-1.2,4.266Zm4.589,40.145V92.968H16.9a8.46,8.46,0,0,0,8.452-8.452H21.129A4.23,4.23,0,0,1,16.9,88.742H12.677V81.528L9.229,78.08a16.675,16.675,0,0,0,3.448-10.1V62.212A8.365,8.365,0,0,0,16.9,63.387h14.79a6.31,6.31,0,0,1,2.113.41v4.179A12.4,12.4,0,0,1,30.2,76.684l-1.494,1.494,5.1,5.1v11.8a10.455,10.455,0,0,0,2.168,6.339H19.016a6.346,6.346,0,0,1-6.339-6.339ZM37.2,106.8l-1.027,3.936L26.9,117.691l1.957,3.913-7.433,3.717A23.285,23.285,0,0,1,37.2,106.8Zm72.375,18.522-7.433-3.717,2.043-4.086-11.217-6.73v-4.255a23.292,23.292,0,0,1,16.607,18.788Zm6.635-32.353a6.351,6.351,0,0,1-5.977-4.226h8.09v4.226Zm2.113-11.439v2.988H105.645v2.113A10.577,10.577,0,0,0,116.21,97.194h1.724a6.33,6.33,0,0,1-5.95,4.226H86.726A32.348,32.348,0,0,0,92.968,82.4V80.29H88.742a4.226,4.226,0,0,1,0-8.452h4.226V69.726a6.346,6.346,0,0,1,6.339-6.339H114.1a8.365,8.365,0,0,0,4.226-1.175v5.764a16.67,16.67,0,0,0,3.448,10.1Z"/>
        <path id="Trazado_5769" data-name="Trazado 5769" d="M107.758,67.613a6.339,6.339,0,1,0,6.339,6.339A6.346,6.346,0,0,0,107.758,67.613Zm0,8.452a2.113,2.113,0,1,1,2.113-2.113A2.114,2.114,0,0,1,107.758,76.065Z"/>
        <path id="Trazado_5770" data-name="Trazado 5770" d="M29.581,67.613H25.355v2.113a2.113,2.113,0,1,1-4.226,0V67.613H16.9v2.113a6.339,6.339,0,1,0,12.677,0Z"/>
        <path id="Trazado_5771" data-name="Trazado 5771" d="M50.71,69.726a2.113,2.113,0,1,1-4.226,0V67.613H42.258v2.113a6.339,6.339,0,1,0,12.677,0V67.613H50.71Z"/>
      </g>
    </g>
  </g>
</svg>
