<svg xmlns="http://www.w3.org/2000/svg" xmlns:xlink="http://www.w3.org/1999/xlink" width="131" height="131" viewBox="0 0 131 131">
  <defs>
    <clipPath id="clip-path">
      <rect id="Rectángulo_5618" data-name="Rectángulo 5618" width="131" height="131" transform="translate(268 6996)" fill="#fff" stroke="#707070" stroke-width="1"/>
    </clipPath>
  </defs>
  <g id="Enmascarar_grupo_4" data-name="Enmascarar grupo 4" transform="translate(-268 -6996)" clip-path="url(#clip-path)">
    <g id="vision" transform="translate(268 6996)">
      <path id="Trazado_5726" data-name="Trazado 5726" d="M114.221,81.374l-8.568-15.252a2.589,2.589,0,0,1-.327-1.228,40.07,40.07,0,0,0-2.035-12.007H81.25a1.281,1.281,0,0,1-1.281-1.281V38.456a1.281,1.281,0,0,1,1.281-1.281H93.585A40.039,40.039,0,0,0,70.165,25.7a20.382,20.382,0,0,1-7.555,12.68A8.916,8.916,0,0,0,59.566,42.7L58.36,46.517a3.641,3.641,0,0,1-.853,7.181,3.643,3.643,0,0,1,0,7.285H56.25L55.11,66.467a3.112,3.112,0,0,1-3.047,2.479H48.113a3.112,3.112,0,0,1-3.042-2.455l-1.189-5.507H42.594a3.643,3.643,0,1,1,0-7.285,3.641,3.641,0,0,1-.854-7.181L40.55,42.749a8.679,8.679,0,0,0-2.943-4.274q-.587-.452-1.137-.947a40.088,40.088,0,0,0-8.868,42.2H49.75a1.281,1.281,0,0,1,1.281,1.281v13.15a1.281,1.281,0,0,1-1.281,1.281H38.364q1.362,1.223,2.832,2.322a10.317,10.317,0,0,1,4.187,8.261v20.5a2.561,2.561,0,0,0,2.561,2.561H77.509a2.561,2.561,0,0,0,2.561-2.561V112.036a2.561,2.561,0,0,1,2.561-2.561h7.8a11.125,11.125,0,0,0,11.125-11.125V90.168a2.561,2.561,0,0,1,2.561-2.561h6.451a4.183,4.183,0,0,0,3.648-6.233Z" fill="#fddeb0"/>
      <g id="Grupo_22771" data-name="Grupo 22771">
        <path id="Trazado_5727" data-name="Trazado 5727" d="M33.6,64.767a39.854,39.854,0,0,1,7.009-21.842l-.056-.175a8.679,8.679,0,0,0-2.943-4.274q-.587-.452-1.137-.947a40.088,40.088,0,0,0-8.868,42.2h8.566A40.083,40.083,0,0,1,33.6,64.767Z" fill="#fdd79b"/>
        <path id="Trazado_5728" data-name="Trazado 5728" d="M53.949,126.52v-20.5a10.317,10.317,0,0,0-4.187-8.261q-1.47-1.1-2.832-2.322H38.364q1.362,1.223,2.832,2.322a10.317,10.317,0,0,1,4.187,8.261v20.5a2.561,2.561,0,0,0,2.561,2.561H56.51A2.561,2.561,0,0,1,53.949,126.52Z" fill="#fdd79b"/>
      </g>
      <path id="Trazado_5729" data-name="Trazado 5729" d="M89.164,52.886H81.25a1.281,1.281,0,0,1-1.281-1.281V42.589a27.123,27.123,0,0,0-15.095-4.568c-.637,0-1.269.024-1.9.067-.122.1-.244.2-.369.3A8.916,8.916,0,0,0,59.566,42.7L58.36,46.517a3.641,3.641,0,0,1-.853,7.181,3.643,3.643,0,0,1,0,7.285H56.25L55.11,66.467a3.112,3.112,0,0,1-3.047,2.479H48.113a3.112,3.112,0,0,1-3.042-2.455l-1.189-5.507H42.594a3.63,3.63,0,0,1-3.536-4.5,27.252,27.252,0,0,0,2.669,23.246H49.75A1.281,1.281,0,0,1,51.03,81v7.8A27.274,27.274,0,0,0,89.164,52.886Z" fill="#c8effe"/>
      <path id="Trazado_5730" data-name="Trazado 5730" d="M64.875,51.862a13.365,13.365,0,0,0-5.019.976,3.631,3.631,0,0,1-1.623.788c-.067.038-.134.076-.2.115a3.641,3.641,0,0,1-.526,7.243H56.25l-1.139,5.484a3.112,3.112,0,0,1-3.047,2.479H51.94A13.44,13.44,0,1,0,64.875,51.862Z" fill="#01d0fb"/>
      <path id="Trazado_5731" data-name="Trazado 5731" d="M69.221,52.587a13.391,13.391,0,0,0-9.366.25,3.631,3.631,0,0,1-1.623.788c-.067.038-.134.076-.2.115a3.641,3.641,0,0,1-.526,7.243H56.25l-1.139,5.484a3.112,3.112,0,0,1-3.047,2.479H51.94a13.428,13.428,0,0,0,17.281,9.072,13.436,13.436,0,0,1,0-25.431Z" fill="#01c0fa"/>
      <g id="Grupo_22783" data-name="Grupo 22783">
        <g id="Grupo_22773" data-name="Grupo 22773">
          <g id="Grupo_22772" data-name="Grupo 22772">
            <path id="Trazado_5732" data-name="Trazado 5732" d="M49.746,1.921A20.4,20.4,0,0,0,37.607,38.475a8.679,8.679,0,0,1,2.943,4.274l1.268,4.012a3.375,3.375,0,0,1,.776-.093H57.507a3.363,3.363,0,0,1,.776.093L59.567,42.7a8.916,8.916,0,0,1,3.044-4.316A20.4,20.4,0,0,0,49.746,1.921Z" fill="#fed402"/>
          </g>
        </g>
        <g id="Grupo_22775" data-name="Grupo 22775">
          <g id="Grupo_22774" data-name="Grupo 22774">
            <path id="Trazado_5733" data-name="Trazado 5733" d="M41.818,46.761a3.375,3.375,0,0,1,.776-.093h6.3l-1.926-6.094A8.679,8.679,0,0,0,44.03,36.3,20.372,20.372,0,0,1,46.868,2.171a20.393,20.393,0,0,0-9.261,36.3,8.679,8.679,0,0,1,2.943,4.274Z" fill="#fac600"/>
          </g>
        </g>
        <g id="Grupo_22776" data-name="Grupo 22776">
          <circle id="Elipse_1271" data-name="Elipse 1271" cx="11.826" cy="11.826" r="11.826" transform="translate(38.224 10.49)" fill="#fee97d"/>
        </g>
        <g id="Grupo_22782" data-name="Grupo 22782">
          <g id="Grupo_22777" data-name="Grupo 22777">
            <path id="Trazado_5734" data-name="Trazado 5734" d="M43.837,60.727c.009.054.014.108.025.162l1.209,5.6a3.112,3.112,0,0,0,3.042,2.455h3.951a3.112,3.112,0,0,0,3.047-2.479l1.164-5.6c.01-.046.013-.092.02-.138Z" fill="#3e5959"/>
          </g>
          <path id="Trazado_5735" data-name="Trazado 5735" d="M43.882,60.983l1.189,5.507a3.112,3.112,0,0,0,3.042,2.455h3.951a3.112,3.112,0,0,0,3.047-2.479l1.139-5.484Z" fill="#3e5959"/>
          <path id="Trazado_5736" data-name="Trazado 5736" d="M50.615,66.491l-1.189-5.507H43.882l1.189,5.507a3.112,3.112,0,0,0,3.042,2.455h3.951a3.108,3.108,0,0,0,.8-.1A3.113,3.113,0,0,1,50.615,66.491Z" fill="#384949"/>
          <g id="Grupo_22778" data-name="Grupo 22778">
            <path id="Trazado_5737" data-name="Trazado 5737" d="M57.507,53.7H42.594a3.643,3.643,0,1,1,0-7.285H57.507a3.643,3.643,0,1,1,0,7.285Z" fill="#a8d3d8"/>
          </g>
          <g id="Grupo_22779" data-name="Grupo 22779">
            <path id="Trazado_5738" data-name="Trazado 5738" d="M47.59,50.055a3.643,3.643,0,0,1,3.643-3.643H42.594a3.643,3.643,0,1,0,0,7.285h8.639A3.642,3.642,0,0,1,47.59,50.055Z" fill="#8ebac5"/>
          </g>
          <g id="Grupo_22780" data-name="Grupo 22780">
            <path id="Trazado_5739" data-name="Trazado 5739" d="M57.507,60.983H42.594a3.643,3.643,0,1,1,0-7.285H57.507a3.643,3.643,0,1,1,0,7.285Z" fill="#c8effe"/>
          </g>
          <g id="Grupo_22781" data-name="Grupo 22781">
            <path id="Trazado_5740" data-name="Trazado 5740" d="M47.59,57.34A3.643,3.643,0,0,1,51.232,53.7H42.594a3.643,3.643,0,1,0,0,7.285h8.639A3.642,3.642,0,0,1,47.59,57.34Z" fill="#a8d3d8"/>
          </g>
        </g>
      </g>
      <g id="Grupo_22786" data-name="Grupo 22786">
        <g id="Grupo_22784" data-name="Grupo 22784">
          <path id="Trazado_5741" data-name="Trazado 5741" d="M49.75,95.435h-34.2a1.281,1.281,0,0,1-1.281-1.281V81.005a1.281,1.281,0,0,1,1.281-1.281h34.2a1.281,1.281,0,0,1,1.281,1.281v13.15a1.281,1.281,0,0,1-1.281,1.281Z" fill="#05e39c"/>
        </g>
        <g id="Grupo_22785" data-name="Grupo 22785">
          <path id="Trazado_5742" data-name="Trazado 5742" d="M22.852,94.155V81.005a1.281,1.281,0,0,1,1.281-1.281H15.548a1.281,1.281,0,0,0-1.281,1.281v13.15a1.281,1.281,0,0,0,1.281,1.281h8.585a1.28,1.28,0,0,1-1.281-1.28Z" fill="#0ed290"/>
        </g>
      </g>
      <g id="Grupo_22789" data-name="Grupo 22789">
        <g id="Grupo_22787" data-name="Grupo 22787">
          <path id="Trazado_5743" data-name="Trazado 5743" d="M115.452,52.886H81.25a1.281,1.281,0,0,1-1.281-1.281V38.456a1.281,1.281,0,0,1,1.281-1.281h34.2a1.281,1.281,0,0,1,1.281,1.281v13.15A1.28,1.28,0,0,1,115.452,52.886Z" fill="#fd5426"/>
        </g>
        <g id="Grupo_22788" data-name="Grupo 22788">
          <path id="Trazado_5744" data-name="Trazado 5744" d="M88.607,51.606V38.456a1.281,1.281,0,0,1,1.281-1.281H81.25a1.281,1.281,0,0,0-1.281,1.281v13.15a1.281,1.281,0,0,0,1.281,1.281h8.638A1.281,1.281,0,0,1,88.607,51.606Z" fill="#ef4424"/>
        </g>
      </g>
      <g id="Grupo_22790" data-name="Grupo 22790">
        <circle id="Elipse_1272" data-name="Elipse 1272" cx="5.154" cy="5.154" r="5.154" transform="translate(44.896 17.162)" fill="#fe9901"/>
      </g>
      <g id="Grupo_22791" data-name="Grupo 22791">
        <path id="Trazado_5745" data-name="Trazado 5745" d="M49.125,22.316a5.151,5.151,0,0,1,3.04-4.7,5.154,5.154,0,1,0,0,9.394,5.152,5.152,0,0,1-3.04-4.7Z" fill="#fb8801"/>
      </g>
      <g id="Grupo_22792" data-name="Grupo 22792">
        <path id="Trazado_5746" data-name="Trazado 5746" d="M21.194,89.5h4.8a1.919,1.919,0,1,0,0-3.838h-4.8a1.919,1.919,0,1,0,0,3.838Z"/>
        <path id="Trazado_5747" data-name="Trazado 5747" d="M32.212,89.5H44.1a1.919,1.919,0,1,0,0-3.838H32.212a1.919,1.919,0,1,0,0,3.838Z"/>
        <path id="Trazado_5748" data-name="Trazado 5748" d="M115.452,35.256H94.372A41.766,41.766,0,0,0,72.3,24.076c.045-.582.07-1.169.07-1.76a22.317,22.317,0,0,0-44.624-.611A22.418,22.418,0,0,0,33.79,37.587a41.863,41.863,0,0,0-8.844,40.218h-9.4a3.2,3.2,0,0,0-3.2,3.2v13.15a3.2,3.2,0,0,0,3.2,3.2h22.1q1.162,1.011,2.405,1.941a8.446,8.446,0,0,1,3.415,6.722v20.5a4.485,4.485,0,0,0,4.48,4.48H77.509a4.485,4.485,0,0,0,4.48-4.48v-2.94a1.919,1.919,0,1,0-3.838,0v2.94a.643.643,0,0,1-.642.642H47.944a.643.643,0,0,1-.642-.642v-20.5a12.265,12.265,0,0,0-3.649-8.664h6.1a3.2,3.2,0,0,0,3.2-3.2v-2.2A29.193,29.193,0,0,0,92.12,54.8h9.767a38.348,38.348,0,0,1,1.521,10.12,4.529,4.529,0,0,0,.572,2.137l8.568,15.252a2.265,2.265,0,0,1-1.975,3.374h-6.451a4.485,4.485,0,0,0-4.48,4.48v8.182a9.217,9.217,0,0,1-9.206,9.206h-7.8a4.485,4.485,0,0,0-4.48,4.48v2.589a1.919,1.919,0,0,0,3.838,0v-2.589a.643.643,0,0,1,.642-.642h7.8A13.059,13.059,0,0,0,103.48,98.35V90.168a.643.643,0,0,1,.642-.642h6.451a6.1,6.1,0,0,0,5.321-9.092l-8.568-15.251a.677.677,0,0,1-.081-.32,42.241,42.241,0,0,0-1.38-10.058h9.587a3.2,3.2,0,0,0,3.2-3.2V38.456a3.2,3.2,0,0,0-3.2-3.2Zm-26.943,0H81.25a3.2,3.2,0,0,0-3.2,3.2v.8a28.98,28.98,0,0,0-10.543-3.028,22.08,22.08,0,0,0,4.165-8.354,37.9,37.9,0,0,1,16.837,7.385ZM31.579,21.808A18.56,18.56,0,0,1,49.774,3.84l.279,0A18.476,18.476,0,0,1,61.428,36.873a10.8,10.8,0,0,0-3.691,5.249l-.749,2.371H51.969V35.924A13.75,13.75,0,0,0,62.951,17.566a1.919,1.919,0,1,0-3.6,1.327,9.914,9.914,0,0,1-7.381,13.142V29.122a7.073,7.073,0,1,0-3.838,0v2.913A9.907,9.907,0,0,1,50.05,12.409a9.818,9.818,0,0,1,4.226.945,1.919,1.919,0,1,0,1.64-3.47A13.622,13.622,0,0,0,50.05,8.571a13.744,13.744,0,0,0-1.919,27.353v8.569H43.114L42.38,42.17a10.543,10.543,0,0,0-3.6-5.215,18.559,18.559,0,0,1-7.2-15.147ZM53.232,66.077a1.2,1.2,0,0,1-1.168.951H48.113a1.2,1.2,0,0,1-1.166-.941L46.26,62.9h7.632ZM42.594,59.064a1.724,1.724,0,0,1,0-3.448H57.507a1.724,1.724,0,0,1,0,3.448Zm14.913-7.286H42.594a1.724,1.724,0,1,1,0-3.447H57.507a1.724,1.724,0,0,1,0,3.447ZM50.05,25.551a3.235,3.235,0,1,1,3.235-3.235A3.239,3.239,0,0,1,50.05,25.551ZM26.949,64.8a37.929,37.929,0,0,1,9.687-24.641,6.754,6.754,0,0,1,2.084,3.165l.687,2.174a5.541,5.541,0,0,0-1.212,7.943q-.341.765-.639,1.552a5.483,5.483,0,0,0-.344.958,29.155,29.155,0,0,0,1.281,21.852H28.979a38.147,38.147,0,0,1-2.03-13ZM49.111,93.517H16.186V81.644H49.111ZM90.237,65.3A25.347,25.347,0,0,1,52.949,87.677V81.005a3.2,3.2,0,0,0-3.2-3.2H42.82a25.275,25.275,0,0,1-3.1-15.712,5.518,5.518,0,0,0,2.616.8l.864,4a5.058,5.058,0,0,0,4.918,3.97h2.449a15.347,15.347,0,0,0,19.741,8.8,1.919,1.919,0,1,0-1.36-3.589,11.507,11.507,0,0,1-14.471-5.837,5.042,5.042,0,0,0,2.518-3.386l.824-3.964a5.553,5.553,0,0,0,4.234-8.756A11.511,11.511,0,0,1,74.825,71.1a1.919,1.919,0,0,0,3.312,1.938A15.35,15.35,0,0,0,63.069,50.05,5.558,5.558,0,0,0,60.694,45.5l.7-2.223A6.965,6.965,0,0,1,63.7,39.97c.388-.018.777-.03,1.17-.03a25.2,25.2,0,0,1,13.176,3.7v7.962a3.2,3.2,0,0,0,3.2,3.2h6.707a25.2,25.2,0,0,1,2.28,10.5Zm24.577-14.335H81.888V39.094h32.926Z"/>
        <path id="Trazado_5749" data-name="Trazado 5749" d="M86.9,46.95h4.8a1.919,1.919,0,0,0,0-3.838H86.9a1.919,1.919,0,0,0,0,3.838Z"/>
        <path id="Trazado_5750" data-name="Trazado 5750" d="M97.915,46.95h11.892a1.919,1.919,0,0,0,0-3.838H97.915a1.919,1.919,0,0,0,0,3.838Z"/>
      </g>
    </g>
  </g>
</svg>
