<svg xmlns="http://www.w3.org/2000/svg" xmlns:xlink="http://www.w3.org/1999/xlink" width="131" height="131" viewBox="0 0 131 131">
  <defs>
    <clipPath id="clip-path">
      <rect id="Rectángulo_5615" data-name="Rectángulo 5615" width="131" height="131" transform="translate(268 6729)" fill="#fff" stroke="#707070" stroke-width="1"/>
    </clipPath>
  </defs>
  <g id="Enmascarar_grupo_3" data-name="Enmascarar grupo 3" transform="translate(-268 -6729)" clip-path="url(#clip-path)">
    <g id="idea-genial" transform="translate(268 6734.194)">
      <g id="Grupo_22766" data-name="Grupo 22766" transform="translate(1.919 1.919)">
        <path id="Trazado_5710" data-name="Trazado 5710" d="M66.585,116.206H31.533a6.4,6.4,0,0,1-6.4-6.4V108.53H61.468Z" transform="translate(-5.947 -24.506)" fill="#fa6f7c"/>
        <path id="Trazado_5711" data-name="Trazado 5711" d="M84.5,28.093H69.984a7.676,7.676,0,0,0-7.676,7.676H84.5Z" transform="translate(-11.904 -11.615)" fill="#fc8d94"/>
        <path id="Trazado_5712" data-name="Trazado 5712" d="M70.45,37.234H46.5a13.442,13.442,0,0,0-13.5,12.6q-.007.14-.012.279a2.554,2.554,0,0,1-2.555,2.471H28.591a13.523,13.523,0,0,0-13.513,13.3,13.287,13.287,0,0,0,.194,1.945A2.565,2.565,0,0,1,13.2,70.745,13.286,13.286,0,0,0,15.59,97.1H62.924L95.8,89.659V39.439Z" transform="translate(-2.285 -13.08)" fill="#faa4aa"/>
        <path id="Trazado_5713" data-name="Trazado 5713" d="M119.952,62.256a12.288,12.288,0,0,1,11.212,14.35,3.478,3.478,0,0,0,2.165,3.8,10.745,10.745,0,0,1,6.714,10.1,10.873,10.873,0,0,1-10.94,10.61h-6.714a1.279,1.279,0,0,0-1.279,1.279,6.4,6.4,0,0,1-6.4,6.4H108.06a3.838,3.838,0,0,0-3.838,3.838v15.349a5.841,5.841,0,0,1-5.234,5.864,5.758,5.758,0,0,1-6.28-5.734v-8.571a3.838,3.838,0,0,0-3.838-3.838H78.636A10.235,10.235,0,0,1,68.4,105.464V96.841A10.234,10.234,0,0,1,78.636,86.607h23.184Z" transform="translate(-12.881 -17.09)" fill="#fc8d94"/>
        <path id="Trazado_5714" data-name="Trazado 5714" d="M145.044,90.5A10.874,10.874,0,0,1,134.1,101.114h-6.714a1.28,1.28,0,0,0-1.279,1.279,6.394,6.394,0,0,1-6.4,6.4h-6.652a3.839,3.839,0,0,0-3.838,3.838v15.349a5.84,5.84,0,0,1-5.235,5.864,5.734,5.734,0,0,1-4.378-1.461,5.964,5.964,0,0,0,1.937-4.4V112.628a3.839,3.839,0,0,1,3.838-3.838h6.652a6.394,6.394,0,0,0,6.4-6.4,1.28,1.28,0,0,1,1.279-1.279h6.714A10.874,10.874,0,0,0,137.368,90.5a10.744,10.744,0,0,0-6.714-10.1,3.476,3.476,0,0,1-2.165-3.8,12.3,12.3,0,0,0-5.127-12.21l1.591-2.139a12.291,12.291,0,0,1,11.212,14.349,3.476,3.476,0,0,0,2.165,3.8,10.744,10.744,0,0,1,6.714,10.1Z" transform="translate(-17.882 -17.09)" fill="#fa6f7c"/>
        <path id="Trazado_5715" data-name="Trazado 5715" d="M96.907,68.7V61.619a10.028,10.028,0,0,0-3.839-7.857,25.381,25.381,0,1,1,31.472,0,10.029,10.029,0,0,0-3.839,7.857v7.338Z" transform="translate(-15.288 -8.47)" fill="#ffe07d"/>
        <path id="Trazado_5716" data-name="Trazado 5716" d="M138.3,33.852a25.241,25.241,0,0,1-2.62,11.24,25.5,25.5,0,0,1-7.026,8.671,10.024,10.024,0,0,0-3.838,7.855v7.338l-7.676-.082V61.618a10.024,10.024,0,0,1,3.838-7.855A25.5,25.5,0,0,0,128,45.092a25.531,25.531,0,0,0,2.89-11.259,25.5,25.5,0,0,0-7.7-17.929,25.326,25.326,0,0,0-14.111-7.146,25.641,25.641,0,0,1,3.838-.287A25.377,25.377,0,0,1,138.3,33.852Z" transform="translate(-19.399 -8.47)" fill="#ffd064"/>
        <path id="Trazado_5717" data-name="Trazado 5717" d="M104.2,85.374v6.908a2.559,2.559,0,0,0,2.559,2.559h10.746a2.559,2.559,0,0,0,2.559-2.559V85.63Z" transform="translate(-18.618 -20.795)" fill="#e6d6d1"/>
        <path id="Trazado_5718" data-name="Trazado 5718" d="M121.14,85.678v6.652a2.56,2.56,0,0,1-2.559,2.559h-7.676a2.56,2.56,0,0,0,2.559-2.559V85.678Z" transform="translate(-19.692 -20.843)" fill="#d3c6c3"/>
        <path id="Trazado_5719" data-name="Trazado 5719" d="M122.89,86.042H98.839a2.559,2.559,0,0,1-2.559-2.559V80.925a2.559,2.559,0,0,1,2.559-2.559H122.89a2.559,2.559,0,0,1,2.559,2.559v2.559A2.559,2.559,0,0,1,122.89,86.042Z" transform="translate(-17.349 -19.672)" fill="#fcf1f2"/>
        <path id="Trazado_5720" data-name="Trazado 5720" d="M129.062,80.924v2.559a2.56,2.56,0,0,1-2.559,2.559h-7.676a2.56,2.56,0,0,0,2.559-2.559V80.924a2.56,2.56,0,0,0-2.559-2.559H126.5A2.56,2.56,0,0,1,129.062,80.924Z" transform="translate(-20.962 -19.672)" fill="#f4e5e0"/>
        <path id="Trazado_5721" data-name="Trazado 5721" d="M112.562,30.457a8.955,8.955,0,0,0,6.616,6.616.276.276,0,0,1,0,.536,8.955,8.955,0,0,0-6.616,6.616.276.276,0,0,1-.536,0,8.955,8.955,0,0,0-6.616-6.616.276.276,0,0,1,0-.536,8.955,8.955,0,0,0,6.616-6.616A.276.276,0,0,1,112.562,30.457Z" transform="translate(-18.778 -11.96)" fill="#fff"/>
      </g>
      <g id="Grupo_22767" data-name="Grupo 22767" transform="translate(0 0)">
        <path id="Trazado_5722" data-name="Trazado 5722" d="M61.942,49.969a1.919,1.919,0,0,0-1.919,1.919v2.559A12.167,12.167,0,0,0,72.177,66.6h2.559a1.919,1.919,0,0,0,0-3.838H72.177a8.325,8.325,0,0,1-8.315-8.315V51.888A1.919,1.919,0,0,0,61.942,49.969Z" transform="translate(-9.619 -13.202)"/>
        <path id="Trazado_5723" data-name="Trazado 5723" d="M123.087,69.643a1.555,1.555,0,0,1-.994-1.7A14.213,14.213,0,0,0,114.622,52.9a27.3,27.3,0,1,0-44.248-30.24H60a9.661,9.661,0,0,0-9.4,7.676H46.137a15.325,15.325,0,0,0-15.412,14.42c-.005.106-.01.212-.013.319a.632.632,0,0,1-.637.613H28.225a15.432,15.432,0,0,0-10.843,4.455,14.985,14.985,0,0,0-4.589,10.767,14.629,14.629,0,0,0,.219,2.248.648.648,0,0,1-.54.725A15.365,15.365,0,0,0,0,78.565,15.224,15.224,0,0,0,15.224,94.048h3.993a8.325,8.325,0,0,0,8.288,7.676H56.713a12.168,12.168,0,0,0,10.962,6.908H77.909a1.921,1.921,0,0,1,1.919,1.919v8.571a7.677,7.677,0,0,0,8.368,7.645,7.792,7.792,0,0,0,6.984-7.775,1.919,1.919,0,0,0-3.838,0,3.929,3.929,0,0,1-3.483,3.952,3.839,3.839,0,0,1-4.193-3.822v-8.571a5.763,5.763,0,0,0-5.757-5.757H67.675a8.325,8.325,0,0,1-8.315-8.315V87.856a8.325,8.325,0,0,1,8.315-8.315h2.559a1.919,1.919,0,0,0,0-3.838H67.675A12.167,12.167,0,0,0,55.522,87.856V90.21H40.571a1.919,1.919,0,0,0,0,3.838H55.522v2.431a12.171,12.171,0,0,0,.084,1.407H27.5a4.481,4.481,0,0,1-4.426-3.838h8.537a1.919,1.919,0,0,0,0-3.838H15.224A11.386,11.386,0,0,1,3.84,78.628,11.51,11.51,0,0,1,13.2,67.653a4.469,4.469,0,0,0,3.6-5.1,10.911,10.911,0,0,1-.17-1.641A11.645,11.645,0,0,1,28.225,49.529h1.849A4.453,4.453,0,0,0,34.546,45.2c0-.08.006-.16.01-.241a11.489,11.489,0,0,1,11.58-10.782H68.145A27.155,27.155,0,0,0,78.508,54.9a8.073,8.073,0,0,1,3.111,6.352v4a4.482,4.482,0,0,0-2.687,4.1v2.559a4.483,4.483,0,0,0,4.478,4.478h2.175v3.2a4.483,4.483,0,0,0,4.478,4.478h10.746a4.483,4.483,0,0,0,4.478-4.478v-3.2h2.175a4.483,4.483,0,0,0,4.478-4.478V69.358a4.483,4.483,0,0,0-2.687-4.1v-4a8.023,8.023,0,0,1,2.219-5.533,10.371,10.371,0,0,1,6.84,11.573,5.366,5.366,0,0,0,3.335,5.908,8.777,8.777,0,0,1,5.515,8.294,8.959,8.959,0,0,1-9.021,8.715h-6.714a3.2,3.2,0,0,0-3.2,3.2,4.483,4.483,0,0,1-4.478,4.478H97.1a5.763,5.763,0,0,0-5.757,5.757v6.394a1.919,1.919,0,0,0,3.838,0v-6.394a1.921,1.921,0,0,1,1.919-1.919h6.652a8.327,8.327,0,0,0,8.291-7.676h6.1A12.811,12.811,0,0,0,131,81.542,12.592,12.592,0,0,0,123.087,69.643ZM60,26.5h9.043a27.1,27.1,0,0,0-.725,3.838H54.576A5.8,5.8,0,0,1,60,26.5Zm41.449,53.091a.64.64,0,0,1-.64.64H90.063a.64.64,0,0,1-.64-.64v-3.2h12.025Zm6.652-7.676a.64.64,0,0,1-.64.64H83.41a.64.64,0,0,1-.64-.64V69.358a.64.64,0,0,1,.64-.64h24.051a.64.64,0,0,1,.64.64ZM95.436,50.191a18.077,18.077,0,0,0,1.919-.1V64.88H93.517V50.087A18.145,18.145,0,0,0,95.436,50.191Zm9.979,11.062V64.88h-4.222V49.24a18,18,0,0,0,12.219-17.025,1.919,1.919,0,0,0-3.838,0,14.138,14.138,0,1,1-28.275,0,1.919,1.919,0,0,0-3.838,0A18,18,0,0,0,89.679,49.24V64.88H85.457V61.253A11.891,11.891,0,0,0,80.89,51.89a23.462,23.462,0,1,1,29.091,0,11.892,11.892,0,0,0-4.567,9.362Z" transform="translate(0 -6.185)"/>
        <path id="Trazado_5724" data-name="Trazado 5724" d="M119.261,34.841a7.006,7.006,0,0,1-5.2-5.2,2.195,2.195,0,0,0-4.268,0,7,7,0,0,1-5.2,5.2,2.195,2.195,0,0,0,0,4.268,7.006,7.006,0,0,1,5.2,5.2,2.195,2.195,0,0,0,4.268,0,7,7,0,0,1,5.2-5.2,2.195,2.195,0,0,0,0-4.269ZM111.928,39.8a10.792,10.792,0,0,0-2.825-2.825,10.781,10.781,0,0,0,2.825-2.825,10.785,10.785,0,0,0,2.825,2.825A10.781,10.781,0,0,0,111.928,39.8Z" transform="translate(-16.493 -9.675)"/>
        <path id="Trazado_5725" data-name="Trazado 5725" d="M45.79,90.365a1.919,1.919,0,0,0,1.919-1.919V85.888A12.167,12.167,0,0,0,35.556,73.734H33a1.919,1.919,0,1,0,0,3.838h2.559a8.325,8.325,0,0,1,8.315,8.315v2.559A1.919,1.919,0,0,0,45.79,90.365Z" transform="translate(-4.981 -17.01)"/>
      </g>
    </g>
  </g>
</svg>
