<svg xmlns="http://www.w3.org/2000/svg" width="65.08" height="194.233" viewBox="0 0 65.08 194.233">
  <g id="Grupo_22598" data-name="Grupo 22598" transform="translate(-243.975 -25.689)">
    <g id="Grupo_22594" data-name="Grupo 22594" transform="translate(243.975 178.434)" opacity="0.15" style="mix-blend-mode: multiply;isolation: isolate">
      <path id="Trazado_5553" data-name="Trazado 5553" d="M302.3,264.38l-15.191,8.771c-5.829,3.366-15.366,3.366-21.194,0l-15.191-8.771c-9-5.2-9-13.7,0-18.9l15.191-8.771c5.829-3.365,15.366-3.365,21.194,0L302.3,245.48C311.306,250.677,311.306,259.182,302.3,264.38Z" transform="translate(-243.975 -234.185)" fill="#7974f2"/>
    </g>
    <g id="Grupo_22597" data-name="Grupo 22597" transform="translate(248.774 25.69)">
      <g id="Grupo_22595" data-name="Grupo 22595" transform="translate(0 127.873)">
        <path id="Trazado_5554" data-name="Trazado 5554" d="M309.665,234.085c0-12.161-7.468-24.876-18.192-31.067-5.31-3.065-9.837-3.539-13.025-1.7l-21.136,12.162c3.188-1.836,7.719-1.355,13.029,1.71,10.724,6.191,18.192,18.906,18.191,31.067,0,6.191-1.867,10.365-5.074,12.217l21.124-12.164C307.795,244.455,309.665,240.28,309.665,234.085Z" transform="translate(-252.341 -200.236)" fill="#3b37ad"/>
        <path id="Trazado_5555" data-name="Trazado 5555" d="M268.527,219.625c-10.533-6.081-18-1.989-18,10.172,0,12.382,7.468,25.317,18,31.4,10.724,6.191,18.192,1.88,18.192-10.5C286.719,238.532,279.251,225.817,268.527,219.625Z" transform="translate(-250.526 -204.676)" fill="#8a86f2"/>
      </g>
      <g id="Grupo_22596" data-name="Grupo 22596" transform="translate(0.592)">
        <path id="Trazado_5556" data-name="Trazado 5556" d="M280.178,25.69l36.648,21.158-6.109,100.439-24.432-14.106Z" transform="translate(-259.047 -25.69)" fill="#8a86f2"/>
        <path id="Trazado_5557" data-name="Trazado 5557" d="M251.334,42.3l36.649,21.158L281.873,163.9l-24.432-14.106Z" transform="translate(-251.334 -30.131)" fill="#8a86f2"/>
        <path id="Trazado_5558" data-name="Trazado 5558" d="M272.465,25.69,251.334,37.858l36.649,21.158,21.132-12.168Z" transform="translate(-251.334 -25.69)" fill="#6a66f2"/>
        <path id="Trazado_5559" data-name="Trazado 5559" d="M314.151,155.01,293.02,167.178l6.109-100.439,21.132-12.168Z" transform="translate(-262.48 -33.412)" fill="#4642ba"/>
      </g>
    </g>
  </g>
</svg>
