<svg xmlns="http://www.w3.org/2000/svg" width="59.743" height="57.837" viewBox="0 0 59.743 57.837">
  <g id="conversacion" transform="translate(0)">
    <g id="Grupo_23384" data-name="Grupo 23384" transform="translate(0.877 0.877)">
      <path id="Trazado_6399" data-name="Trazado 6399" d="M188.905,324.372h7.545c2.461.738,4.594,2.18,4.594,3.84v9.853H184.311v-9.853C184.311,326.552,186.441,325.11,188.905,324.372Z" transform="translate(-163.681 -288.352)" fill="#ebd2ff" fill-rule="evenodd"/>
      <path id="Trazado_6400" data-name="Trazado 6400" d="M268.673,328.212v9.853H271.5v-9.853c0-1.66-2.133-3.1-4.595-3.84h-2.831C266.54,325.11,268.673,326.552,268.673,328.212Z" transform="translate(-234.141 -288.352)" fill="#d7bef0" fill-rule="evenodd"/>
      <path id="Trazado_6401" data-name="Trazado 6401" d="M94.281,432.559H98.74l3.645-.509,3.615.509h14.306l3.556-.7,3.7.7h4.462v6.827H94.281Z" transform="translate(-84.156 -383.298)" fill="#d09080" fill-rule="evenodd"/>
      <path id="Trazado_6402" data-name="Trazado 6402" d="M7.512,351.172V336.652A3.258,3.258,0,0,1,10.76,333.4h5.365c.093,0,.185,0,.275.01a2.5,2.5,0,0,1,2.229.976L23,340.171a.991.991,0,0,0,.893.443h5.467a2.487,2.487,0,1,1,0,4.975H22.1a2.48,2.48,0,0,1-1.981-.989l-.741-.979v8.795H8.752a1.533,1.533,0,0,1-1.24-1.244Z" transform="translate(-7.512 -296.328)" fill="#ff6978" fill-rule="evenodd"/>
      <path id="Trazado_6403" data-name="Trazado 6403" d="M320.305,351.172V336.652a3.259,3.259,0,0,0-3.251-3.248h-5.362q-.139,0-.278.01a2.5,2.5,0,0,0-2.229.976l-4.363,5.782a1.006,1.006,0,0,1-.893.443h-5.467a2.487,2.487,0,1,0,0,4.975h7.257a2.487,2.487,0,0,0,1.985-.989l.738-.979v8.795h10.621a1.542,1.542,0,0,0,1.244-1.244Z" transform="translate(-262.312 -296.328)" fill="#ccf49f" fill-rule="evenodd"/>
      <path id="Trazado_6404" data-name="Trazado 6404" d="M203.525,90.14h14.249l3.605,3.605c.288.284.615.119.615-.258V90.14a3.35,3.35,0,0,0,3.337-3.341V78.371a3.347,3.347,0,0,0-3.337-3.337h-18.47a3.35,3.35,0,0,0-3.341,3.337V86.8A3.353,3.353,0,0,0,203.525,90.14Z" transform="translate(-177.702 -68.108)" fill="#ecf4ff" fill-rule="evenodd"/>
      <path id="Trazado_6405" data-name="Trazado 6405" d="M20.275,34.344H35.265A4.445,4.445,0,0,0,39.7,29.912v-9.8a4.445,4.445,0,0,0-4.432-4.429H16.054a4.445,4.445,0,0,0-4.432,4.429v9.8a4.445,4.445,0,0,0,4.432,4.432v3.351a.345.345,0,0,0,.615.255Z" transform="translate(-11.142 -15.679)" fill="#ecf4ff" fill-rule="evenodd"/>
      <path id="Trazado_6406" data-name="Trazado 6406" d="M224.968,244.457a4.723,4.723,0,0,1-9.447,0V239.4a2.651,2.651,0,0,1,2.646-2.643h6.1a.632.632,0,0,1,.7.7Z" transform="translate(-191.249 -210.958)" fill="#ffcbbe" fill-rule="evenodd"/>
      <path id="Trazado_6407" data-name="Trazado 6407" d="M215.521,239.395v1.525h9.447v-3.466a.632.632,0,0,0-.7-.7h-6.1A2.651,2.651,0,0,0,215.521,239.395Z" transform="translate(-191.249 -210.956)" fill="#ffe5a0" fill-rule="evenodd"/>
      <path id="Trazado_6408" data-name="Trazado 6408" d="M17.858,244.457a4.723,4.723,0,0,0,9.447,0V239.4a2.651,2.651,0,0,0-2.646-2.643H20.5a2.65,2.65,0,0,0-2.643,2.643v5.061Z" transform="translate(-16.651 -210.958)" fill="#ffcbbe" fill-rule="evenodd"/>
      <path id="Trazado_6409" data-name="Trazado 6409" d="M422.656,244.457a4.722,4.722,0,1,1-9.443,0V239.4a2.648,2.648,0,0,1,2.643-2.643h4.158a2.648,2.648,0,0,1,2.643,2.643Z" transform="translate(-365.873 -210.958)" fill="#c68b87" fill-rule="evenodd"/>
      <path id="Trazado_6410" data-name="Trazado 6410" d="M447.669,264.463a4.736,4.736,0,0,1-4.72,4.723,4.8,4.8,0,0,1-1.419-.218,4.747,4.747,0,0,0,3.285-4.045,6.32,6.32,0,0,0,2.851-.294l0-5.226Z" transform="translate(-390.886 -230.963)" fill="#bd7d79" fill-rule="evenodd"/>
      <path id="Trazado_6411" data-name="Trazado 6411" d="M27.3,239.4v1.839a3.545,3.545,0,0,1-3.063-.275c-.5-.281-.582-.284-.642.172-.172,1.326-.771,4.988-5.736,3.49l-.007-5.226a2.65,2.65,0,0,1,2.643-2.643h4.158A2.651,2.651,0,0,1,27.3,239.4Z" transform="translate(-16.651 -210.957)" fill="#c68b87" fill-rule="evenodd"/>
      <path id="Trazado_6412" data-name="Trazado 6412" d="M413.212,239.4v1.839a3.539,3.539,0,0,0,3.06-.275c.5-.281.582-.284.642.172.172,1.326.771,4.988,5.739,3.49l0-5.226a2.646,2.646,0,0,0-2.643-2.643h-4.158A2.648,2.648,0,0,0,413.212,239.4Z" transform="translate(-365.873 -210.957)" fill="#477b9e" fill-rule="evenodd"/>
      <path id="Trazado_6413" data-name="Trazado 6413" d="M449.871,239.395v5.061a4.29,4.29,0,0,1-.023.46,6.32,6.32,0,0,0,2.851-.294l0-5.226a2.65,2.65,0,0,0-2.458-2.636,1.724,1.724,0,0,0-.185-.007h-2.831A2.648,2.648,0,0,1,449.871,239.395Z" transform="translate(-395.919 -210.956)" fill="#365e7d" fill-rule="evenodd"/>
      <path id="Trazado_6414" data-name="Trazado 6414" d="M49.514,277.233a4.744,4.744,0,0,1-3.308,4.505,4.72,4.72,0,0,0,6.139-4.505v-3.222a3.5,3.5,0,0,1-2.831-.152v3.374Z" transform="translate(-41.691 -243.733)" fill="#f7beaf" fill-rule="evenodd"/>
      <path id="Trazado_6415" data-name="Trazado 6415" d="M51.875,236.753a2.651,2.651,0,0,1,2.646,2.643v1.687a3.5,3.5,0,0,0,2.831.152V239.4a2.651,2.651,0,0,0-2.646-2.643Z" transform="translate(-46.698 -210.957)" fill="#bd7d79" fill-rule="evenodd"/>
      <path id="Trazado_6416" data-name="Trazado 6416" d="M247.176,276.006a4.743,4.743,0,0,1-3.308,4.505,4.72,4.72,0,0,0,6.139-4.505V272.47h-2.831v3.536Z" transform="translate(-216.289 -242.506)" fill="#f7beaf" fill-rule="evenodd"/>
      <path id="Trazado_6417" data-name="Trazado 6417" d="M266.881,237.454v3.466h2.831v-3.466a.632.632,0,0,0-.7-.7h-2.831A.632.632,0,0,1,266.881,237.454Z" transform="translate(-235.994 -210.957)" fill="#f2ce7e" fill-rule="evenodd"/>
      <path id="Trazado_6418" data-name="Trazado 6418" d="M85.244,392.131a.189.189,0,0,0-.344.116v11.974h2.831v-8.795Z" transform="translate(-75.87 -348.133)" fill="#cf4351" fill-rule="evenodd"/>
      <path id="Trazado_6419" data-name="Trazado 6419" d="M470.837,336.812v14.521a1.542,1.542,0,0,1-1.244,1.244h2.832a1.542,1.542,0,0,0,1.244-1.244V336.812a3.264,3.264,0,0,0-2.881-3.228,4.688,4.688,0,0,1-1.141.721A3.248,3.248,0,0,1,470.837,336.812Z" transform="translate(-415.675 -296.489)" fill="#b3e59f" fill-rule="evenodd"/>
      <path id="Trazado_6420" data-name="Trazado 6420" d="M200.5,87.523a3.351,3.351,0,0,0,3.3,2.868h14.249L221.656,94c.288.284.615.119.615-.258V90.391a3.35,3.35,0,0,0,3.337-3.341V78.622a3.349,3.349,0,0,0-2.864-3.3,3.194,3.194,0,0,1,.033.473v8.428a3.347,3.347,0,0,1-3.338,3.337H200.97A3.176,3.176,0,0,1,200.5,87.523Z" transform="translate(-177.978 -68.359)" fill="#ddeafb" fill-rule="evenodd"/>
      <path id="Trazado_6421" data-name="Trazado 6421" d="M38.545,28.733a4.442,4.442,0,0,1-4.432,4.432H14.9a4.412,4.412,0,0,1-1.379-.222A4.449,4.449,0,0,0,17.733,36v3.351a.345.345,0,0,0,.615.255L21.953,36h14.99a4.445,4.445,0,0,0,4.432-4.432v-9.8a4.455,4.455,0,0,0-3.053-4.211,4.444,4.444,0,0,1,.222,1.379v9.8Z" transform="translate(-12.821 -17.332)" fill="#ddeafb" fill-rule="evenodd"/>
      <path id="Trazado_6422" data-name="Trazado 6422" d="M378.571,437.843H381.4v6.827h-2.832Z" transform="translate(-335.274 -388.582)" fill="#be694f" fill-rule="evenodd"/>
    </g>
    <path id="Trazado_6423" data-name="Trazado 6423" d="M3.2,43.863a3.848,3.848,0,0,0,7.459-1.32V40.4a4.407,4.407,0,0,1-2.077-.337,7.16,7.16,0,0,1-.179.708,4.6,4.6,0,0,1-1.462,2.292,4.268,4.268,0,0,1-3.013.873,6.591,6.591,0,0,1-.728-.076Zm22.671-5.732H33.56V35.713H27.636a1.779,1.779,0,0,0-1.77,1.77Zm7.693,1.75H25.866v2.663a3.847,3.847,0,0,0,7.693,0V39.881ZM57.54,45.722a4.167,4.167,0,0,1,1.224.986,4.1,4.1,0,0,1,.979,2.659v5.9a.875.875,0,0,1-1.75,0v-5.9a2.363,2.363,0,0,0-.562-1.531,2.4,2.4,0,0,0-1.211-.767A5.568,5.568,0,0,1,49.559,47a1.675,1.675,0,0,0-.516.146,1.6,1.6,0,0,0-.6.486l-4.7,6.225a.879.879,0,0,1-.7.351H37.026a1.612,1.612,0,1,0,0,3.225H44.22A1.573,1.573,0,0,0,45,57.262a5.184,5.184,0,0,0,1.333-1.492l3.112-4.118A.873.873,0,1,1,50.842,52.7l-2.96,3.923v7.627H57.993V59.23a.875.875,0,0,1,1.75,0v5.9A.872.872,0,0,1,58.87,66H.877A.875.875,0,0,1,0,65.131v-5.9a.875.875,0,0,1,1.75,0v5.024H11.865V56.627L8.9,52.7a.874.874,0,0,1,1.4-1.052l3.043,4.029c.278.367.556.738.833,1.108a1.61,1.61,0,0,0,.569.473,1.531,1.531,0,0,0,.731.169H22.72a1.612,1.612,0,1,0,0-3.225H16.694a.874.874,0,0,1-.7-.351L11.3,47.63A1.618,1.618,0,0,0,10.185,47a5.575,5.575,0,0,1-6.662.073,2.4,2.4,0,0,0-1.2.747,2.369,2.369,0,0,0-.576,1.548v5.9a.875.875,0,0,1-1.75,0v-5.9a4.111,4.111,0,0,1,1.005-2.689,4.212,4.212,0,0,1,1.2-.956,5.55,5.55,0,0,1-1-3.179V37.483a3.523,3.523,0,0,1,3.516-3.519H8.884A3.524,3.524,0,0,1,12.4,37.483v5.061A5.56,5.56,0,0,1,11.5,45.59a3.388,3.388,0,0,1,1.194.989l4.436,5.874h3.5V48.9a3.65,3.65,0,0,1,1.4-2.686,9.2,9.2,0,0,1,2.52-1.525,5.556,5.556,0,0,1-.43-2.15V37.483a3.524,3.524,0,0,1,3.519-3.519h6.8a.878.878,0,0,1,.877.877v7.7a5.6,5.6,0,0,1-.387,2.041,9.523,9.523,0,0,1,2.706,1.554A3.708,3.708,0,0,1,39.113,48.9v3.549h3.5l4.436-5.874a3.35,3.35,0,0,1,1.2-.986,5.555,5.555,0,0,1-.91-3.05V37.483a3.524,3.524,0,0,1,3.519-3.519h4.158a3.523,3.523,0,0,1,3.519,3.519v5.061a5.575,5.575,0,0,1-1,3.179Zm-.992-1.859a6.509,6.509,0,0,1-.728.076,4.265,4.265,0,0,1-3.01-.873,4.586,4.586,0,0,1-1.465-2.292,7.146,7.146,0,0,1-.175-.708,4.424,4.424,0,0,1-2.081.337v2.14a3.848,3.848,0,0,0,7.459,1.32ZM49.089,38.65a2.852,2.852,0,0,0,2.173-.645.883.883,0,0,1,.569-.245.87.87,0,0,1,.913.83,6.967,6.967,0,0,0,.271,1.67,2.9,2.9,0,0,0,.886,1.445,2.625,2.625,0,0,0,1.836.489,6.3,6.3,0,0,0,1.049-.152V37.482a1.785,1.785,0,0,0-1.77-1.77H50.859a1.785,1.785,0,0,0-1.77,1.77Zm-38.435,0V37.482a1.779,1.779,0,0,0-1.77-1.77H4.727a1.779,1.779,0,0,0-1.766,1.77v4.561a6.229,6.229,0,0,0,1.045.152,2.625,2.625,0,0,0,1.836-.489,2.926,2.926,0,0,0,.89-1.445A6.807,6.807,0,0,0,7,38.591.875.875,0,0,1,8.474,38,2.854,2.854,0,0,0,10.654,38.65ZM25.482,46.2a7.6,7.6,0,0,0-2.3,1.32A2,2,0,0,0,22.38,48.9v3.549h.341a3.363,3.363,0,0,1,2.951,4.978h8.4a3.366,3.366,0,0,1,2.954-4.978h.337V48.9a2.061,2.061,0,0,0-.867-1.439,8.138,8.138,0,0,0-2.474-1.359c-.112.136-.232.268-.354.39a5.578,5.578,0,0,1-7.909,0Q25.616,46.352,25.482,46.2ZM7.293,14.646a.875.875,0,0,1,0-1.75h16.2a.875.875,0,0,1,0,1.75Zm0,9.208a.877.877,0,0,1,0-1.753h8.1a.877.877,0,1,1,0,1.753Zm0-4.6a.875.875,0,0,1,0-1.75h16.2a.875.875,0,0,1,0,1.75Zm17.1,9.331a2.419,2.419,0,0,0,.566.893A2.446,2.446,0,0,0,26.7,30.2h5.143a.875.875,0,0,1,0,1.75H26.7a4.18,4.18,0,0,1-2.98-1.244,4.253,4.253,0,0,1-1.144-2.123h-12.2L6.41,32.544a.877.877,0,0,1-1.5-.615v-3.42A5.324,5.324,0,0,1,.483,23.276v-9.8A5.319,5.319,0,0,1,5.789,8.167H25a5.319,5.319,0,0,1,5.305,5.305v1.621H45.17a4.224,4.224,0,0,1,4.214,4.214v8.428a4.226,4.226,0,0,1-3.341,4.121V35.3a.873.873,0,0,1-1.492.619l-3.966-3.966h-4.78a.875.875,0,1,1,0-1.75h5.143a.864.864,0,0,1,.622.261l2.722,2.722V31.076a.876.876,0,0,1,.877-.877,2.473,2.473,0,0,0,2.464-2.464V19.307a2.473,2.473,0,0,0-2.464-2.464H30.3v6.433A5.319,5.319,0,0,1,25,28.582h-.609Zm-14.382-1.75H25a3.568,3.568,0,0,0,3.556-3.556v-9.8A3.569,3.569,0,0,0,25,9.917H5.788a3.569,3.569,0,0,0-3.556,3.556v9.8a3.569,3.569,0,0,0,3.556,3.556.875.875,0,0,1,.873.877v2.107L9.39,27.09a.869.869,0,0,1,.619-.258ZM46.132,59.18H13.614v5.074H46.132V59.18Z" transform="translate(0 -8.167)"/>
  </g>
</svg>
