<svg xmlns="http://www.w3.org/2000/svg" width="60" height="60" viewBox="0 0 60 60">
  <g id="periodico" transform="translate(0)">
    <g id="Grupo_23378" data-name="Grupo 23378" transform="translate(0.879 8.218)">
      <path id="Trazado_6380" data-name="Trazado 6380" d="M61.125,121.033a4.532,4.532,0,0,1-4.617-4.441V72.5a2.368,2.368,0,0,0-2.368-2.368H9.868A2.368,2.368,0,0,0,7.5,72.5v44.094a4.532,4.532,0,0,0,4.617,4.441Z" transform="translate(-7.5 -70.13)" fill="#e7ecf6"/>
    </g>
    <g id="Grupo_23379" data-name="Grupo 23379" transform="translate(4.667 32.486)">
      <path id="Trazado_6381" data-name="Trazado 6381" d="M39.825,277.213H56.4v18.941H39.825Z" transform="translate(-39.825 -277.213)" fill="#df75a5"/>
    </g>
    <g id="Grupo_23380" data-name="Grupo 23380" transform="translate(4.667 11.888)">
      <path id="Trazado_6382" data-name="Trazado 6382" d="M39.825,101.445H81.257v15.863H39.825Z" transform="translate(-39.825 -101.445)" fill="#ffe07d"/>
    </g>
    <g id="Grupo_23381" data-name="Grupo 23381" transform="translate(5.732 0.879)">
      <path id="Trazado_6383" data-name="Trazado 6383" d="M100,7.5a2.308,2.308,0,0,0-2.308,2.308v41.61a2.368,2.368,0,0,1-2.368,2.368H93.072V17.207A2.368,2.368,0,0,0,90.7,14.839H48.917V9.808A2.308,2.308,0,0,1,51.225,7.5Z" transform="translate(-48.917 -7.5)" fill="#d8e2f1"/>
    </g>
    <g id="Grupo_23382" data-name="Grupo 23382" transform="translate(49.887 0.879)">
      <path id="Trazado_6384" data-name="Trazado 6384" d="M425.707,61.3a4.62,4.62,0,0,0,9.233,0V9.864A2.345,2.345,0,0,0,432.716,7.5a2.308,2.308,0,0,0-2.392,2.307v41.61a2.368,2.368,0,0,1-2.368,2.368h-2.249Z" transform="translate(-425.707 -7.5)" fill="#a2b9e2"/>
    </g>
    <g id="Grupo_23383" data-name="Grupo 23383" transform="translate(0)">
      <path id="Trazado_6385" data-name="Trazado 6385" d="M235.157,269.713H215.033a.879.879,0,0,0,0,1.758h20.124a.879.879,0,0,0,0-1.758Z" transform="translate(-189.058 -238.106)"/>
      <path id="Trazado_6386" data-name="Trazado 6386" d="M235.157,302.039H215.033a.879.879,0,0,0,0,1.758h20.124a.879.879,0,0,0,0-1.758Z" transform="translate(-189.058 -266.644)"/>
      <path id="Trazado_6387" data-name="Trazado 6387" d="M235.157,334.364H215.033a.879.879,0,1,0,0,1.758h20.124a.879.879,0,0,0,0-1.758Z" transform="translate(-189.058 -295.181)"/>
      <path id="Trazado_6388" data-name="Trazado 6388" d="M235.157,366.689H215.033a.879.879,0,1,0,0,1.758h20.124a.879.879,0,0,0,0-1.758Z" transform="translate(-189.058 -323.718)"/>
      <path id="Trazado_6389" data-name="Trazado 6389" d="M235.157,399.014H215.033a.879.879,0,0,0,0,1.758h20.124a.879.879,0,0,0,0-1.758Z" transform="translate(-189.058 -352.255)"/>
      <path id="Trazado_6390" data-name="Trazado 6390" d="M235.157,431.339H215.033a.879.879,0,1,0,0,1.758h20.124a.879.879,0,0,0,0-1.758Z" transform="translate(-189.058 -380.791)"/>
      <path id="Trazado_6391" data-name="Trazado 6391" d="M33.2,465.423H74.636a.879.879,0,0,0,0-1.758H33.2a.879.879,0,0,0,0,1.758Z" transform="translate(-28.537 -409.329)"/>
      <path id="Trazado_6392" data-name="Trazado 6392" d="M32.325,289.532a.879.879,0,0,0,.879.879H49.777a.879.879,0,0,0,.879-.879V270.592a.879.879,0,0,0-.879-.879H33.2a.879.879,0,0,0-.879.879Zm1.758-18.062H48.9v17.183H34.083Z" transform="translate(-28.537 -238.106)"/>
      <path id="Trazado_6393" data-name="Trazado 6393" d="M75.515,94.824a.879.879,0,0,0-.879-.879H33.2a.879.879,0,0,0-.879.879v15.863a.879.879,0,0,0,.879.879H74.636a.879.879,0,0,0,.879-.879Zm-1.758,14.984H34.083V95.7H73.757Z" transform="translate(-28.537 -82.936)"/>
      <path id="Trazado_6394" data-name="Trazado 6394" d="M62.8,136.314a.879.879,0,0,0,.879-.879v-5.452l3.99,5.779a.991.991,0,0,0,1.118.416,1.033,1.033,0,0,0,.7-1.03l-.077-8.007a.879.879,0,0,0-.879-.87h-.009a.879.879,0,0,0-.87.887l.054,5.562-4.181-6.054a.879.879,0,0,0-1.6.5v8.271A.879.879,0,0,0,62.8,136.314Z" transform="translate(-54.667 -111.473)"/>
      <path id="Trazado_6395" data-name="Trazado 6395" d="M144.066,136.315h3.492a.879.879,0,1,0,0-1.758h-2.613v-2.385H147.3a.879.879,0,0,0,0-1.758h-2.355v-2.385h2.613a.879.879,0,1,0,0-1.758h-3.492a.879.879,0,0,0-.879.879v8.286A.879.879,0,0,0,144.066,136.315Z" transform="translate(-126.407 -111.474)"/>
      <path id="Trazado_6396" data-name="Trazado 6396" d="M314.129,136.314a3.262,3.262,0,0,0,3.332-2.52c.2-1.093-.309-2.523-2.309-3.261-1.043-.385-2.012-.8-2.283-.923a.728.728,0,0,1-.278-.7.983.983,0,0,1,.769-.792,2.919,2.919,0,0,1,2.425.556.879.879,0,0,0,1.127-1.349,4.664,4.664,0,0,0-4.059-.89,2.759,2.759,0,0,0-2,2.225,2.478,2.478,0,0,0,1.105,2.453.862.862,0,0,0,.122.066c.048.021,1.184.527,2.465,1,.846.312,1.279.787,1.187,1.3a1.555,1.555,0,0,1-1.6,1.072,3.044,3.044,0,0,1-2.236-.94.879.879,0,1,0-1.3,1.18A4.828,4.828,0,0,0,314.129,136.314Z" transform="translate(-273.992 -111.473)"/>
      <path id="Trazado_6397" data-name="Trazado 6397" d="M206.937,135.48a.869.869,0,0,0,.034.124,1.067,1.067,0,0,0,1,.709h.007a1.067,1.067,0,0,0,1-.723l.008-.023,1.682-5.433,1.674,5.434c0,.012.008.024.012.036a1.067,1.067,0,0,0,1,.709h.007a1.067,1.067,0,0,0,1-.723.875.875,0,0,0,.03-.111l1.621-8.144a.879.879,0,0,0-1.724-.343l-1.081,5.433-1.705-5.536-.005,0a.878.878,0,0,0-1.674.013l-1.709,5.522-1.078-5.448a.879.879,0,0,0-1.724.341Z" transform="translate(-181.247 -111.472)"/>
      <path id="Trazado_6398" data-name="Trazado 6398" d="M56.928,0l-.116,0h-16.2a.879.879,0,1,0,0,1.758H53.964a3.168,3.168,0,0,0-.339,1.43V23.144a.879.879,0,1,0,1.758,0V3.187a1.452,1.452,0,0,1,1.457-1.431,1.491,1.491,0,0,1,1.4,1.486V54.68A3.657,3.657,0,0,1,54.5,58.242h0a3.657,3.657,0,0,1-3.737-3.562V48.043h1.37A3.25,3.25,0,0,0,55.383,44.8V27.246a.879.879,0,0,0-1.758,0V44.8a1.49,1.49,0,0,1-1.488,1.488h-1.37v-35.7a3.25,3.25,0,0,0-3.247-3.246H6.612V3.187A1.431,1.431,0,0,1,8.04,1.758H36.514a.879.879,0,1,0,0-1.758H8.04A3.191,3.191,0,0,0,4.854,3.187V7.339H3.246A3.25,3.25,0,0,0,0,10.585V36.5a.879.879,0,1,0,1.758,0V10.586A1.49,1.49,0,0,1,3.246,9.1H47.519a1.491,1.491,0,0,1,1.489,1.488V54.68a5.207,5.207,0,0,0,1.417,3.563H5.5A3.658,3.658,0,0,1,1.758,54.68V40.6A.879.879,0,1,0,0,40.6V54.68A5.416,5.416,0,0,0,5.5,60H54.5A5.416,5.416,0,0,0,60,54.68V3.243A3.2,3.2,0,0,0,56.928,0Z" transform="translate(0 0)"/>
    </g>
  </g>
</svg>
