<svg id="Grupo_23075" data-name="Grupo 23075" xmlns="http://www.w3.org/2000/svg" xmlns:xlink="http://www.w3.org/1999/xlink" width="64" height="60" viewBox="0 0 64 60">
  <defs>
    <clipPath id="clip-path">
      <ellipse id="Elipse_1286" data-name="Elipse 1286" cx="32" cy="30" rx="32" ry="30" fill="#cbe2ff"/>
    </clipPath>
  </defs>
  <ellipse id="Elipse_1287" data-name="Elipse 1287" cx="32" cy="30" rx="32" ry="30" fill="#cbe2ff"/>
  <g id="Enmascarar_grupo_6" data-name="Enmascarar grupo 6" transform="translate(0)" clip-path="url(#clip-path)">
    <g id="cooperation_1_" data-name="cooperation (1)" transform="translate(0.06 0)">
      <g id="Grupo_23074" data-name="Grupo 23074" transform="translate(0)">
        <g id="Grupo_23052" data-name="Grupo 23052" transform="translate(8.221 31.257)">
          <g id="Grupo_23051" data-name="Grupo 23051">
            <g id="Grupo_23050" data-name="Grupo 23050">
              <g id="Grupo_23049" data-name="Grupo 23049">
                <g id="Grupo_23048" data-name="Grupo 23048">
                  <g id="Grupo_23047" data-name="Grupo 23047">
                    <g id="Grupo_23044" data-name="Grupo 23044">
                      <path id="Trazado_6145" data-name="Trazado 6145" d="M46.689,46.442,33.966,39.4a1.475,1.475,0,0,1-.574-2.1l.776-1.224-3.068-1.7c-2.024-1.085-2.97-1.286-4.8-.626l-1.99.719a4.5,4.5,0,0,1-3.686-.287L15.3,31.257,7.739,43.189l6.82,3.762a4.158,4.158,0,0,1,1.2.989l2.3,2.785a26.243,26.243,0,0,0,5.569,4.117l5.254,2.909a2.519,2.519,0,0,0,2.689-.167Z" transform="translate(-7.739 -31.257)" fill="#f9eae2"/>
                      <path id="Trazado_6146" data-name="Trazado 6146" d="M47.875,47.792,42.324,44.72a.154.154,0,0,0-.2.045.131.131,0,0,0,0,.144,2.21,2.21,0,0,1-.075,2.509,2.539,2.539,0,0,1-3.251.64l-.83-.46a.375.375,0,0,0-.5.12.317.317,0,0,0-.02.3,2.619,2.619,0,0,1-.094,2.092,1.989,1.989,0,0,1-2.843.869l-.361-.2a.72.72,0,0,0-.781.056.278.278,0,0,0-.294.376,2.207,2.207,0,0,1-.273,1.876,2.659,2.659,0,0,1-3.474.761l-.978-.542a.453.453,0,0,0-.562.1.379.379,0,0,0-.078.345,2.2,2.2,0,0,1-.27,1.779,2.518,2.518,0,0,1-1.8,1.125l5.445,3.015a2.581,2.581,0,0,0,3.342-.7,2.194,2.194,0,0,0-.808-3.19l2.69,1.489a2.581,2.581,0,0,0,3.342-.7,2.194,2.194,0,0,0-.808-3.19l1.827,1.011a2.534,2.534,0,0,0,3.338-.8,2.2,2.2,0,0,0-.854-3.12l2.185,1.21a2.581,2.581,0,0,0,3.341-.7,2.194,2.194,0,0,0-.808-3.19Z" transform="translate(-6.485 -31.257)" fill="#f5dbcc"/>
                    </g>
                    <g id="Grupo_23045" data-name="Grupo 23045" transform="translate(21.692 0.713)">
                      <path id="Trazado_6147" data-name="Trazado 6147" d="M46.4,31.969l-4.09,2.222a4.5,4.5,0,0,1-3.687.287l-2.244-.824a3.845,3.845,0,0,0-2.2-.13l-3.438.813A3.421,3.421,0,0,0,28.011,37.6v4.289a1.14,1.14,0,0,0,1.175,1.1,3.431,3.431,0,0,0,3.544-3.309V39.5l14.717,8.145a4.2,4.2,0,0,1,.929-.7L53.96,43.9Z" transform="translate(-28.011 -31.969)" fill="#ecb784"/>
                    </g>
                    <g id="Grupo_23046" data-name="Grupo 23046" transform="translate(4.014 14.617)">
                      <path id="Trazado_6148" data-name="Trazado 6148" d="M17.284,49.477l-1.38,1.8a2.547,2.547,0,0,1-3.4.522,2.182,2.182,0,0,1-.558-3.177l1.38-1.8a2.547,2.547,0,0,1,3.4-.522A2.182,2.182,0,0,1,17.284,49.477Z" transform="translate(-11.49 -45.873)" fill="#ecb784"/>
                      <path id="Trazado_6149" data-name="Trazado 6149" d="M22.505,50.15l-2.9,3.778a2.547,2.547,0,0,1-3.4.522,2.182,2.182,0,0,1-.558-3.177l2.9-3.778a2.547,2.547,0,0,1,3.4-.522,2.182,2.182,0,0,1,.558,3.177Z" transform="translate(-11.231 -45.873)" fill="#ecb784"/>
                      <path id="Trazado_6150" data-name="Trazado 6150" d="M26.2,52.805l-2.9,3.778a2.547,2.547,0,0,1-3.4.522,2.182,2.182,0,0,1-.558-3.177l2.9-3.778a2.547,2.547,0,0,1,3.4-.522A2.182,2.182,0,0,1,26.2,52.805Z" transform="translate(-10.972 -45.873)" fill="#ecb784"/>
                      <path id="Trazado_6151" data-name="Trazado 6151" d="M28.569,57.139,27.6,58.4a2.547,2.547,0,0,1-3.4.522,2.182,2.182,0,0,1-.558-3.177l.965-1.256a2.547,2.547,0,0,1,3.4-.522A2.182,2.182,0,0,1,28.569,57.139Z" transform="translate(-10.67 -45.873)" fill="#ecb784"/>
                    </g>
                  </g>
                </g>
              </g>
            </g>
          </g>
        </g>
        <g id="Grupo_23055" data-name="Grupo 23055" transform="translate(0 21.132)">
          <g id="Grupo_23053" data-name="Grupo 23053" transform="translate(44.074 3.802)">
            <path id="Trazado_6152" data-name="Trazado 6152" d="M49.08,44.363a8.827,8.827,0,0,0,4.662-7.669V25.981l-.709-1.047L42.249,30.941a1.856,1.856,0,0,0-.718,2.634l7.023,11.078Z" transform="translate(-41.244 -24.934)" fill="#407093"/>
            <path id="Trazado_6153" data-name="Trazado 6153" d="M50.193,46.992a2.2,2.2,0,0,0,.847,0C50.777,47,50.491,47,50.193,46.992Z" transform="translate(-40.617 -24.934)" fill="#407093"/>
          </g>
          <path id="Trazado_6154" data-name="Trazado 6154" d="M52.566,24.934V36.694A8.828,8.828,0,0,1,47.9,44.363L49,46.088a2.142,2.142,0,0,0,2.827.672L59.4,42.541a2.632,2.632,0,0,0,1.39-2.287v-18.1a1.1,1.1,0,0,0-1.658-.88Z" transform="translate(3.296 -21.132)" fill="#365e7d"/>
          <g id="Grupo_23054" data-name="Grupo 23054" transform="translate(0 0)">
            <path id="Trazado_6155" data-name="Trazado 6155" d="M1.714,21.278,19.06,30.941a1.856,1.856,0,0,1,.717,2.634L11.846,46.087a2.142,2.142,0,0,1-2.827.672L1.446,42.541a2.632,2.632,0,0,1-1.39-2.287v-18.1a1.1,1.1,0,0,1,1.658-.88Z" transform="translate(-0.056 -21.132)" fill="#407093"/>
          </g>
        </g>
        <g id="Grupo_23073" data-name="Grupo 23073" transform="translate(18.283)">
          <g id="Grupo_23069" data-name="Grupo 23069">
            <g id="Grupo_23068" data-name="Grupo 23068">
              <g id="Grupo_23067" data-name="Grupo 23067">
                <g id="Grupo_23066" data-name="Grupo 23066">
                  <g id="Grupo_23065" data-name="Grupo 23065">
                    <g id="Grupo_23064" data-name="Grupo 23064">
                      <g id="Grupo_23063" data-name="Grupo 23063">
                        <g id="Grupo_23062" data-name="Grupo 23062">
                          <g id="Grupo_23061" data-name="Grupo 23061">
                            <g id="Grupo_23060" data-name="Grupo 23060">
                              <g id="Grupo_23057" data-name="Grupo 23057" transform="translate(8.011)">
                                <g id="Grupo_23056" data-name="Grupo 23056">
                                  <path id="Trazado_6156" data-name="Trazado 6156" d="M35.158,6.973a.937.937,0,0,1-.967-.9V2.985a1.222,1.222,0,0,0-1.259-1.177h-5.11a1.222,1.222,0,0,0-1.259,1.177V6.07a.969.969,0,0,1-1.934,0V2.985A3.1,3.1,0,0,1,27.821,0h5.11a3.1,3.1,0,0,1,3.193,2.985V6.07a.937.937,0,0,1-.967.9Z" transform="translate(-24.628 0)" fill="#365e7d"/>
                                </g>
                              </g>
                              <g id="Grupo_23059" data-name="Grupo 23059" transform="translate(0 5.321)">
                                <path id="Trazado_6157" data-name="Trazado 6157" d="M21.986,12.517A4.694,4.694,0,0,1,17.142,7.99V20.147a2.59,2.59,0,0,0,2.673,2.5H34.57a2.59,2.59,0,0,0,2.673-2.5v-7.63Z" transform="translate(-17.142 -5.321)" fill="#ddb7a0"/>
                                <g id="Grupo_23058" data-name="Grupo 23058" transform="translate(0)">
                                  <path id="Trazado_6158" data-name="Trazado 6158" d="M38.723,12.517H35.41v7.63a2.59,2.59,0,0,1-2.673,2.5h8.157a2.59,2.59,0,0,0,2.673-2.5V7.99A4.694,4.694,0,0,1,38.723,12.517Z" transform="translate(-16.05 -5.321)" fill="#d6a889"/>
                                  <path id="Trazado_6159" data-name="Trazado 6159" d="M34.578,5.321H19.815a2.59,2.59,0,0,0-2.673,2.5V8.888a4.694,4.694,0,0,0,4.844,4.527H37.251v-5.6A2.59,2.59,0,0,0,34.578,5.321Z" transform="translate(-17.142 -5.321)" fill="#cc9675"/>
                                  <path id="Trazado_6160" data-name="Trazado 6160" d="M35.41,7.819v5.6h3.313a4.694,4.694,0,0,0,4.844-4.527V7.819a2.59,2.59,0,0,0-2.673-2.5H32.736a2.59,2.59,0,0,1,2.673,2.5Z" transform="translate(-16.05 -5.321)" fill="#c4845c"/>
                                </g>
                              </g>
                            </g>
                          </g>
                        </g>
                      </g>
                    </g>
                  </g>
                </g>
              </g>
            </g>
          </g>
          <g id="Grupo_23072" data-name="Grupo 23072" transform="translate(5.601 10.614)">
            <g id="Grupo_23070" data-name="Grupo 23070">
              <path id="Trazado_6161" data-name="Trazado 6161" d="M23.343,16.217a.937.937,0,0,1-.967-.9v-3.8a.969.969,0,0,1,1.934,0v3.8a.937.937,0,0,1-.967.9Z" transform="translate(-22.376 -10.614)" fill="#f4fbff"/>
            </g>
            <g id="Grupo_23071" data-name="Grupo 23071" transform="translate(14.381)">
              <path id="Trazado_6162" data-name="Trazado 6162" d="M36.783,16.217a.937.937,0,0,1-.967-.9v-3.8a.969.969,0,0,1,1.934,0v3.8a.937.937,0,0,1-.967.9Z" transform="translate(-35.816 -10.614)" fill="#f4fbff"/>
            </g>
          </g>
        </g>
      </g>
    </g>
  </g>
</svg>
