<svg xmlns="http://www.w3.org/2000/svg" width="64.203" height="60.001" viewBox="0 0 64.203 60.001">
  <g id="profile" transform="translate(0)">
    <g id="Grupo_23043" data-name="Grupo 23043" transform="translate(0)">
      <ellipse id="Elipse_1285" data-name="Elipse 1285" cx="32" cy="30" rx="32" ry="30" transform="translate(0 0)" fill="#cbe2ff"/>
      <path id="Trazado_6132" data-name="Trazado 6132" d="M228.489,7.487a34.641,34.641,0,0,0-4.081.24c15.8,1.874,28.021,14.483,28.021,29.76s-12.218,27.887-28.021,29.76a34.643,34.643,0,0,0,4.081.24c17.729,0,32.1-13.432,32.1-30S246.218,7.487,228.489,7.487Z" transform="translate(-196.387 -7.487)" fill="#bed8fb"/>
      <g id="Grupo_23042" data-name="Grupo 23042" transform="translate(9.472 7.572)">
        <g id="Grupo_23041" data-name="Grupo 23041">
          <g id="Grupo_23040" data-name="Grupo 23040">
            <g id="Grupo_23039" data-name="Grupo 23039">
              <g id="Grupo_23037" data-name="Grupo 23037">
                <g id="Grupo_23036" data-name="Grupo 23036">
                  <path id="Trazado_6133" data-name="Trazado 6133" d="M175.959,98.619a6.453,6.453,0,0,0,3.448-5.628c0-6.665,0-10.311,0-10.311,0-6.883-5.971-12.463-13.336-12.463s-13.336,5.58-13.336,12.463c0,0,0,3.647,0,10.311a6.453,6.453,0,0,0,3.448,5.628l1.5.824a17.587,17.587,0,0,0,16.775,0Z" transform="translate(-143.437 -70.216)" fill="#efc984"/>
                  <g id="Grupo_23033" data-name="Grupo 23033" transform="translate(27.808 0.975)">
                    <path id="Trazado_6134" data-name="Trazado 6134" d="M304.247,89.778a12.487,12.487,0,0,0-8.158-11.489v29.6a17.173,17.173,0,0,0,3.209-1.352l1.5-.825a6.453,6.453,0,0,0,3.448-5.628c0-6.665,0-10.311,0-10.311Z" transform="translate(-296.089 -78.289)" fill="#eabc6b"/>
                  </g>
                  <g id="Grupo_23034" data-name="Grupo 23034" transform="translate(14.168 23.18)">
                    <path id="Trazado_6135" data-name="Trazado 6135" d="M198.954,280.48l8.462-5.565L204,271.049v-8.813H193.908v8.813l-3.416,3.866Z" transform="translate(-190.492 -262.236)" fill="#ffddce"/>
                  </g>
                  <path id="Trazado_6136" data-name="Trazado 6136" d="M119.939,340.066l-9.345-1.681a8.708,8.708,0,0,1-14.308,0l-9.345,1.681A7.207,7.207,0,0,0,80.81,347v2.716a33.164,33.164,0,0,0,22.523,8.722h.214a33.162,33.162,0,0,0,22.523-8.722V347A7.207,7.207,0,0,0,119.939,340.066Z" transform="translate(-80.81 -306.012)" fill="#4a80aa"/>
                  <path id="Trazado_6137" data-name="Trazado 6137" d="M251.139,373.662a6.827,6.827,0,0,0-2.175-4.958,32.128,32.128,0,0,1-24.533,16.155,34.642,34.642,0,0,0,3.971.24h.214a33.162,33.162,0,0,0,22.523-8.722v-2.716Z" transform="translate(-205.88 -332.671)" fill="#407093"/>
                  <g id="Grupo_23035" data-name="Grupo 23035" transform="translate(17.712 34.627)">
                    <path id="Trazado_6138" data-name="Trazado 6138" d="M227.762,357.06a8.867,8.867,0,0,1-9.836,0c.646,7.049,3.558,15.148,4.57,17.8.08,0,.16,0,.241,0h.214l.241,0C224.2,372.208,227.116,364.109,227.762,357.06Z" transform="translate(-217.926 -357.06)" fill="#e28086"/>
                  </g>
                  <path id="Trazado_6139" data-name="Trazado 6139" d="M250.921,495.09c.115.313.219.588.308.821.658.007.429,0,.7,0,.121-.318.27-.715.439-1.178Q251.649,494.927,250.921,495.09Z" transform="translate(-228.947 -443.486)" fill="#dd636e"/>
                  <path id="Trazado_6140" data-name="Trazado 6140" d="M200.813,116.692a15.151,15.151,0,0,1-4.225-6.845,12.343,12.343,0,0,1-11.532,7.424q-.242,0-.481-.009a2.078,2.078,0,0,0-2.218,2V122.9c.078,4.848,4.306,8.757,9.513,8.757s9.434-3.908,9.513-8.757v-4.852A1.924,1.924,0,0,0,200.813,116.692Z" transform="translate(-169.239 -105.063)" fill="#ffddce"/>
                  <path id="Trazado_6141" data-name="Trazado 6141" d="M244.151,126.692a17.268,17.268,0,0,1-3.765-5.472V132.5a9.132,9.132,0,0,1-8.263,8.678,10.1,10.1,0,0,0,3.084.48c5.207,0,9.434-3.908,9.513-8.757v-4.852A1.925,1.925,0,0,0,244.151,126.692Z" transform="translate(-212.577 -115.063)" fill="#ffcbbe"/>
                </g>
              </g>
              <g id="Grupo_23038" data-name="Grupo 23038" transform="translate(11.717 29.525)">
                <path id="Trazado_6142" data-name="Trazado 6142" d="M171.885,317.948a.685.685,0,0,0-.168,1.084l1.979,2.054a.68.68,0,0,1-.06,1.009l-1.3,1.083a.951.951,0,0,0-.345.908c.729,3.806,7.244,11.075,9.6,13.6q.249.006.5.008c-1.14-2.985-4.7-12.9-4.7-20.433V314.8Z" transform="translate(-171.521 -314.797)" fill="#365e7d"/>
                <path id="Trazado_6143" data-name="Trazado 6143" d="M268.888,317.947l-5.5-3.151v2.468c0,7.529-3.559,17.448-4.7,20.433q.25,0,.5-.008c2.357-2.53,8.873-9.8,9.6-13.6a.951.951,0,0,0-.345-.908l-1.3-1.083a.68.68,0,0,1-.06-1.009l1.979-2.054A.685.685,0,0,0,268.888,317.947Z" transform="translate(-247.427 -314.796)" fill="#365e7d"/>
              </g>
            </g>
            <path id="Trazado_6144" data-name="Trazado 6144" d="M331.085,177.916h-1.442v4.453h1.442a2.232,2.232,0,1,0,0-4.453Z" transform="translate(-297.5 -164.915)" fill="#ffddce"/>
          </g>
        </g>
      </g>
    </g>
  </g>
</svg>
