<svg id="Grupo_22497" data-name="Grupo 22497" xmlns="http://www.w3.org/2000/svg" width="48.932" height="48.931" viewBox="0 0 48.932 48.931">
  <path id="Trazado_5509" data-name="Trazado 5509" d="M158.244,171.29a.956.956,0,1,1-.955-.956A.956.956,0,0,1,158.244,171.29Z" transform="translate(-115.143 -157.624)" fill="#da8a1c"/>
  <path id="Trazado_5510" data-name="Trazado 5510" d="M153.926,171.88a.955.955,0,0,0-.255,1.327,19.111,19.111,0,1,1-33.663,3.824c.146.005.292.01.439.01a10.613,10.613,0,0,0,1.684-.134,17.2,17.2,0,1,0,8.694-8.694,10.626,10.626,0,0,0,.135-1.685c0-.146,0-.293-.011-.439a19.15,19.15,0,0,1,17.606,2,.956.956,0,0,0,1.073-1.582,21.068,21.068,0,0,0-18.94-2.364,10.514,10.514,0,1,0-12.624,12.624,21.027,21.027,0,1,0,37.188-4.636A.956.956,0,0,0,153.926,171.88Zm-23.849-1.131a15.233,15.233,0,0,1,6.808-2.086V171.5a.956.956,0,1,0,1.911,0v-2.836a15.168,15.168,0,0,1,9.16,3.793l-2.007,2.006a.956.956,0,0,0,1.352,1.352l2.006-2.006a15.165,15.165,0,0,1,3.794,9.159h-2.837a.956.956,0,0,0,0,1.911H153.1a15.167,15.167,0,0,1-3.794,9.16l-2.006-2.006a.956.956,0,0,0-1.352,1.352l2.006,2.005a15.154,15.154,0,0,1-9.159,3.794v-2.836a.956.956,0,1,0-1.911,0v2.836a15.164,15.164,0,0,1-9.16-3.794l2.006-2.005a.956.956,0,0,0-1.351-1.352l-2.006,2.006a15.162,15.162,0,0,1-3.794-9.16h2.837a.956.956,0,0,0,0-1.911h-2.836a15.248,15.248,0,0,1,2.086-6.808A10.571,10.571,0,0,0,130.077,170.749Zm-18.231-4.22a8.6,8.6,0,1,1,8.6,8.6A8.611,8.611,0,0,1,111.846,166.529Z" transform="translate(-109.935 -156.017)" fill="#da8a1c"/>
  <path id="Trazado_5511" data-name="Trazado 5511" d="M141.248,187.319h7.646a.956.956,0,0,0,0-1.911H142.2v-6.689a.956.956,0,1,0-1.911,0v7.645A.955.955,0,0,0,141.248,187.319Z" transform="translate(-113.342 -158.458)" fill="#da8a1c"/>
  <path id="Trazado_5512" data-name="Trazado 5512" d="M117.35,162.476a.956.956,0,0,0-.956.955v7.645a.956.956,0,1,0,1.911,0v-7.645A.955.955,0,0,0,117.35,162.476Z" transform="translate(-110.66 -156.742)" fill="#da8a1c"/>
  <path id="Trazado_5513" data-name="Trazado 5513" d="M123.567,172.033a2.87,2.87,0,0,0,2.867-2.867v-3.823a2.867,2.867,0,0,0-5.734,0v3.823A2.871,2.871,0,0,0,123.567,172.033Zm-.956-6.69a.956.956,0,0,1,1.911,0v3.823a.956.956,0,1,1-1.911,0Z" transform="translate(-111.143 -156.742)" fill="#da8a1c"/>
</svg>
