<svg id="Grupo_22572" data-name="Grupo 22572" xmlns="http://www.w3.org/2000/svg" width="40.028" height="48.931" viewBox="0 0 40.028 48.931">
  <g id="Grupo_22506" data-name="Grupo 22506">
    <g id="Grupo_22505" data-name="Grupo 22505">
      <path id="Trazado_5519" data-name="Trazado 5519" d="M314.872,256.125l-4.016-10.007c.028-.413.043-.83.043-1.239a17.946,17.946,0,1,0-35.022,5.527l2.659,11.331a20.99,20.99,0,0,1,.553,4.786v9.342h22.057v-5.8a1.756,1.756,0,0,1,1.755-1.755h1.79a4.622,4.622,0,0,0,4.616-4.617v-4.45h3.455a2.274,2.274,0,0,0,2.11-3.12Zm-1.433,1.3a.8.8,0,0,1-.677.36h-4.911V263.7a3.164,3.164,0,0,1-3.161,3.16H302.9a3.215,3.215,0,0,0-3.211,3.211v4.342H280.545v-7.886a22.422,22.422,0,0,0-.592-5.118l-2.665-11.361-.017-.059a16.491,16.491,0,1,1,32.172-5.105c0,.429-.017.866-.05,1.3l-.013.169,4.142,10.321A.807.807,0,0,1,313.44,257.43Z" transform="translate(-275.008 -226.934)" fill="#ffa726"/>
    </g>
  </g>
  <g id="Grupo_22509" data-name="Grupo 22509" transform="translate(6.668 5.914)">
    <g id="Grupo_22508" data-name="Grupo 22508">
      <g id="Grupo_22507" data-name="Grupo 22507">
        <path id="Trazado_5520" data-name="Trazado 5520" d="M303.794,246.688v-5.2h-2.443a8.683,8.683,0,0,0-.617-1.488l1.728-1.727-3.678-3.678-1.728,1.727a8.717,8.717,0,0,0-1.487-.616v-2.443h-5.2V235.7a8.757,8.757,0,0,0-1.488.616l-1.727-1.727-3.678,3.678L285.2,240a8.681,8.681,0,0,0-.616,1.488h-2.443v5.2h2.443a8.641,8.641,0,0,0,.616,1.487l-1.727,1.728,3.678,3.678,1.727-1.728a8.682,8.682,0,0,0,1.488.617v2.443h5.2V252.47a8.643,8.643,0,0,0,1.487-.617l1.728,1.728,3.678-3.678-1.728-1.728a8.642,8.642,0,0,0,.617-1.487ZM300.4,249.9l-1.62,1.62-1.5-1.5-.49.3a7.239,7.239,0,0,1-2.125.88l-.559.134v2.117h-2.29v-2.116l-.559-.134a7.287,7.287,0,0,1-2.125-.881l-.489-.3-1.5,1.5-1.62-1.62,1.5-1.5-.3-.49a7.244,7.244,0,0,1-.88-2.124l-.134-.56H283.6v-2.29h2.117l.134-.56a7.244,7.244,0,0,1,.88-2.124l.3-.49-1.5-1.5,1.62-1.62,1.5,1.5.489-.3a7.289,7.289,0,0,1,2.125-.88l.559-.134v-2.117h2.29v2.117l.559.134a7.238,7.238,0,0,1,2.125.88l.49.3,1.5-1.5,1.62,1.619-1.5,1.5.3.49a7.266,7.266,0,0,1,.881,2.125l.133.559h2.117v2.29h-2.117l-.133.559a7.265,7.265,0,0,1-.881,2.125l-.3.49Z" transform="translate(-282.143 -233.262)" fill="#ffa726"/>
        <path id="Trazado_5521" data-name="Trazado 5521" d="M293.314,238.541a5.892,5.892,0,1,0,5.892,5.892A5.9,5.9,0,0,0,293.314,238.541Zm0,10.328a4.436,4.436,0,1,1,4.436-4.436A4.441,4.441,0,0,1,293.314,248.869Z" transform="translate(-282.489 -233.608)" fill="#ffa726"/>
      </g>
    </g>
  </g>
  <g id="Grupo_22512" data-name="Grupo 22512" transform="translate(11.601 10.847)">
    <g id="Grupo_22511" data-name="Grupo 22511">
      <g id="Grupo_22510" data-name="Grupo 22510">
        <path id="Trazado_5522" data-name="Trazado 5522" d="M293.314,238.541a5.892,5.892,0,1,0,5.892,5.892A5.9,5.9,0,0,0,293.314,238.541Zm0,10.328a4.436,4.436,0,1,1,4.436-4.436A4.441,4.441,0,0,1,293.314,248.869Z" transform="translate(-287.422 -238.541)" fill="#ffa726"/>
        <path id="Trazado_5523" data-name="Trazado 5523" d="M293.514,241.594a3.039,3.039,0,1,0,3.038,3.039A3.043,3.043,0,0,0,293.514,241.594Zm0,4.622a1.583,1.583,0,1,1,1.582-1.583A1.585,1.585,0,0,1,293.514,246.216Z" transform="translate(-287.622 -238.741)" fill="#ffa726"/>
      </g>
    </g>
  </g>
  <g id="Grupo_22514" data-name="Grupo 22514" transform="translate(15.05 45.435)">
    <g id="Grupo_22513" data-name="Grupo 22513">
      <rect id="Rect치ngulo_5560" data-name="Rect치ngulo 5560" width="8.136" height="1.456" fill="#ffa726"/>
    </g>
  </g>
  <g id="Grupo_22516" data-name="Grupo 22516" transform="translate(10.108 45.435)">
    <g id="Grupo_22515" data-name="Grupo 22515">
      <rect id="Rect치ngulo_5561" data-name="Rect치ngulo 5561" width="3.7" height="1.456" fill="#ffa726"/>
    </g>
  </g>
  <g id="Grupo_22518" data-name="Grupo 22518" transform="translate(30.58 10.874)">
    <g id="Grupo_22517" data-name="Grupo 22517">
      <path id="Trazado_5524" data-name="Trazado 5524" d="M309.034,238.57l-1.3.651a13.906,13.906,0,0,1,.9,2.288l1.4-.413A15.561,15.561,0,0,0,309.034,238.57Z" transform="translate(-307.731 -238.57)" fill="#ffa726"/>
    </g>
  </g>
  <g id="Grupo_22520" data-name="Grupo 22520" transform="translate(25.247 4.497)">
    <g id="Grupo_22519" data-name="Grupo 22519">
      <path id="Trazado_5525" data-name="Trazado 5525" d="M302.778,231.746l-.754,1.245a14.265,14.265,0,0,1,4.595,4.483l1.226-.785A15.734,15.734,0,0,0,302.778,231.746Z" transform="translate(-302.024 -231.746)" fill="#ffa726"/>
    </g>
  </g>
</svg>
