<svg id="Grupo_22575" data-name="Grupo 22575" xmlns="http://www.w3.org/2000/svg" width="48.116" height="48.931" viewBox="0 0 48.116 48.931">
  <g id="Grupo_22530" data-name="Grupo 22530">
    <g id="Grupo_22529" data-name="Grupo 22529">
      <path id="Trazado_5531" data-name="Trazado 5531" d="M461.82,157.221H429.2a4.082,4.082,0,0,0-4.078,4.077v26.1a4.078,4.078,0,0,0,3.06,3.949l.407-1.579a2.447,2.447,0,0,1-1.835-2.37V161.3a2.446,2.446,0,0,1,2.446-2.446H461.82a2.446,2.446,0,0,1,2.446,2.446v.816H465.9V161.3A4.083,4.083,0,0,0,461.82,157.221Z" transform="translate(-425.121 -157.221)" fill="#ffa726"/>
    </g>
  </g>
  <g id="Grupo_22532" data-name="Grupo 22532" transform="translate(3.262 3.262)">
    <g id="Grupo_22531" data-name="Grupo 22531">
      <rect id="Rectángulo_5564" data-name="Rectángulo 5564" width="1.631" height="1.631" fill="#ffa726"/>
    </g>
  </g>
  <g id="Grupo_22534" data-name="Grupo 22534" transform="translate(6.525 3.262)">
    <g id="Grupo_22533" data-name="Grupo 22533">
      <rect id="Rectángulo_5565" data-name="Rectángulo 5565" width="1.631" height="1.631" fill="#ffa726"/>
    </g>
  </g>
  <g id="Grupo_22536" data-name="Grupo 22536" transform="translate(9.787 3.262)">
    <g id="Grupo_22535" data-name="Grupo 22535">
      <rect id="Rectángulo_5566" data-name="Rectángulo 5566" width="1.631" height="1.631" fill="#ffa726"/>
    </g>
  </g>
  <g id="Grupo_22538" data-name="Grupo 22538" transform="translate(8.156 13.048)">
    <g id="Grupo_22537" data-name="Grupo 22537">
      <path id="Trazado_5532" data-name="Trazado 5532" d="M473.334,202.851l-7.735-7.735a11.324,11.324,0,0,0,.969-2.29h1.3V191.2h-.946a10.99,10.99,0,0,0-.685-5.844v-8.02H464.6v5.193a11.472,11.472,0,0,0-1.631-1.692V174.07h-1.631v5.622a11.29,11.29,0,0,0-1.632-.779v-8.106h-1.631v7.61a11.239,11.239,0,0,0-1.631-.229v-5.751h-1.631v5.751a11.251,11.251,0,0,0-1.632.229V175.7h-1.631v3.213a11.229,11.229,0,0,0-1.631.779v-4.807h-1.632v5.947a11.472,11.472,0,0,0-1.631,1.692v-6.008H445.03v8.836a10.98,10.98,0,0,0-.685,5.844H433.613v1.631H444.7a11.393,11.393,0,0,0,17.488,6.074l7.551,7.551a.815.815,0,0,0,1.153,0L473.334,204A.815.815,0,0,0,473.334,202.851Zm-17.7-3.5a9.786,9.786,0,1,1,9.786-9.787A9.8,9.8,0,0,1,455.632,199.35Zm14.679,5.371-6.86-6.86a11.518,11.518,0,0,0,1.227-1.359l6.926,6.926Z" transform="translate(-433.613 -170.807)" fill="#ffa726"/>
    </g>
  </g>
  <g id="Grupo_22540" data-name="Grupo 22540" transform="translate(22.019 23.65)">
    <g id="Grupo_22539" data-name="Grupo 22539">
      <path id="Trazado_5533" data-name="Trazado 5533" d="M456.2,181.846A8.155,8.155,0,1,0,464.359,190,8.156,8.156,0,0,0,456.2,181.846Zm0,14.679a6.525,6.525,0,0,1-5.642-3.262h11.284A6.523,6.523,0,0,1,456.2,196.525Zm-6.31-4.892a6.465,6.465,0,0,1,2.232-6.716V190h1.631v-6.044a6.525,6.525,0,0,1,1.632-.424V190h1.631v-6.467a6.507,6.507,0,0,1,1.631.424V190h1.631v-5.084a6.466,6.466,0,0,1,2.233,6.716Z" transform="translate(-448.048 -181.846)" fill="#ffa726"/>
    </g>
  </g>
  <g id="Grupo_22542" data-name="Grupo 22542" transform="translate(4.893 6.524)">
    <g id="Grupo_22541" data-name="Grupo 22541">
      <path id="Trazado_5534" data-name="Trazado 5534" d="M466.915,164.014H434.294a4.083,4.083,0,0,0-4.078,4.078v26.1a4.083,4.083,0,0,0,4.078,4.078h10.6v-1.631h-10.6a2.447,2.447,0,0,1-2.446-2.447v-26.1a2.447,2.447,0,0,1,2.446-2.447h32.621a2.447,2.447,0,0,1,2.446,2.447v26.1a2.443,2.443,0,0,1-.612,1.618l1.224,1.079a4.071,4.071,0,0,0,1.019-2.7v-26.1A4.082,4.082,0,0,0,466.915,164.014Z" transform="translate(-430.216 -164.014)" fill="#ffa726"/>
    </g>
  </g>
  <g id="Grupo_22544" data-name="Grupo 22544" transform="translate(8.156 9.786)">
    <g id="Grupo_22543" data-name="Grupo 22543">
      <rect id="Rectángulo_5567" data-name="Rectángulo 5567" width="1.631" height="1.631" fill="#ffa726"/>
    </g>
  </g>
  <g id="Grupo_22546" data-name="Grupo 22546" transform="translate(11.418 9.786)">
    <g id="Grupo_22545" data-name="Grupo 22545">
      <rect id="Rectángulo_5568" data-name="Rectángulo 5568" width="1.631" height="1.631" fill="#ffa726"/>
    </g>
  </g>
  <g id="Grupo_22548" data-name="Grupo 22548" transform="translate(14.68 9.786)">
    <g id="Grupo_22547" data-name="Grupo 22547">
      <rect id="Rectángulo_5569" data-name="Rectángulo 5569" width="1.631" height="1.631" fill="#ffa726"/>
    </g>
  </g>
  <g id="Grupo_22550" data-name="Grupo 22550" transform="translate(9.787 26.912)">
    <g id="Grupo_22549" data-name="Grupo 22549">
      <rect id="Rectángulo_5570" data-name="Rectángulo 5570" width="1.631" height="4.893" fill="#ffa726"/>
    </g>
  </g>
  <g id="Grupo_22552" data-name="Grupo 22552" transform="translate(13.049 22.019)">
    <g id="Grupo_22551" data-name="Grupo 22551">
      <rect id="Rectángulo_5571" data-name="Rectángulo 5571" width="1.631" height="9.786" fill="#ffa726"/>
    </g>
  </g>
  <g id="Grupo_22554" data-name="Grupo 22554" transform="translate(16.311 24.465)">
    <g id="Grupo_22553" data-name="Grupo 22553">
      <rect id="Rectángulo_5572" data-name="Rectángulo 5572" width="1.631" height="7.34" fill="#ffa726"/>
    </g>
  </g>
</svg>
