<svg xmlns="http://www.w3.org/2000/svg" width="114.118" height="194.234" viewBox="0 0 114.118 194.234">
  <g id="Grupo_22593" data-name="Grupo 22593" transform="translate(-139.901 -237.293)">
    <g id="Grupo_22589" data-name="Grupo 22589" transform="translate(163.386 388.681)" opacity="0.15" style="mix-blend-mode: multiply;isolation: isolate">
      <path id="Trazado_5547" data-name="Trazado 5547" d="M227.761,446.551l-15.688,9.058c-6.019,3.475-15.868,3.475-21.887,0L174.5,446.551c-9.3-5.367-9.3-14.15,0-19.517l15.688-9.058c6.019-3.475,15.868-3.475,21.887,0l15.688,9.058C237.057,432.4,237.057,441.184,227.761,446.551Z" transform="translate(-167.526 -415.369)" fill="#7974f2"/>
    </g>
    <g id="Grupo_22592" data-name="Grupo 22592" transform="translate(139.901 237.293)">
      <g id="Grupo_22590" data-name="Grupo 22590" transform="translate(12.977)">
        <path id="Trazado_5548" data-name="Trazado 5548" d="M232.863,420.414c0-12.66-7.774-25.9-18.939-32.342-5.528-3.191-10.241-3.684-13.56-1.773l-22,12.661c3.319-1.911,8.036-1.411,13.564,1.78,11.164,6.446,18.939,19.682,18.938,32.342,0,6.445-1.943,10.79-5.283,12.718l21.991-12.664C230.916,431.211,232.863,426.864,232.863,420.414Z" transform="translate(-158.642 -259.456)" fill="#f8ae19"/>
        <path id="Trazado_5549" data-name="Trazado 5549" d="M176.276,313.714l16.437-9.465a27.735,27.735,0,0,0-3.5-2.421C180.643,296.895,176.276,300.586,176.276,313.714Z" transform="translate(-158.33 -246.651)" fill="#f8ae19"/>
        <path id="Trazado_5550" data-name="Trazado 5550" d="M247.22,279.3a83.7,83.7,0,0,0-14.268-18.1,106.209,106.209,0,0,0-21.1-15.8c-14.794-8.534-26.549-10.236-34.684-5.545,0-.025-22,12.643-22,12.643,8.146-4.665,19.9-2.96,34.684,5.569a106.27,106.27,0,0,1,21.1,15.8,83.73,83.73,0,0,1,14.268,18.1,65.068,65.068,0,0,1,9.086,32.762c0,34.069-30.11,22.2-30.111,47.965l22-12.668c0-25.769,30.11-13.9,30.11-47.965A65.051,65.051,0,0,0,247.22,279.3Z" transform="translate(-155.166 -237.293)" fill="#f8ae19"/>
      </g>
      <g id="Grupo_22591" data-name="Grupo 22591" transform="translate(0 12.655)">
        <path id="Trazado_5551" data-name="Trazado 5551" d="M191.012,402.972c-10.964-6.33-18.739-2.071-18.739,10.589,0,12.891,7.774,26.357,18.739,32.688,11.165,6.445,18.939,1.957,18.939-10.934C209.952,422.654,202.176,409.418,191.012,402.972Z" transform="translate(-144.753 -274.343)" fill="#f8cd66"/>
        <path id="Trazado_5552" data-name="Trazado 5552" d="M183.764,294.7c7.188,4.15,11.176,10.137,11.176,18.438a20.7,20.7,0,0,1-.218,3c-1.275,9.052-8.463,10.517-14.458,16.1a18.378,18.378,0,0,0-2.821,3.2c-3.255,4.325-5.642,10.872-5.643,22.1l30.109,17.379c0-25.769,30.11-13.9,30.111-47.965a65.068,65.068,0,0,0-9.086-32.762,83.7,83.7,0,0,0-14.269-18.1,106.2,106.2,0,0,0-21.1-15.8c-21.782-12.565-37-10.361-43.727,5.335-2.523,5.848-3.879,13.559-3.934,23.1l15.353,8.858,15.57,9C170.825,293.46,175.192,289.768,183.764,294.7Z" transform="translate(-139.901 -252.179)" fill="#f8cd66"/>
      </g>
    </g>
  </g>
</svg>
